  0
SECTION
  2
HEADER
  9
$ACADVER
  1
AC1027
  9
$ACADMAINTVER
 70
   125
  9
$DWGCODEPAGE
  3
ANSI_1252
  9
$REQUIREDVERSIONS
160
                 0
  9
$INSBASE
 10
0.0
 20
0.0
 30
0.0
  9
$EXTMIN
 10
1.000000000000000E+20
 20
1.000000000000000E+20
 30
1.000000000000000E+20
  9
$EXTMAX
 10
-1.000000000000000E+20
 20
-1.000000000000000E+20
 30
-1.000000000000000E+20
  9
$LIMMIN
 10
0.0
 20
0.0
  9
$LIMMAX
 10
12.0
 20
9.0
  9
$ORTHOMODE
 70
     0
  9
$REGENMODE
 70
     1
  9
$FILLMODE
 70
     1
  9
$QTEXTMODE
 70
     0
  9
$MIRRTEXT
 70
     0
  9
$LTSCALE
 40
1.0
  9
$ATTMODE
 70
     1
  9
$TEXTSIZE
 40
0.2
  9
$TRACEWID
 40
0.05
  9
$TEXTSTYLE
  7
Standard
  9
$CLAYER
  8
0
  9
$CELTYPE
  6
ByLayer
  9
$CECOLOR
 62
   256
  9
$CELTSCALE
 40
1.0
  9
$DISPSILH
 70
     0
  9
$DIMSCALE
 40
1.0
  9
$DIMASZ
 40
0.18
  9
$DIMEXO
 40
0.0625
  9
$DIMDLI
 40
0.38
  9
$DIMRND
 40
0.0
  9
$DIMDLE
 40
0.0
  9
$DIMEXE
 40
0.18
  9
$DIMTP
 40
0.0
  9
$DIMTM
 40
0.0
  9
$DIMTXT
 40
0.18
  9
$DIMCEN
 40
0.09
  9
$DIMTSZ
 40
0.0
  9
$DIMTOL
 70
     0
  9
$DIMLIM
 70
     0
  9
$DIMTIH
 70
     1
  9
$DIMTOH
 70
     1
  9
$DIMSE1
 70
     0
  9
$DIMSE2
 70
     0
  9
$DIMTAD
 70
     0
  9
$DIMZIN
 70
     0
  9
$DIMBLK
  1

  9
$DIMASO
 70
     1
  9
$DIMSHO
 70
     1
  9
$DIMPOST
  1

  9
$DIMAPOST
  1

  9
$DIMALT
 70
     0
  9
$DIMALTD
 70
     2
  9
$DIMALTF
 40
25.4
  9
$DIMLFAC
 40
1.0
  9
$DIMTOFL
 70
     0
  9
$DIMTVP
 40
0.0
  9
$DIMTIX
 70
     0
  9
$DIMSOXD
 70
     0
  9
$DIMSAH
 70
     0
  9
$DIMBLK1
  1

  9
$DIMBLK2
  1

  9
$DIMSTYLE
  2
Standard
  9
$DIMCLRD
 70
     0
  9
$DIMCLRE
 70
     0
  9
$DIMCLRT
 70
     0
  9
$DIMTFAC
 40
1.0
  9
$DIMGAP
 40
0.09
  9
$DIMJUST
 70
     0
  9
$DIMSD1
 70
     0
  9
$DIMSD2
 70
     0
  9
$DIMTOLJ
 70
     1
  9
$DIMTZIN
 70
     0
  9
$DIMALTZ
 70
     0
  9
$DIMALTTZ
 70
     0
  9
$DIMUPT
 70
     0
  9
$DIMDEC
 70
     4
  9
$DIMTDEC
 70
     4
  9
$DIMALTU
 70
     2
  9
$DIMALTTD
 70
     2
  9
$DIMTXSTY
  7
Standard
  9
$DIMAUNIT
 70
     0
  9
$DIMADEC
 70
     0
  9
$DIMALTRND
 40
0.0
  9
$DIMAZIN
 70
     0
  9
$DIMDSEP
 70
    46
  9
$DIMATFIT
 70
     3
  9
$DIMFRAC
 70
     0
  9
$DIMLDRBLK
  1

  9
$DIMLUNIT
 70
     2
  9
$DIMLWD
 70
    -2
  9
$DIMLWE
 70
    -2
  9
$DIMTMOVE
 70
     0
  9
$DIMFXL
 40
1.0
  9
$DIMFXLON
 70
     0
  9
$DIMJOGANG
 40
0.7853981633974483
  9
$DIMTFILL
 70
     0
  9
$DIMTFILLCLR
 70
     0
  9
$DIMARCSYM
 70
     0
  9
$DIMLTYPE
  6

  9
$DIMLTEX1
  6

  9
$DIMLTEX2
  6

  9
$DIMTXTDIRECTION
 70
     0
  9
$LUNITS
 70
     2
  9
$LUPREC
 70
     4
  9
$SKETCHINC
 40
0.1
  9
$FILLETRAD
 40
0.0
  9
$AUNITS
 70
     0
  9
$AUPREC
 70
     0
  9
$MENU
  1
.
  9
$ELEVATION
 40
0.0
  9
$PELEVATION
 40
0.0
  9
$THICKNESS
 40
0.0
  9
$LIMCHECK
 70
     0
  9
$CHAMFERA
 40
0.0
  9
$CHAMFERB
 40
0.0
  9
$CHAMFERC
 40
0.0
  9
$CHAMFERD
 40
0.0
  9
$SKPOLY
 70
     0
  9
$TDCREATE
 40
2461052.441585648
  9
$TDUCREATE
 40
2461052.441585648
  9
$TDUPDATE
 40
2461052.441585648
  9
$TDUUPDATE
 40
2461052.441585648
  9
$TDINDWG
 40
0.0000115741
  9
$TDUSRTIMER
 40
0.0000115741
  9
$USRTIMER
 70
     1
  9
$ANGBASE
 50
0.0
  9
$ANGDIR
 70
     0
  9
$PDMODE
 70
     0
  9
$PDSIZE
 40
0.0
  9
$PLINEWID
 40
0.0
  9
$SPLFRAME
 70
     0
  9
$SPLINETYPE
 70
     6
  9
$SPLINESEGS
 70
     8
  9
$HANDSEED
  5
1BD
  9
$SURFTAB1
 70
     6
  9
$SURFTAB2
 70
     6
  9
$SURFTYPE
 70
     6
  9
$SURFU
 70
     6
  9
$SURFV
 70
     6
  9
$UCSBASE
  2

  9
$UCSNAME
  2

  9
$UCSORG
 10
0.0
 20
0.0
 30
0.0
  9
$UCSXDIR
 10
1.0
 20
0.0
 30
0.0
  9
$UCSYDIR
 10
0.0
 20
1.0
 30
0.0
  9
$UCSORTHOREF
  2

  9
$UCSORTHOVIEW
 70
     0
  9
$UCSORGTOP
 10
0.0
 20
0.0
 30
0.0
  9
$UCSORGBOTTOM
 10
0.0
 20
0.0
 30
0.0
  9
$UCSORGLEFT
 10
0.0
 20
0.0
 30
0.0
  9
$UCSORGRIGHT
 10
0.0
 20
0.0
 30
0.0
  9
$UCSORGFRONT
 10
0.0
 20
0.0
 30
0.0
  9
$UCSORGBACK
 10
0.0
 20
0.0
 30
0.0
  9
$PUCSBASE
  2

  9
$PUCSNAME
  2

  9
$PUCSORG
 10
0.0
 20
0.0
 30
0.0
  9
$PUCSXDIR
 10
1.0
 20
0.0
 30
0.0
  9
$PUCSYDIR
 10
0.0
 20
1.0
 30
0.0
  9
$PUCSORTHOREF
  2

  9
$PUCSORTHOVIEW
 70
     0
  9
$PUCSORGTOP
 10
0.0
 20
0.0
 30
0.0
  9
$PUCSORGBOTTOM
 10
0.0
 20
0.0
 30
0.0
  9
$PUCSORGLEFT
 10
0.0
 20
0.0
 30
0.0
  9
$PUCSORGRIGHT
 10
0.0
 20
0.0
 30
0.0
  9
$PUCSORGFRONT
 10
0.0
 20
0.0
 30
0.0
  9
$PUCSORGBACK
 10
0.0
 20
0.0
 30
0.0
  9
$USERI1
 70
     0
  9
$USERI2
 70
     0
  9
$USERI3
 70
     0
  9
$USERI4
 70
     0
  9
$USERI5
 70
     0
  9
$USERR1
 40
0.0
  9
$USERR2
 40
0.0
  9
$USERR3
 40
0.0
  9
$USERR4
 40
0.0
  9
$USERR5
 40
0.0
  9
$WORLDVIEW
 70
     1
  9
$SHADEDGE
 70
     3
  9
$SHADEDIF
 70
    70
  9
$TILEMODE
 70
     1
  9
$MAXACTVP
 70
    64
  9
$PINSBASE
 10
0.0
 20
0.0
 30
0.0
  9
$PLIMCHECK
 70
     0
  9
$PEXTMIN
 10
1.000000000000000E+20
 20
1.000000000000000E+20
 30
1.000000000000000E+20
  9
$PEXTMAX
 10
-1.000000000000000E+20
 20
-1.000000000000000E+20
 30
-1.000000000000000E+20
  9
$PLIMMIN
 10
0.0
 20
0.0
  9
$PLIMMAX
 10
12.0
 20
9.0
  9
$UNITMODE
 70
     0
  9
$VISRETAIN
 70
     1
  9
$PLINEGEN
 70
     0
  9
$PSLTSCALE
 70
     1
  9
$TREEDEPTH
 70
  3020
  9
$CMLSTYLE
  2
Standard
  9
$CMLJUST
 70
     0
  9
$CMLSCALE
 40
1.0
  9
$PROXYGRAPHICS
 70
     1
  9
$MEASUREMENT
 70
     0
  9
$CELWEIGHT
370
    -1
  9
$ENDCAPS
280
     0
  9
$JOINSTYLE
280
     0
  9
$LWDISPLAY
290
     0
  9
$INSUNITS
 70
     4
  9
$HYPERLINKBASE
  1

  9
$STYLESHEET
  1

  9
$XEDIT
290
     1
  9
$CEPSNTYPE
380
     0
  9
$PSTYLEMODE
290
     1
  9
$FINGERPRINTGUID
  2
{9FA5AE3A-8210-BD46-BEC3-A26D8BF2058D}
  9
$VERSIONGUID
  2
{0D30436E-C937-4D42-A69D-9CA329DF98D5}
  9
$EXTNAMES
290
     1
  9
$PSVPSCALE
 40
0.0
  9
$OLESTARTUP
290
     0
  9
$SORTENTS
280
   127
  9
$INDEXCTL
280
     0
  9
$HIDETEXT
280
     1
  9
$XCLIPFRAME
280
     2
  9
$HALOGAP
280
     0
  9
$OBSCOLOR
 70
   257
  9
$OBSLTYPE
280
     0
  9
$INTERSECTIONDISPLAY
280
     0
  9
$INTERSECTIONCOLOR
 70
   257
  9
$DIMASSOC
280
     2
  9
$PROJECTNAME
  1

  9
$CAMERADISPLAY
290
     0
  9
$LENSLENGTH
 40
50.0
  9
$CAMERAHEIGHT
 40
0.0
  9
$STEPSPERSEC
 40
2.0
  9
$STEPSIZE
 40
6.0
  9
$3DDWFPREC
 40
2.0
  9
$PSOLWIDTH
 40
0.25
  9
$PSOLHEIGHT
 40
4.0
  9
$LOFTANG1
 40
1.570796326794896
  9
$LOFTANG2
 40
1.570796326794896
  9
$LOFTMAG1
 40
0.0
  9
$LOFTMAG2
 40
0.0
  9
$LOFTPARAM
 70
     7
  9
$LOFTNORMALS
280
     1
  9
$LATITUDE
 40
37.795
  9
$LONGITUDE
 40
-122.394
  9
$NORTHDIRECTION
 40
0.0
  9
$TIMEZONE
 70
 -8000
  9
$LIGHTGLYPHDISPLAY
280
     1
  9
$TILEMODELIGHTSYNCH
280
     1
  9
$CMATERIAL
347
11
  9
$SOLIDHIST
280
     0
  9
$SHOWHIST
280
     1
  9
$DWFFRAME
280
     2
  9
$DGNFRAME
280
     0
  9
$REALWORLDSCALE
290
     1
  9
$INTERFERECOLOR
 62
     1
  9
$INTERFEREOBJVS
345
33
  9
$INTERFEREVPVS
346
30
  9
$CSHADOW
280
     0
  9
$SHADOWPLANELOCATION
 40
0.0
  0
ENDSEC
  0
SECTION
  2
CLASSES
  0
CLASS
  1
ACDBDICTIONARYWDFLT
  2
AcDbDictionaryWithDefault
  3
ObjectDBX Classes
 90
        0
 91
        1
280
     0
281
     0
  0
CLASS
  1
MATERIAL
  2
AcDbMaterial
  3
ObjectDBX Classes
 90
     1153
 91
        3
280
     0
281
     0
  0
CLASS
  1
VISUALSTYLE
  2
AcDbVisualStyle
  3
ObjectDBX Classes
 90
     4095
 91
       24
280
     0
281
     0
  0
CLASS
  1
SCALE
  2
AcDbScale
  3
ObjectDBX Classes
 90
     1153
 91
       17
280
     0
281
     0
  0
CLASS
  1
TABLESTYLE
  2
AcDbTableStyle
  3
ObjectDBX Classes
 90
     4095
 91
        1
280
     0
281
     0
  0
CLASS
  1
MLEADERSTYLE
  2
AcDbMLeaderStyle
  3
ACDB_MLEADERSTYLE_CLASS
 90
     4095
 91
        1
280
     0
281
     0
  0
CLASS
  1
ACDBSECTIONVIEWSTYLE
  2
AcDbSectionViewStyle
  3
ObjectDBX Classes
 90
     1025
 91
        1
280
     0
281
     0
  0
CLASS
  1
ACDBDETAILVIEWSTYLE
  2
AcDbDetailViewStyle
  3
ObjectDBX Classes
 90
     1025
 91
        1
280
     0
281
     0
  0
CLASS
  1
DICTIONARYVAR
  2
AcDbDictionaryVar
  3
ObjectDBX Classes
 90
        0
 91
        5
280
     0
281
     0
  0
CLASS
  1
CELLSTYLEMAP
  2
AcDbCellStyleMap
  3
ObjectDBX Classes
 90
     1152
 91
        1
280
     0
281
     0
  0
ENDSEC
  0
SECTION
  2
TABLES
  0
TABLE
  2
VPORT
  5
8
330
0
100
AcDbSymbolTable
 70
     1
1001
ACAD
1000
DbSaveVer
1071
      421
  0
VPORT
  5
57
330
8
100
AcDbSymbolTableRecord
100
AcDbViewportTableRecord
  2
*Active
 70
     0
 10
0.0
 20
0.0
 11
1.0
 21
1.0
 12
500.0
 22
500.0
 13
0.0
 23
0.0
 14
1.0
 24
1.0
 15
0.0
 25
0.0
 16
0.0
 26
0.0
 36
1.0
 17
0.0
 27
0.0
 37
0.0
 40
12.0
 41
1.0
 42
50.0
 43
0.0
 44
0.0
 50
0.0
 51
0.0
 71
     0
 72
   100
 73
     1
 74
     1
 75
     0
 76
     0
 77
     0
 78
     0
281
     0
 65
     1
110
0.0
120
0.0
130
0.0
111
1.0
121
0.0
131
0.0
112
0.0
122
1.0
132
0.0
 79
     0
146
0.0
 60
     3
 61
     5
292
     1
282
     1
141
0.0
142
0.0
 63
   250
421
  3355443
  0
ENDTAB
  0
TABLE
  2
LTYPE
  5
5
330
0
100
AcDbSymbolTable
 70
     1
  0
LTYPE
  5
5B
330
5
100
AcDbSymbolTableRecord
100
AcDbLinetypeTableRecord
  2
ByBlock
 70
     0
  3

 72
    65
 73
     0
 40
0.0
  0
LTYPE
  5
5C
330
5
100
AcDbSymbolTableRecord
100
AcDbLinetypeTableRecord
  2
ByLayer
 70
     0
  3

 72
    65
 73
     0
 40
0.0
  0
LTYPE
  5
5D
330
5
100
AcDbSymbolTableRecord
100
AcDbLinetypeTableRecord
  2
Continuous
 70
     0
  3
Solid line
 72
    65
 73
     0
 40
0.0
  0
ENDTAB
  0
TABLE
  2
LAYER
  5
2
330
0
100
AcDbSymbolTable
 70
     3
  0
LAYER
  5
54
330
2
100
AcDbSymbolTableRecord
100
AcDbLayerTableRecord
  2
0
 70
     0
 62
     7
  6
Continuous
370
    -3
390
F
347
21
348
0
  0
LAYER
  5
7A
330
2
100
AcDbSymbolTableRecord
100
AcDbLayerTableRecord
  2
bottom v2_Sketch1
 70
     0
 62
     7
  6
Continuous
370
    -3
390
F
347
21
348
0
1001
NFusion_SketchTransform
1000
1.000000;0.000000;0.000000;0.000000;0.000000;1.000000;0.000000;0.000000;0.000000;0.000000;1.000000;0.000000;0.000000;0.000000;0.000000;1.000000
  0
LAYER
  5
1AE
330
2
100
AcDbSymbolTableRecord
100
AcDbLayerTableRecord
  2
bottom v2_engrave
 70
     0
 62
     7
  6
Continuous
370
    -3
390
F
347
21
348
0
1001
NFusion_SketchTransform
1000
1.000000;0.000000;0.000000;0.000000;0.000000;1.000000;0.000000;0.000000;0.000000;0.000000;1.000000;0.000000;0.000000;0.000000;0.000000;1.000000
  0
ENDTAB
  0
TABLE
  2
STYLE
  5
3
330
0
100
AcDbSymbolTable
 70
     2
  0
STYLE
  5
55
330
3
100
AcDbSymbolTableRecord
100
AcDbTextStyleTableRecord
  2
Standard
 70
     0
 40
0.0
 41
1.0
 50
0.0
 71
     0
 42
0.2
  3
txt
  4

  0
STYLE
  5
5A
330
3
100
AcDbSymbolTableRecord
100
AcDbTextStyleTableRecord
  2
Annotative
 70
     0
 40
0.0
 41
1.0
 50
0.0
 71
     0
 42
0.2
  3
txt
  4

1001
AcadAnnotative
1000
AnnotativeData
1002
{
1070
     1
1070
     1
1002
}
  0
ENDTAB
  0
TABLE
  2
VIEW
  5
6
330
0
100
AcDbSymbolTable
 70
     0
  0
ENDTAB
  0
TABLE
  2
UCS
  5
7
330
0
100
AcDbSymbolTable
 70
     0
  0
ENDTAB
  0
TABLE
  2
APPID
  5
9
330
0
100
AcDbSymbolTable
 70
     4
  0
APPID
  5
56
330
9
100
AcDbSymbolTableRecord
100
AcDbRegAppTableRecord
  2
ACAD
 70
     0
  0
APPID
  5
5E
330
9
100
AcDbSymbolTableRecord
100
AcDbRegAppTableRecord
  2
AcadAnnotative
 70
     0
  0
APPID
  5
78
330
9
100
AcDbSymbolTableRecord
100
AcDbRegAppTableRecord
  2
EDIT_IN_FUSION_ACAD_ADDIN
 70
     0
  0
APPID
  5
79
330
9
100
AcDbSymbolTableRecord
100
AcDbRegAppTableRecord
  2
NFusion_SketchTransform
 70
     0
  0
ENDTAB
  0
TABLE
  2
DIMSTYLE
  5
A
330
0
100
AcDbSymbolTable
 70
     2
100
AcDbDimStyleTable
 71
     0
  0
DIMSTYLE
105
58
330
A
100
AcDbSymbolTableRecord
100
AcDbDimStyleTableRecord
  2
Standard
 70
     0
340
55
  0
DIMSTYLE
105
59
330
A
100
AcDbSymbolTableRecord
100
AcDbDimStyleTableRecord
  2
Annotative
 70
     0
340
55
1001
AcadAnnotative
1000
AnnotativeData
1002
{
1070
     1
1070
     1
1002
}
  0
ENDTAB
  0
TABLE
  2
BLOCK_RECORD
  5
1
330
0
100
AcDbSymbolTable
 70
     1
  0
BLOCK_RECORD
  5
70
330
1
100
AcDbSymbolTableRecord
100
AcDbBlockTableRecord
  2
*Model_Space
340
73
 70
     0
280
     1
281
     0
  0
BLOCK_RECORD
  5
6C
330
1
100
AcDbSymbolTableRecord
100
AcDbBlockTableRecord
  2
*Paper_Space
340
6F
 70
     0
280
     1
281
     0
  0
BLOCK_RECORD
  5
74
330
1
100
AcDbSymbolTableRecord
100
AcDbBlockTableRecord
  2
*Paper_Space0
340
77
 70
     0
280
     1
281
     0
  0
ENDTAB
  0
ENDSEC
  0
SECTION
  2
BLOCKS
  0
BLOCK
  5
71
330
70
100
AcDbEntity
  8
0
100
AcDbBlockBegin
  2
*Model_Space
 70
     0
 10
0.0
 20
0.0
 30
0.0
  3
*Model_Space
  1

  0
ENDBLK
  5
72
330
70
100
AcDbEntity
  8
0
100
AcDbBlockEnd
  0
BLOCK
  5
6D
330
6C
100
AcDbEntity
 67
     1
  8
0
100
AcDbBlockBegin
  2
*Paper_Space
 70
     0
 10
0.0
 20
0.0
 30
0.0
  3
*Paper_Space
  1

  0
ENDBLK
  5
6E
330
6C
100
AcDbEntity
 67
     1
  8
0
100
AcDbBlockEnd
  0
BLOCK
  5
75
330
74
100
AcDbEntity
 67
     1
  8
0
100
AcDbBlockBegin
  2
*Paper_Space0
 70
     0
 10
0.0
 20
0.0
 30
0.0
  3
*Paper_Space0
  1

  0
ENDBLK
  5
76
330
74
100
AcDbEntity
 67
     1
  8
0
100
AcDbBlockEnd
  0
ENDSEC
  0
SECTION
  2
ENTITIES
  0
POINT
  5
7B
330
70
100
AcDbEntity
  8
bottom v2_Sketch1
100
AcDbPoint
 10
0.0
 20
0.0
 30
0.0
  0
LINE
  5
7C
330
70
100
AcDbEntity
  8
bottom v2_Sketch1
100
AcDbLine
 10
280.4145235095424
 20
-153.9472705346335
 30
0.0
 11
280.4145235095424
 21
-197.0753271428362
 31
0.0
  0
LINE
  5
7D
330
70
100
AcDbEntity
  8
bottom v2_Sketch1
100
AcDbLine
 10
283.414523509548
 20
-214.7292846866841
 30
0.0
 11
259.8761201570637
 21
-214.7292846866841
 31
0.0
  0
LINE
  5
7E
330
70
100
AcDbEntity
  8
bottom v2_Sketch1
100
AcDbLine
 10
132.4400972516805
 20
-214.7292846866841
 30
0.0
 11
108.9017366384818
 21
-214.7292846866841
 31
0.0
  0
LINE
  5
7F
330
70
100
AcDbEntity
  8
bottom v2_Sketch1
100
AcDbLine
 10
281.9145235095481
 20
-14.72928468668413
 30
0.0
 11
283.4145235095481
 21
-14.72928468668411
 31
0.0
  0
LINE
  5
80
330
70
100
AcDbEntity
  8
bottom v2_Sketch1
100
AcDbLine
 10
33.41452350954805
 20
-213.2292846866841
 30
0.0
 11
33.41452350954805
 21
-197.0753271428361
 31
0.0
  0
LINE
  5
81
330
70
100
AcDbEntity
  8
bottom v2_Sketch1
100
AcDbLine
 10
108.9017366384818
 20
-14.72928468668412
 30
0.0
 11
108.9017366384818
 21
-17.72928468668411
 31
0.0
  0
LINE
  5
82
330
70
100
AcDbEntity
  8
bottom v2_Sketch1
100
AcDbLine
 10
0.0
 20
-297.0
 30
0.0
 11
0.0
 21
0.0
 31
0.0
  0
LINE
  5
83
330
70
100
AcDbEntity
  8
bottom v2_Sketch1
100
AcDbLine
 10
132.4400972516805
 20
-211.6395734330373
 30
0.0
 11
132.4400972516805
 21
-214.7292846866841
 31
0.0
  0
LINE
  5
84
330
70
100
AcDbEntity
  8
bottom v2_Sketch1
100
AcDbLine
 10
33.41452350954805
 20
-32.3832422305321
 30
0.0
 11
33.41452350954805
 21
-14.72928468668411
 31
0.0
  0
LINE
  5
85
330
70
100
AcDbEntity
  8
bottom v2_Sketch1
100
AcDbLine
 10
108.9017366384818
 20
-214.7292846866841
 30
0.0
 11
108.9017366384818
 21
-211.7292846866685
 31
0.0
  0
LINE
  5
86
330
70
100
AcDbEntity
  8
bottom v2_Sketch1
100
AcDbLine
 10
283.414523509548
 20
-75.5112988387348
 30
0.0
 11
283.414523509548
 21
-93.16525638258275
 31
0.0
  0
LINE
  5
87
330
70
100
AcDbEntity
  8
bottom v2_Sketch1
100
AcDbLine
 10
283.414523509548
 20
-213.1844290598607
 30
0.0
 11
283.414523509548
 21
-214.7292846866841
 31
0.0
  0
LINE
  5
88
330
70
100
AcDbEntity
  8
bottom v2_Sketch1
100
AcDbLine
 10
33.41452350954805
 20
-32.3832422305321
 30
0.0
 11
36.41452350954805
 21
-32.3832422305321
 31
0.0
  0
LINE
  5
89
330
70
100
AcDbEntity
  8
bottom v2_Sketch1
100
AcDbLine
 10
280.4145235095481
 20
-32.38324223053213
 30
0.0
 11
280.4145235095481
 21
-75.51129883873483
 31
0.0
  0
LINE
  5
8A
330
70
100
AcDbEntity
  8
bottom v2_Sketch1
100
AcDbLine
 10
283.414523509548
 20
-197.0753271428361
 30
0.0
 11
283.414523509548
 21
-213.1844290598607
 31
0.0
  0
LINE
  5
8B
330
70
100
AcDbEntity
  8
bottom v2_Sketch1
100
AcDbLine
 10
132.4400972516805
 20
-17.81899594033089
 30
0.0
 11
132.4400972516805
 21
-14.72928468668411
 31
0.0
  0
LINE
  5
8C
330
70
100
AcDbEntity
  8
bottom v2_Sketch1
100
AcDbLine
 10
36.41452350955367
 20
-93.16525638258276
 30
0.0
 11
36.41452350955367
 21
-136.2933129907854
 31
0.0
  0
LINE
  5
8D
330
70
100
AcDbEntity
  8
bottom v2_Sketch1
100
AcDbLine
 10
36.41452350955367
 20
-136.2933129907854
 30
0.0
 11
33.41452350954805
 21
-136.2933129907854
 31
0.0
  0
LINE
  5
8E
330
70
100
AcDbEntity
  8
bottom v2_Sketch1
100
AcDbLine
 10
36.41452350955368
 20
-153.9472705346334
 30
0.0
 11
36.41452350955368
 21
-197.0753271428361
 31
0.0
  0
LINE
  5
8F
330
70
100
AcDbEntity
  8
bottom v2_Sketch1
100
AcDbLine
 10
207.9273103806143
 20
-211.6395734330373
 30
0.0
 11
207.9273103806143
 21
-214.7292846866841
 31
0.0
  0
LINE
  5
90
330
70
100
AcDbEntity
  8
bottom v2_Sketch1
100
AcDbLine
 10
36.41452350955368
 20
-197.0753271428361
 30
0.0
 11
33.41452350954805
 21
-197.0753271428361
 31
0.0
  0
LINE
  5
91
330
70
100
AcDbEntity
  8
bottom v2_Sketch1
100
AcDbLine
 10
280.4145235095481
 20
-75.51129883873483
 30
0.0
 11
283.4145235095481
 21
-75.5112988387348
 31
0.0
  0
LINE
  5
92
330
70
100
AcDbEntity
  8
bottom v2_Sketch1
100
AcDbLine
 10
207.9273103806143
 20
-17.81899594033089
 30
0.0
 11
207.9273103806143
 21
-14.72928468668411
 31
0.0
  0
LINE
  5
93
330
70
100
AcDbEntity
  8
bottom v2_Sketch1
100
AcDbLine
 10
283.414523509548
 20
-136.2933129907854
 30
0.0
 11
283.414523509548
 21
-153.9472705346334
 31
0.0
  0
LINE
  5
94
330
70
100
AcDbEntity
  8
bottom v2_Sketch1
100
AcDbLine
 10
207.9273103806143
 20
-214.7292846866841
 30
0.0
 11
184.3889070281299
 21
-214.7292846866841
 31
0.0
  0
CIRCLE
  5
95
330
70
100
AcDbEntity
  8
bottom v2_Sketch1
100
AcDbCircle
 10
158.414523509548
 20
-114.7292846866841
 30
0.0
 40
15.00000000000001
  0
LINE
  5
96
330
70
100
AcDbEntity
  8
bottom v2_Sketch1
100
AcDbLine
 10
283.414523509548
 20
-32.38324223053212
 30
0.0
 11
280.4145235095481
 21
-32.38324223053213
 31
0.0
  0
LINE
  5
97
330
70
100
AcDbEntity
  8
bottom v2_Sketch1
100
AcDbLine
 10
259.8761201570637
 20
-17.81899594033089
 30
0.0
 11
207.9273103806143
 21
-17.81899594033089
 31
0.0
  0
LINE
  5
98
330
70
100
AcDbEntity
  8
bottom v2_Sketch1
100
AcDbLine
 10
184.3889070281299
 20
-17.81899594033089
 30
0.0
 11
132.4400972516805
 21
-17.81899594033089
 31
0.0
  0
LINE
  5
99
330
70
100
AcDbEntity
  8
bottom v2_Sketch1
100
AcDbLine
 10
108.9017366384818
 20
-17.72928468668411
 30
0.0
 11
56.95292686203236
 21
-17.72928468668411
 31
0.0
  0
LINE
  5
9A
330
70
100
AcDbEntity
  8
bottom v2_Sketch1
100
AcDbLine
 10
108.9017366384818
 20
-211.7292846866685
 30
0.0
 11
56.95292686203236
 21
-211.7292846866841
 31
0.0
  0
LINE
  5
9B
330
70
100
AcDbEntity
  8
bottom v2_Sketch1
100
AcDbLine
 10
184.3889070281299
 20
-211.6395734330373
 30
0.0
 11
132.4400972516805
 21
-211.6395734330373
 31
0.0
  0
LINE
  5
9C
330
70
100
AcDbEntity
  8
bottom v2_Sketch1
100
AcDbLine
 10
184.3889070281299
 20
-214.7292846866841
 30
0.0
 11
184.3889070281299
 21
-211.6395734330373
 31
0.0
  0
LINE
  5
9D
330
70
100
AcDbEntity
  8
bottom v2_Sketch1
100
AcDbLine
 10
259.8761201570637
 20
-211.6395734330373
 30
0.0
 11
207.9273103806143
 21
-211.6395734330373
 31
0.0
  0
LINE
  5
9E
330
70
100
AcDbEntity
  8
bottom v2_Sketch1
100
AcDbLine
 10
36.41452350954805
 20
-32.3832422305321
 30
0.0
 11
36.41452350954805
 21
-75.5112988387348
 31
0.0
  0
LINE
  5
9F
330
70
100
AcDbEntity
  8
bottom v2_Sketch1
100
AcDbLine
 10
33.41452350954805
 20
-93.16525638258271
 30
0.0
 11
36.41452350955367
 21
-93.16525638258276
 31
0.0
  0
LINE
  5
A0
330
70
100
AcDbEntity
  8
bottom v2_Sketch1
100
AcDbLine
 10
283.414523509548
 20
-153.9472705346334
 30
0.0
 11
280.4145235095424
 21
-153.9472705346335
 31
0.0
  0
LINE
  5
A1
330
70
100
AcDbEntity
  8
bottom v2_Sketch1
100
AcDbLine
 10
280.4145235095424
 20
-197.0753271428362
 30
0.0
 11
283.414523509548
 21
-197.0753271428361
 31
0.0
  0
LINE
  5
A2
330
70
100
AcDbEntity
  8
bottom v2_Sketch1
100
AcDbLine
 10
283.414523509548
 20
-14.72928468668411
 30
0.0
 11
283.414523509548
 21
-32.38324223053212
 31
0.0
  0
LINE
  5
A3
330
70
100
AcDbEntity
  8
bottom v2_Sketch1
100
AcDbLine
 10
56.95292686203235
 20
-17.72928468668411
 30
0.0
 11
56.95292686203235
 21
-14.72928468668411
 31
0.0
  0
LINE
  5
A4
330
70
100
AcDbEntity
  8
bottom v2_Sketch1
100
AcDbLine
 10
420.0
 20
-297.0
 30
0.0
 11
0.0
 21
-297.0
 31
0.0
  0
LINE
  5
A5
330
70
100
AcDbEntity
  8
bottom v2_Sketch1
100
AcDbLine
 10
283.414523509548
 20
-93.16525638258273
 30
0.0
 11
280.4145235095424
 21
-93.16525638258278
 31
0.0
  0
LINE
  5
A6
330
70
100
AcDbEntity
  8
bottom v2_Sketch1
100
AcDbLine
 10
259.8761201570637
 20
-214.7292846866841
 30
0.0
 11
259.8761201570637
 21
-211.6395734330373
 31
0.0
  0
LINE
  5
A7
330
70
100
AcDbEntity
  8
bottom v2_Sketch1
100
AcDbLine
 10
259.8761201570637
 20
-14.72928468668414
 30
0.0
 11
259.8761201570637
 21
-17.81899594033089
 31
0.0
  0
LINE
  5
A8
330
70
100
AcDbEntity
  8
bottom v2_Sketch1
100
AcDbLine
 10
33.41452350954805
 20
-14.72928468668411
 30
0.0
 11
56.95292686203235
 21
-14.72928468668411
 31
0.0
  0
LINE
  5
A9
330
70
100
AcDbEntity
  8
bottom v2_Sketch1
100
AcDbLine
 10
108.9017366384818
 20
-14.72928468668412
 30
0.0
 11
132.4400972516805
 21
-14.72928468668411
 31
0.0
  0
LINE
  5
AA
330
70
100
AcDbEntity
  8
bottom v2_Sketch1
100
AcDbLine
 10
33.41452350954805
 20
-214.7292846866841
 30
0.0
 11
33.41452350954805
 21
-213.2292846866841
 31
0.0
  0
LINE
  5
AB
330
70
100
AcDbEntity
  8
bottom v2_Sketch1
100
AcDbLine
 10
280.4145235095424
 20
-93.16525638258278
 30
0.0
 11
280.4145235095424
 21
-136.2933129907855
 31
0.0
  0
LINE
  5
AC
330
70
100
AcDbEntity
  8
bottom v2_Sketch1
100
AcDbLine
 10
259.8761201570637
 20
-14.72928468668414
 30
0.0
 11
281.9145235095481
 21
-14.72928468668413
 31
0.0
  0
LINE
  5
AD
330
70
100
AcDbEntity
  8
bottom v2_Sketch1
100
AcDbLine
 10
184.3889070281299
 20
-14.72928468668414
 30
0.0
 11
184.3889070281299
 21
-17.81899594033089
 31
0.0
  0
LINE
  5
AE
330
70
100
AcDbEntity
  8
bottom v2_Sketch1
100
AcDbLine
 10
56.95292686203235
 20
-214.7292846866841
 30
0.0
 11
33.41452350954805
 21
-214.7292846866841
 31
0.0
  0
LINE
  5
AF
330
70
100
AcDbEntity
  8
bottom v2_Sketch1
100
AcDbLine
 10
56.95292686203235
 20
-211.7292846866841
 30
0.0
 11
56.95292686203235
 21
-214.7292846866841
 31
0.0
  0
LINE
  5
B0
330
70
100
AcDbEntity
  8
bottom v2_Sketch1
100
AcDbLine
 10
36.41452350954805
 20
-75.5112988387348
 30
0.0
 11
33.41452350954805
 21
-75.51129883873477
 31
0.0
  0
LINE
  5
B1
330
70
100
AcDbEntity
  8
bottom v2_Sketch1
100
AcDbLine
 10
33.41452350954805
 20
-153.9472705346334
 30
0.0
 11
36.41452350955368
 21
-153.9472705346334
 31
0.0
  0
LINE
  5
B2
330
70
100
AcDbEntity
  8
bottom v2_Sketch1
100
AcDbLine
 10
184.3889070281299
 20
-14.72928468668414
 30
0.0
 11
207.9273103806143
 21
-14.72928468668411
 31
0.0
  0
LINE
  5
B3
330
70
100
AcDbEntity
  8
bottom v2_Sketch1
100
AcDbLine
 10
33.41452350954805
 20
-93.16525638258271
 30
0.0
 11
33.41452350954805
 21
-75.51129883873477
 31
0.0
  0
LINE
  5
B4
330
70
100
AcDbEntity
  8
bottom v2_Sketch1
100
AcDbLine
 10
33.41452350954805
 20
-153.9472705346334
 30
0.0
 11
33.41452350954805
 21
-136.2933129907854
 31
0.0
  0
LINE
  5
B5
330
70
100
AcDbEntity
  8
bottom v2_Sketch1
100
AcDbLine
 10
0.0
 20
0.0
 30
0.0
 11
420.0
 21
0.0
 31
0.0
  0
LINE
  5
B6
330
70
100
AcDbEntity
  8
bottom v2_Sketch1
100
AcDbLine
 10
280.4145235095424
 20
-136.2933129907855
 30
0.0
 11
283.414523509548
 21
-136.2933129907854
 31
0.0
  0
LINE
  5
B7
330
70
100
AcDbEntity
  8
bottom v2_Sketch1
100
AcDbLine
 10
420.0
 20
0.0
 30
0.0
 11
420.0
 21
-297.0
 31
0.0
  0
ARC
  5
B8
330
70
100
AcDbEntity
  8
bottom v2_Sketch1
100
AcDbCircle
 10
215.0169631183858
 20
-257.1434818177665
 30
0.0
 40
15.31810445402335
100
AcDbArc
 50
270.0000000043778
 51
90.00000000437779
  0
SPLINE
  5
B9
330
70
100
AcDbEntity
  8
bottom v2_Sketch1
100
AcDbSpline
210
0.0
220
0.0
230
1.0
 70
     8
 71
     2
 72
     6
 73
     3
 74
     0
 42
0.000000001
 43
0.0000000001
 40
0.0
 40
0.0
 40
0.0
 40
1.0
 40
1.0
 40
1.0
 10
91.62728036799059
 20
-255.3248128685256
 30
0.0
 10
91.62728036799059
 20
-254.797670582225
 30
0.0
 10
91.31228054918871
 20
-254.5276704820892
 30
0.0
  0
LINE
  5
BA
330
70
100
AcDbEntity
  8
bottom v2_Sketch1
100
AcDbLine
 10
65.01696311955616
 20
-272.4615862717898
 30
0.0
 11
215.0169631195562
 21
-272.4615862717898
 31
0.0
  0
LINE
  5
BB
330
70
100
AcDbEntity
  8
bottom v2_Sketch1
100
AcDbLine
 10
80.9687086478673
 20
-254.2319563421508
 30
0.0
 11
80.9687086478673
 21
-256.5076700243255
 31
0.0
  0
LINE
  5
BC
330
70
100
AcDbEntity
  8
bottom v2_Sketch1
100
AcDbLine
 10
82.96156491198168
 20
-255.6205276045104
 30
0.0
 11
82.96156491198168
 21
-255.1576701196929
 31
0.0
  0
SPLINE
  5
BD
330
70
100
AcDbEntity
  8
bottom v2_Sketch1
100
AcDbSpline
210
0.0
220
0.0
230
1.0
 70
     8
 71
     2
 72
     6
 73
     3
 74
     0
 42
0.000000001
 43
0.0000000001
 40
0.0
 40
0.0
 40
0.0
 40
1.0
 40
1.0
 40
1.0
 10
83.25728024401293
 20
-258.7705269846221
 30
0.0
 10
83.25728024401293
 20
-257.84481320708
 30
0.0
 10
82.01013709463701
 20
-257.84481320708
 30
0.0
  0
LINE
  5
BE
330
70
100
AcDbEntity
  8
bottom v2_Sketch1
100
AcDbLine
 10
80.9687086478673
 20
-256.5076700243255
 30
0.0
 11
81.90728033938036
 21
-256.5076700243255
 31
0.0
  0
LINE
  5
BF
330
70
100
AcDbEntity
  8
bottom v2_Sketch1
100
AcDbLine
 10
85.21156634249315
 20
-255.0033846887847
 30
0.0
 11
85.21156634249315
 21
-255.5819562467834
 31
0.0
  0
LINE
  5
C0
330
70
100
AcDbEntity
  8
bottom v2_Sketch1
100
AcDbLine
 10
80.9687086478673
 20
-257.84481320708
 30
0.0
 11
80.9687086478673
 21
-260.2748123201629
 31
0.0
  0
SPLINE
  5
C1
330
70
100
AcDbEntity
  8
bottom v2_Sketch1
100
AcDbSpline
210
0.0
220
0.0
230
1.0
 70
     8
 71
     2
 72
     6
 73
     3
 74
     0
 42
0.000000001
 43
0.0000000001
 40
0.0
 40
0.0
 40
0.0
 40
1.0
 40
1.0
 40
1.0
 10
81.84299434580431
 20
-260.2748123201629
 30
0.0
 10
82.51156534113512
 20
-260.2748123201629
 30
0.0
 10
82.88442219652758
 20
-260.011241773059
 30
0.0
  0
LINE
  5
C2
330
70
100
AcDbEntity
  8
bottom v2_Sketch1
100
AcDbLine
 10
83.25728024401293
 20
-259.2076698335906
 30
0.0
 11
83.25728024401293
 21
-258.7705269846221
 31
0.0
  0
SPLINE
  5
C3
330
70
100
AcDbEntity
  8
bottom v2_Sketch1
100
AcDbSpline
210
0.0
220
0.0
230
1.0
 70
     8
 71
     2
 72
     6
 73
     3
 74
     0
 42
0.000000001
 43
0.0000000001
 40
0.0
 40
0.0
 40
0.0
 40
1.0
 40
1.0
 40
1.0
 10
93.46585120119677
 20
-253.8912418874999
 30
0.0
 10
93.87728060640917
 20
-254.4376704487106
 30
0.0
 10
93.87728060640917
 20
-255.1833847555419
 30
0.0
  0
SPLINE
  5
C4
330
70
100
AcDbEntity
  8
bottom v2_Sketch1
100
AcDbSpline
210
0.0
220
0.0
230
1.0
 70
     8
 71
     2
 72
     6
 73
     3
 74
     0
 42
0.000000001
 43
0.0000000001
 40
0.0
 40
0.0
 40
0.0
 40
1.0
 40
1.0
 40
1.0
 10
92.31513704218492
 20
-253.0490991863509
 30
0.0
 10
93.05442179598436
 20
-253.3448133262893
 30
0.0
 10
93.46585120119677
 20
-253.8912418874999
 30
0.0
  0
LINE
  5
C5
330
70
100
AcDbEntity
  8
bottom v2_Sketch1
100
AcDbLine
 10
93.87728060640917
 20
-255.1833847555419
 30
0.0
 11
93.87728060640917
 21
-255.9162417444488
 31
0.0
  0
LINE
  5
C6
330
70
100
AcDbEntity
  8
bottom v2_Sketch1
100
AcDbLine
 10
80.9687086478673
 20
-260.2748123201629
 30
0.0
 11
81.84299434580431
 21
-260.2748123201629
 31
0.0
  0
LINE
  5
C7
330
70
100
AcDbEntity
  8
bottom v2_Sketch1
100
AcDbLine
 10
87.19156588472948
 20
-252.7533844503661
 30
0.0
 11
90.59870804705248
 21
-252.7533844503661
 31
0.0
  0
SPLINE
  5
C8
330
70
100
AcDbEntity
  8
bottom v2_Sketch1
100
AcDbSpline
210
0.0
220
0.0
230
1.0
 70
     8
 71
     2
 72
     6
 73
     3
 74
     0
 42
0.000000001
 43
0.0000000001
 40
0.0
 40
0.0
 40
0.0
 40
1.0
 40
1.0
 40
1.0
 10
83.78442372240648
 20
-261.4512411150237
 30
0.0
 10
82.96156491198168
 20
-261.7533842119475
 30
0.0
 10
81.88156570353136
 20
-261.7533842119475
 30
0.0
  0
LINE
  5
C9
330
70
100
AcDbEntity
  8
bottom v2_Sketch1
100
AcDbLine
 10
89.44156612314806
 20
-256.8933847936889
 30
0.0
 11
90.43156589426622
 21
-256.8933847936889
 31
0.0
  0
CIRCLE
  5
CA
330
70
100
AcDbEntity
  8
bottom v2_Sketch1
100
AcDbCircle
 10
93.41452350954805
 20
-114.7292846866841
 30
0.0
 40
15.0
  0
SPLINE
  5
CB
330
70
100
AcDbEntity
  8
bottom v2_Sketch1
100
AcDbSpline
210
0.0
220
0.0
230
1.0
 70
     8
 71
     2
 72
     6
 73
     3
 74
     0
 42
0.000000001
 43
0.0000000001
 40
0.0
 40
0.0
 40
0.0
 40
1.0
 40
1.0
 40
1.0
 10
85.05728091158495
 20
-260.6090990099212
 30
0.0
 10
84.6072801486455
 20
-261.1490980180999
 30
0.0
 10
83.78442372240648
 20
-261.4512411150237
 30
0.0
  0
SPLINE
  5
CC
330
70
100
AcDbEntity
  8
bottom v2_Sketch1
100
AcDbSpline
210
0.0
220
0.0
230
1.0
 70
     8
 71
     2
 72
     6
 73
     3
 74
     0
 42
0.000000001
 43
0.0000000001
 40
0.0
 40
0.0
 40
0.0
 40
1.0
 40
1.0
 40
1.0
 10
91.31228054918871
 20
-254.5276704820892
 30
0.0
 10
90.99727953829393
 20
-254.2576703819534
 30
0.0
 10
90.44442261614427
 20
-254.2576703819534
 30
0.0
  0
LINE
  5
CD
330
70
100
AcDbEntity
  8
bottom v2_Sketch1
100
AcDbLine
 10
89.44156612314806
 20
-254.2576703819534
 30
0.0
 11
89.44156612314806
 21
-256.8933847936889
 31
0.0
  0
SPLINE
  5
CE
330
70
100
AcDbEntity
  8
bottom v2_Sketch1
100
AcDbSpline
210
0.0
220
0.0
230
1.0
 70
     8
 71
     2
 72
     6
 73
     3
 74
     0
 42
0.000000001
 43
0.0000000001
 40
0.0
 40
0.0
 40
0.0
 40
1.0
 40
1.0
 40
1.0
 10
82.96156491198168
 20
-255.1576701196929
 30
0.0
 10
82.96156491198168
 20
-254.2319563421508
 30
0.0
 10
81.77870835222826
 20
-254.2319563421508
 30
0.0
  0
LINE
  5
CF
330
70
100
AcDbEntity
  8
bottom v2_Sketch1
100
AcDbLine
 10
81.77870835222826
 20
-254.2319563421508
 30
0.0
 11
80.9687086478673
 21
-254.2319563421508
 31
0.0
  0
SPLINE
  5
D0
330
70
100
AcDbEntity
  8
bottom v2_Sketch1
100
AcDbSpline
210
0.0
220
0.0
230
1.0
 70
     8
 71
     2
 72
     6
 73
     3
 74
     0
 42
0.000000001
 43
0.0000000001
 40
0.0
 40
0.0
 40
0.0
 40
1.0
 40
1.0
 40
1.0
 10
93.87728060640917
 20
-255.9162417444488
 30
0.0
 10
93.87728060640917
 20
-256.5976700577041
 30
0.0
 10
93.48513688006029
 20
-257.1183845791122
 30
0.0
  0
LINE
  5
D1
330
70
100
AcDbEntity
  8
bottom v2_Sketch1
100
AcDbLine
 10
81.88156570353136
 20
-261.7533842119475
 30
0.0
 11
78.71870900549517
 21
-261.7533842119475
 31
0.0
  0
LINE
  5
D2
330
70
100
AcDbEntity
  8
bottom v2_Sketch1
100
AcDbLine
 10
78.71870900549517
 20
-261.7533842119475
 30
0.0
 11
78.71870900549518
 21
-252.7533844503661
 31
0.0
  0
LINE
  5
D3
330
70
100
AcDbEntity
  8
bottom v2_Sketch1
100
AcDbLine
 10
94.37870825686083
 20
-261.7533842119475
 30
0.0
 11
91.94870795168505
 21
-261.7533842119475
 31
0.0
  0
SPLINE
  5
D4
330
70
100
AcDbEntity
  8
bottom v2_Sketch1
100
AcDbSpline
210
0.0
220
0.0
230
1.0
 70
     8
 71
     2
 72
     6
 73
     3
 74
     0
 42
0.000000001
 43
0.0000000001
 40
0.0
 40
0.0
 40
0.0
 40
1.0
 40
1.0
 40
1.0
 10
91.30585159220323
 20
-256.6298130544921
 30
0.0
 10
91.62728036799059
 20
-256.3662419113418
 30
0.0
 10
91.62728036799059
 20
-255.8905271085998
 30
0.0
  0
LINE
  5
D5
330
70
100
AcDbEntity
  8
bottom v2_Sketch1
100
AcDbLine
 10
92.3729940787755
 20
-257.9605272802611
 30
0.0
 11
94.37870825686083
 21
-261.7533842119475
 31
0.0
  0
SPLINE
  5
D6
330
70
100
AcDbEntity
  8
bottom v2_Sketch1
100
AcDbSpline
210
0.0
220
0.0
230
1.0
 70
     8
 71
     2
 72
     6
 73
     3
 74
     0
 42
0.000000001
 43
0.0000000001
 40
0.0
 40
0.0
 40
0.0
 40
1.0
 40
1.0
 40
1.0
 10
85.05085076250658
 20
-257.6133844646713
 30
0.0
 10
85.50727929033861
 20
-258.0505273136397
 30
0.0
 10
85.50727929033861
 20
-258.8348129781981
 30
0.0
  0
LINE
  5
D7
330
70
100
AcDbEntity
  8
bottom v2_Sketch1
100
AcDbLine
 10
91.94870795168505
 20
-261.7533842119475
 30
0.0
 11
90.29013718523607
 21
-258.3976701292296
 31
0.0
  0
SPLINE
  5
D8
330
70
100
AcDbEntity
  8
bottom v2_Sketch1
100
AcDbSpline
210
0.0
220
0.0
230
1.0
 70
     8
 71
     2
 72
     6
 73
     3
 74
     0
 42
0.000000001
 43
0.0000000001
 40
0.0
 40
0.0
 40
0.0
 40
1.0
 40
1.0
 40
1.0
 10
84.04156531252489
 20
-257.0476702245971
 30
0.0
 10
84.59442223467455
 20
-257.1762416157028
 30
0.0
 10
85.05085076250658
 20
-257.6133844646713
 30
0.0
  0
SPLINE
  5
D9
330
70
100
AcDbEntity
  8
bottom v2_Sketch1
100
AcDbSpline
210
0.0
220
0.0
230
1.0
 70
     8
 71
     2
 72
     6
 73
     3
 74
     0
 42
0.000000001
 43
0.0000000001
 40
0.0
 40
0.0
 40
0.0
 40
1.0
 40
1.0
 40
1.0
 10
85.21156634249315
 20
-255.5819562467834
 30
0.0
 10
85.21156634249315
 20
-256.1862418445846
 30
0.0
 10
84.8644229308568
 20
-256.5398130211135
 30
0.0
  0
SPLINE
  5
DA
330
70
100
AcDbEntity
  8
bottom v2_Sketch1
100
AcDbSpline
210
0.0
220
0.0
230
1.0
 70
     8
 71
     2
 72
     6
 73
     3
 74
     0
 42
0.000000001
 43
0.0000000001
 40
0.0
 40
0.0
 40
0.0
 40
1.0
 40
1.0
 40
1.0
 10
93.48513688006029
 20
-257.1183845791122
 30
0.0
 10
93.09299315371141
 20
-257.6390985044738
 30
0.0
 10
92.3729940787755
 20
-257.9605272802611
 30
0.0
  0
LINE
  5
DB
330
70
100
AcDbEntity
  8
bottom v2_Sketch1
100
AcDbLine
 10
91.62728036799059
 20
-255.8905271085998
 30
0.0
 11
91.62728036799059
 21
-255.3248128685256
 31
0.0
  0
LINE
  5
DC
330
70
100
AcDbEntity
  8
bottom v2_Sketch1
100
AcDbLine
 10
90.44442261614427
 20
-254.2576703819534
 30
0.0
 11
89.44156612314806
 21
-254.2576703819534
 31
0.0
  0
ARC
  5
DD
330
70
100
AcDbEntity
  8
bottom v2_Sketch1
100
AcDbCircle
 10
65.01697253916652
 20
-257.1434818177635
 30
0.0
 40
15.31810445402341
100
AcDbArc
 50
90.00003524182986
 51
269.999964765414
  0
SPLINE
  5
DE
330
70
100
AcDbEntity
  8
bottom v2_Sketch1
100
AcDbSpline
210
0.0
220
0.0
230
1.0
 70
     8
 71
     2
 72
     6
 73
     3
 74
     0
 42
0.000000001
 43
0.0000000001
 40
0.0
 40
0.0
 40
0.0
 40
1.0
 40
1.0
 40
1.0
 10
99.22585095324144
 20
-252.5476703438064
 30
0.0
 10
100.472992314478
 20
-252.5476703438064
 30
0.0
 10
101.3537081614934
 20
-253.0040988716384
 30
0.0
  0
SPLINE
  5
DF
330
70
100
AcDbEntity
  8
bottom v2_Sketch1
100
AcDbSpline
210
0.0
220
0.0
230
1.0
 70
     8
 71
     2
 72
     6
 73
     3
 74
     0
 42
0.000000001
 43
0.0000000001
 40
0.0
 40
0.0
 40
0.0
 40
1.0
 40
1.0
 40
1.0
 10
84.30513705172167
 20
-253.3512416872283
 30
0.0
 10
85.21156634249315
 20
-253.9490989240905
 30
0.0
 10
85.21156634249315
 20
-255.0033846887847
 30
0.0
  0
SPLINE
  5
E0
330
70
100
AcDbEntity
  8
bottom v2_Sketch1
100
AcDbSpline
210
0.0
220
0.0
230
1.0
 70
     8
 71
     2
 72
     6
 73
     3
 74
     0
 42
0.000000001
 43
0.0000000001
 40
0.0
 40
0.0
 40
0.0
 40
1.0
 40
1.0
 40
1.0
 10
101.3537081614934
 20
-253.0040988716384
 30
0.0
 10
102.234421624323
 20
-253.4605273994704
 30
0.0
 10
102.6779922381841
 20
-254.2898127826949
 30
0.0
  0
SPLINE
  5
E1
330
70
100
AcDbEntity
  8
bottom v2_Sketch1
100
AcDbSpline
210
0.0
220
0.0
230
1.0
 70
     8
 71
     2
 72
     6
 73
     3
 74
     0
 42
0.000000001
 43
0.0000000001
 40
0.0
 40
0.0
 40
0.0
 40
1.0
 40
1.0
 40
1.0
 10
102.6779922381841
 20
-254.2898127826949
 30
0.0
 10
103.1215652362309
 20
-255.1190987619659
 30
0.0
 10
103.1215652362309
 20
-256.2248132023116
 30
0.0
  0
LINE
  5
E2
330
70
100
AcDbEntity
  8
bottom v2_Sketch1
100
AcDbLine
 10
78.71870900549518
 20
-252.7533844503661
 30
0.0
 11
81.84299434580431
 21
-252.7533844503661
 31
0.0
  0
LINE
  5
E3
330
70
100
AcDbEntity
  8
bottom v2_Sketch1
100
AcDbLine
 10
89.44156612314806
 20
-261.7533842119475
 30
0.0
 11
87.19156588472948
 21
-261.7533842119475
 31
0.0
  0
LINE
  5
E4
330
70
100
AcDbEntity
  8
bottom v2_Sketch1
100
AcDbLine
 10
87.19156588472948
 20
-261.7533842119475
 30
0.0
 11
87.19156588472948
 21
-252.7533844503661
 31
0.0
  0
LINE
  5
E5
330
70
100
AcDbEntity
  8
bottom v2_Sketch1
100
AcDbLine
 10
82.01013709463701
 20
-257.84481320708
 30
0.0
 11
80.9687086478673
 21
-257.84481320708
 31
0.0
  0
LINE
  5
E6
330
70
100
AcDbEntity
  8
bottom v2_Sketch1
100
AcDbLine
 10
103.1215652362309
 20
-256.2248132023116
 30
0.0
 11
103.1215652362309
 21
-258.2948127779265
 31
0.0
  0
SPLINE
  5
E7
330
70
100
AcDbEntity
  8
bottom v2_Sketch1
100
AcDbSpline
210
0.0
220
0.0
230
1.0
 70
     8
 71
     2
 72
     6
 73
     3
 74
     0
 42
0.000000001
 43
0.0000000001
 40
0.0
 40
0.0
 40
0.0
 40
1.0
 40
1.0
 40
1.0
 10
103.1215652362309
 20
-258.2948127779265
 30
0.0
 10
103.1215652362309
 20
-259.3876699003478
 30
0.0
 10
102.6779922381841
 20
-260.2169552835723
 30
0.0
  0
SPLINE
  5
E8
330
70
100
AcDbEntity
  8
bottom v2_Sketch1
100
AcDbSpline
210
0.0
220
0.0
230
1.0
 70
     8
 71
     2
 72
     6
 73
     3
 74
     0
 42
0.000000001
 43
0.0000000001
 40
0.0
 40
0.0
 40
0.0
 40
1.0
 40
1.0
 40
1.0
 10
81.90728033938036
 20
-256.5076700243255
 30
0.0
 10
82.40870858587847
 20
-256.5076700243255
 30
0.0
 10
82.68513764299974
 20
-256.2826702389022
 30
0.0
  0
LINE
  5
E9
330
70
100
AcDbEntity
  8
bottom v2_Sketch1
100
AcDbLine
 10
89.44156612314806
 20
-258.3976701292296
 30
0.0
 11
89.44156612314806
 21
-261.7533842119475
 31
0.0
  0
SPLINE
  5
EA
330
70
100
AcDbEntity
  8
bottom v2_Sketch1
100
AcDbSpline
210
0.0
220
0.0
230
1.0
 70
     8
 71
     2
 72
     6
 73
     3
 74
     0
 42
0.000000001
 43
0.0000000001
 40
0.0
 40
0.0
 40
0.0
 40
1.0
 40
1.0
 40
1.0
 10
90.43156589426622
 20
-256.8933847936889
 30
0.0
 10
90.98442281641588
 20
-256.8933847936889
 30
0.0
 10
91.30585159220323
 20
-256.6298130544921
 30
0.0
  0
LINE
  5
EB
330
70
100
AcDbEntity
  8
bottom v2_Sketch1
100
AcDbLine
 10
84.05442322649582
 20
-257.0476702245971
 30
0.0
 11
84.04156531252489
 21
-257.0476702245971
 31
0.0
  0
SPLINE
  5
EC
330
70
100
AcDbEntity
  8
bottom v2_Sketch1
100
AcDbSpline
210
0.0
220
0.0
230
1.0
 70
     8
 71
     2
 72
     6
 73
     3
 74
     0
 42
0.000000001
 43
0.0000000001
 40
0.0
 40
0.0
 40
0.0
 40
1.0
 40
1.0
 40
1.0
 10
84.8644229308568
 20
-256.5398130211135
 30
0.0
 10
84.51727951922045
 20
-256.8933847936889
 30
0.0
 10
84.05442322649584
 20
-257.0476702245971
 30
0.0
  0
SPLINE
  5
ED
330
70
100
AcDbEntity
  8
bottom v2_Sketch1
100
AcDbSpline
210
0.0
220
0.0
230
1.0
 70
     8
 71
     2
 72
     6
 73
     3
 74
     0
 42
0.000000001
 43
0.0000000001
 40
0.0
 40
0.0
 40
0.0
 40
1.0
 40
1.0
 40
1.0
 10
82.88442219652758
 20
-260.011241773059
 30
0.0
 10
83.25728024401293
 20
-259.7476700338622
 30
0.0
 10
83.25728024401293
 20
-259.2076698335906
 30
0.0
  0
SPLINE
  5
EE
330
70
100
AcDbEntity
  8
bottom v2_Sketch1
100
AcDbSpline
210
0.0
220
0.0
230
1.0
 70
     8
 71
     2
 72
     6
 73
     3
 74
     0
 42
0.000000001
 43
0.0000000001
 40
0.0
 40
0.0
 40
0.0
 40
1.0
 40
1.0
 40
1.0
 10
90.59870804705248
 20
-252.7533844503661
 30
0.0
 10
91.57585109629259
 20
-252.7533844503661
 30
0.0
 10
92.31513704218492
 20
-253.0490991863509
 30
0.0
  0
SPLINE
  5
EF
330
70
100
AcDbEntity
  8
bottom v2_Sketch1
100
AcDbSpline
210
0.0
220
0.0
230
1.0
 70
     8
 71
     2
 72
     6
 73
     3
 74
     0
 42
0.000000001
 43
0.0000000001
 40
0.0
 40
0.0
 40
0.0
 40
1.0
 40
1.0
 40
1.0
 10
85.50727929033861
 20
-259.3619552644988
 30
0.0
 10
85.50727929033861
 20
-260.0690988096496
 30
0.0
 10
85.05728091158495
 20
-260.6090990099212
 30
0.0
  0
SPLINE
  5
F0
330
70
100
AcDbEntity
  8
bottom v2_Sketch1
100
AcDbSpline
210
0.0
220
0.0
230
1.0
 70
     8
 71
     2
 72
     6
 73
     3
 74
     0
 42
0.000000001
 43
0.0000000001
 40
0.0
 40
0.0
 40
0.0
 40
1.0
 40
1.0
 40
1.0
 10
102.6779922381841
 20
-260.2169552835723
 30
0.0
 10
102.234421624323
 20
-261.0462418588897
 30
0.0
 10
101.3537081614934
 20
-261.5026703867217
 30
0.0
  0
SPLINE
  5
F1
330
70
100
AcDbEntity
  8
bottom v2_Sketch1
100
AcDbSpline
210
0.0
220
0.0
230
1.0
 70
     8
 71
     2
 72
     6
 73
     3
 74
     0
 42
0.000000001
 43
0.0000000001
 40
0.0
 40
0.0
 40
0.0
 40
1.0
 40
1.0
 40
1.0
 10
101.3537081614934
 20
-261.5026703867217
 30
0.0
 10
100.472992314478
 20
-261.9590989145538
 30
0.0
 10
99.22585095324144
 20
-261.9590989145538
 30
0.0
  0
LINE
  5
F2
330
70
100
AcDbEntity
  8
bottom v2_Sketch1
100
AcDbLine
 10
85.50727929033861
 20
-258.8348129781981
 30
0.0
 11
85.50727929033861
 21
-259.3619552644988
 31
0.0
  0
SPLINE
  5
F3
330
70
100
AcDbEntity
  8
bottom v2_Sketch1
100
AcDbSpline
210
0.0
220
0.0
230
1.0
 70
     8
 71
     2
 72
     6
 73
     3
 74
     0
 42
0.000000001
 43
0.0000000001
 40
0.0
 40
0.0
 40
0.0
 40
1.0
 40
1.0
 40
1.0
 10
82.68513764299974
 20
-256.2826702389022
 30
0.0
 10
82.96156491198168
 20
-256.0576704534789
 30
0.0
 10
82.96156491198168
 20
-255.6205276045104
 30
0.0
  0
SPLINE
  5
F4
330
70
100
AcDbEntity
  8
bottom v2_Sketch1
100
AcDbSpline
210
0.0
220
0.0
230
1.0
 70
     8
 71
     2
 72
     6
 73
     3
 74
     0
 42
0.000000001
 43
0.0000000001
 40
0.0
 40
0.0
 40
0.0
 40
1.0
 40
1.0
 40
1.0
 10
81.84299434580431
 20
-252.7533844503661
 30
0.0
 10
83.39870776095018
 20
-252.7533844503661
 30
0.0
 10
84.30513705172167
 20
-253.3512416872283
 30
0.0
  0
LINE
  5
F5
330
70
100
AcDbEntity
  8
bottom v2_Sketch1
100
AcDbLine
 10
65.01696311721547
 20
-241.825377363743
 30
0.0
 11
215.0169631172155
 21
-241.825377363743
 31
0.0
  0
CIRCLE
  5
F6
330
70
100
AcDbEntity
  8
bottom v2_Sketch1
100
AcDbCircle
 10
223.4145235095481
 20
-114.7292846866841
 30
0.0
 40
15.0
  0
LINE
  5
F7
330
70
100
AcDbEntity
  8
bottom v2_Sketch1
100
AcDbLine
 10
90.29013718523607
 20
-258.3976701292296
 30
0.0
 11
89.44156612314806
 21
-258.3976701292296
 31
0.0
  0
SPLINE
  5
F8
330
70
100
AcDbEntity
  8
bottom v2_Sketch1
100
AcDbSpline
210
0.0
220
0.0
230
1.0
 70
     8
 71
     2
 72
     6
 73
     3
 74
     0
 42
0.000000001
 43
0.0000000001
 40
0.0
 40
0.0
 40
0.0
 40
1.0
 40
1.0
 40
1.0
 10
99.22585095324144
 20
-260.351955035617
 30
0.0
 10
100.0358494655095
 20
-260.351955035617
 30
0.0
 10
100.4472788707219
 20
-259.8312417063018
 30
0.0
  0
LINE
  5
F9
330
70
100
AcDbEntity
  8
bottom v2_Sketch1
100
AcDbLine
 10
103.9058503047429
 20
-252.7533844503661
 30
0.0
 11
110.887277974268
 21
-252.7533844503661
 31
0.0
  0
SPLINE
  5
FA
330
70
100
AcDbEntity
  8
bottom v2_Sketch1
100
AcDbSpline
210
0.0
220
0.0
230
1.0
 70
     8
 71
     2
 72
     6
 73
     3
 74
     0
 42
0.000000001
 43
0.0000000001
 40
0.0
 40
0.0
 40
0.0
 40
1.0
 40
1.0
 40
1.0
 10
97.11727942385302
 20
-261.5026703867217
 30
0.0
 10
96.242993725916
 20
-261.0462418588897
 30
0.0
 10
95.79299296297655
 20
-260.2169552835723
 30
0.0
  0
SPLINE
  5
FB
330
70
100
AcDbEntity
  8
bottom v2_Sketch1
100
AcDbSpline
210
0.0
220
0.0
230
1.0
 70
     8
 71
     2
 72
     6
 73
     3
 74
     0
 42
0.000000001
 43
0.0000000001
 40
0.0
 40
0.0
 40
0.0
 40
1.0
 40
1.0
 40
1.0
 10
135.8108457461796
 20
-254.2512414249679
 30
0.0
 10
136.2672742740117
 20
-253.4348133596679
 30
0.0
 10
137.1287044421635
 20
-252.991241553714
 30
0.0
  0
SPLINE
  5
FC
330
70
100
AcDbEntity
  8
bottom v2_Sketch1
100
AcDbSpline
210
0.0
220
0.0
230
1.0
 70
     8
 71
     2
 72
     6
 73
     3
 74
     0
 42
0.000000001
 43
0.0000000001
 40
0.0
 40
0.0
 40
0.0
 40
1.0
 40
1.0
 40
1.0
 10
99.22585095324144
 20
-254.1548130306503
 30
0.0
 10
98.41585005678759
 20
-254.1548130306503
 30
0.0
 10
98.00442065157518
 20
-254.6755275520583
 30
0.0
  0
LINE
  5
FD
330
70
100
AcDbEntity
  8
bottom v2_Sketch1
100
AcDbLine
 10
116.5958484546147
 20
-252.7533844503661
 30
0.0
 11
119.3087085620366
 21
-261.7533842119475
 31
0.0
  0
SPLINE
  5
FE
330
70
100
AcDbEntity
  8
bottom v2_Sketch1
100
AcDbSpline
210
0.0
220
0.0
230
1.0
 70
     8
 71
     2
 72
     6
 73
     3
 74
     0
 42
0.000000001
 43
0.0000000001
 40
0.0
 40
0.0
 40
0.0
 40
1.0
 40
1.0
 40
1.0
 10
100.4472788707219
 20
-259.8312417063018
 30
0.0
 10
100.8587058917485
 20
-259.3105271848937
 30
0.0
 10
100.8587058917485
 20
-258.2819560560485
 30
0.0
  0
LINE
  5
FF
330
70
100
AcDbEntity
  8
bottom v2_Sketch1
100
AcDbLine
 10
129.4787057773076
 20
-252.7533844503661
 30
0.0
 11
134.0301355258427
 21
-252.7533844503661
 31
0.0
  0
LINE
  5
100
330
70
100
AcDbEntity
  8
bottom v2_Sketch1
100
AcDbLine
 10
122.3815616504155
 20
-261.7533842119475
 30
0.0
 11
120.4658492938481
 21
-261.7533842119475
 31
0.0
  0
LINE
  5
101
330
70
100
AcDbEntity
  8
bottom v2_Sketch1
100
AcDbLine
 10
134.0301355258427
 20
-260.1333848032256
 30
0.0
 11
134.0301355258427
 21
-261.7533842119476
 31
0.0
  0
LINE
  5
102
330
70
100
AcDbEntity
  8
bottom v2_Sketch1
100
AcDbLine
 10
100.8587058917485
 20
-258.2819560560485
 30
0.0
 11
100.8587058917485
 21
-256.2119558843871
 31
0.0
  0
LINE
  5
103
330
70
100
AcDbEntity
  8
bottom v2_Sketch1
100
AcDbLine
 10
106.2844213382207
 20
-261.7533842119475
 30
0.0
 11
106.2844213382207
 21
-254.3733844551345
 31
0.0
  0
LINE
  5
104
330
70
100
AcDbEntity
  8
bottom v2_Sketch1
100
AcDbLine
 10
132.8729900256596
 20
-260.1333848032256
 30
0.0
 11
134.0301355258427
 21
-260.1333848032256
 31
0.0
  0
LINE
  5
105
330
70
100
AcDbEntity
  8
bottom v2_Sketch1
100
AcDbLine
 10
119.3087085620366
 20
-261.7533842119475
 30
0.0
 11
117.0201381579839
 21
-261.7533842119475
 31
0.0
  0
SPLINE
  5
106
330
70
100
AcDbEntity
  8
bottom v2_Sketch1
100
AcDbSpline
210
0.0
220
0.0
230
1.0
 70
     8
 71
     2
 72
     6
 73
     3
 74
     0
 42
0.000000001
 43
0.0000000001
 40
0.0
 40
0.0
 40
0.0
 40
1.0
 40
1.0
 40
1.0
 10
95.79299296297655
 20
-254.2898127826949
 30
0.0
 10
96.242993725916
 20
-253.4605273994704
 30
0.0
 10
97.11727942385302
 20
-253.0040988716384
 30
0.0
  0
SPLINE
  5
107
330
70
100
AcDbEntity
  8
bottom v2_Sketch1
100
AcDbSpline
210
0.0
220
0.0
230
1.0
 70
     8
 71
     2
 72
     6
 73
     3
 74
     0
 42
0.000000001
 43
0.0000000001
 40
0.0
 40
0.0
 40
0.0
 40
1.0
 40
1.0
 40
1.0
 10
97.59299363054857
 20
-258.2819560560485
 30
0.0
 10
97.59299363054857
 20
-259.3105271848937
 30
0.0
 10
98.00442065157518
 20
-259.8312417063018
 30
0.0
  0
LINE
  5
108
330
70
100
AcDbEntity
  8
bottom v2_Sketch1
100
AcDbLine
 10
113.2658513919316
 20
-261.7533842119475
 30
0.0
 11
111.0287078753911
 21
-261.7533842119475
 31
0.0
  0
LINE
  5
109
330
70
100
AcDbEntity
  8
bottom v2_Sketch1
100
AcDbLine
 10
111.0287078753911
 20
-261.7533842119475
 30
0.0
 11
113.6001380816899
 21
-252.7533844503661
 31
0.0
  0
LINE
  5
10A
330
70
100
AcDbEntity
  8
bottom v2_Sketch1
100
AcDbLine
 10
106.2844213382207
 20
-254.3733844551345
 30
0.0
 11
103.9058503047429
 21
-254.3733844551345
 31
0.0
  0
LINE
  5
10B
330
70
100
AcDbEntity
  8
bottom v2_Sketch1
100
AcDbLine
 10
122.3815616504155
 20
-255.5690989288589
 30
0.0
 11
122.3815616504155
 21
-261.7533842119475
 31
0.0
  0
LINE
  5
10C
330
70
100
AcDbEntity
  8
bottom v2_Sketch1
100
AcDbLine
 10
95.3429922000371
 20
-258.2948127779265
 30
0.0
 11
95.3429922000371
 21
-256.2248132023116
 31
0.0
  0
LINE
  5
10D
330
70
100
AcDbEntity
  8
bottom v2_Sketch1
100
AcDbLine
 10
110.887277974268
 20
-254.3733844551345
 30
0.0
 11
108.5344203845464
 21
-254.3733844551345
 31
0.0
  0
LINE
  5
10E
330
70
100
AcDbEntity
  8
bottom v2_Sketch1
100
AcDbLine
 10
108.5344203845464
 20
-254.3733844551345
 30
0.0
 11
108.5344203845464
 21
-261.7533842119475
 31
0.0
  0
LINE
  5
10F
330
70
100
AcDbEntity
  8
bottom v2_Sketch1
100
AcDbLine
 10
120.4658492938481
 20
-252.7533844503661
 30
0.0
 11
123.1015619174443
 21
-252.7533844503661
 31
0.0
  0
LINE
  5
110
330
70
100
AcDbEntity
  8
bottom v2_Sketch1
100
AcDbLine
 10
123.1015619174443
 20
-252.7533844503661
 30
0.0
 11
125.8272775546513
 21
-258.3333841356536
 31
0.0
  0
LINE
  5
111
330
70
100
AcDbEntity
  8
bottom v2_Sketch1
100
AcDbLine
 10
134.0301355258427
 20
-261.7533842119476
 30
0.0
 11
129.4787057773076
 21
-261.7533842119476
 31
0.0
  0
SPLINE
  5
112
330
70
100
AcDbEntity
  8
bottom v2_Sketch1
100
AcDbSpline
210
0.0
220
0.0
230
1.0
 70
     8
 71
     2
 72
     6
 73
     3
 74
     0
 42
0.000000001
 43
0.0000000001
 40
0.0
 40
0.0
 40
0.0
 40
1.0
 40
1.0
 40
1.0
 10
135.3544172183476
 20
-256.1862412485382
 30
0.0
 10
135.3544172183476
 20
-255.0676700863144
 30
0.0
 10
135.8108457461796
 20
-254.2512414249679
 30
0.0
  0
SPLINE
  5
113
330
70
100
AcDbEntity
  8
bottom v2_Sketch1
100
AcDbSpline
210
0.0
220
0.0
230
1.0
 70
     8
 71
     2
 72
     6
 73
     3
 74
     0
 42
0.000000001
 43
0.0000000001
 40
0.0
 40
0.0
 40
0.0
 40
1.0
 40
1.0
 40
1.0
 10
98.00442065157518
 20
-259.8312417063018
 30
0.0
 10
98.41585005678759
 20
-260.351955035617
 30
0.0
 10
99.22585095324144
 20
-260.351955035617
 30
0.0
  0
LINE
  5
114
330
70
100
AcDbEntity
  8
bottom v2_Sketch1
100
AcDbLine
 10
129.4787057773076
 20
-261.7533842119476
 30
0.0
 11
129.4787057773076
 21
-260.1333848032256
 31
0.0
  0
SPLINE
  5
115
330
70
100
AcDbEntity
  8
bottom v2_Sketch1
100
AcDbSpline
210
0.0
220
0.0
230
1.0
 70
     8
 71
     2
 72
     6
 73
     3
 74
     0
 42
0.000000001
 43
0.0000000001
 40
0.0
 40
0.0
 40
0.0
 40
1.0
 40
1.0
 40
1.0
 10
95.79299296297655
 20
-260.2169552835723
 30
0.0
 10
95.3429922000371
 20
-259.3876699003478
 30
0.0
 10
95.3429922000371
 20
-258.2948127779265
 30
0.0
  0
SPLINE
  5
116
330
70
100
AcDbEntity
  8
bottom v2_Sketch1
100
AcDbSpline
210
0.0
220
0.0
230
1.0
 70
     8
 71
     2
 72
     6
 73
     3
 74
     0
 42
0.000000001
 43
0.0000000001
 40
0.0
 40
0.0
 40
0.0
 40
1.0
 40
1.0
 40
1.0
 10
100.8587058917485
 20
-256.2119558843871
 30
0.0
 10
100.8587058917485
 20
-255.1962414774199
 30
0.0
 10
100.4472788707219
 20
-254.6755275520583
 30
0.0
  0
SPLINE
  5
117
330
70
100
AcDbEntity
  8
bottom v2_Sketch1
100
AcDbSpline
210
0.0
220
0.0
230
1.0
 70
     8
 71
     2
 72
     6
 73
     3
 74
     0
 42
0.000000001
 43
0.0000000001
 40
0.0
 40
0.0
 40
0.0
 40
1.0
 40
1.0
 40
1.0
 10
100.4472788707219
 20
-254.6755275520583
 30
0.0
 10
100.0358494655095
 20
-254.1548130306503
 30
0.0
 10
99.22585095324144
 20
-254.1548130306503
 30
0.0
  0
LINE
  5
118
330
70
100
AcDbEntity
  8
bottom v2_Sketch1
100
AcDbLine
 10
117.0201381579839
 20
-261.7533842119475
 30
0.0
 11
116.4672788516484
 21
-259.7862413915893
 31
0.0
  0
LINE
  5
119
330
70
100
AcDbEntity
  8
bottom v2_Sketch1
100
AcDbLine
 10
113.6001380816899
 20
-252.7533844503661
 30
0.0
 11
116.5958484546147
 21
-252.7533844503661
 31
0.0
  0
SPLINE
  5
11A
330
70
100
AcDbEntity
  8
bottom v2_Sketch1
100
AcDbSpline
210
0.0
220
0.0
230
1.0
 70
     8
 71
     2
 72
     6
 73
     3
 74
     0
 42
0.000000001
 43
0.0000000001
 40
0.0
 40
0.0
 40
0.0
 40
1.0
 40
1.0
 40
1.0
 10
99.22585095324144
 20
-261.9590989145538
 30
0.0
 10
97.99156512179003
 20
-261.9590989145538
 30
0.0
 10
97.11727942385302
 20
-261.5026703867217
 30
0.0
  0
LINE
  5
11B
330
70
100
AcDbEntity
  8
bottom v2_Sketch1
100
AcDbLine
 10
115.0915655032597
 20
-254.2319563421508
 30
0.0
 11
114.1787084475957
 21
-258.1148127111693
 31
0.0
  0
LINE
  5
11C
330
70
100
AcDbEntity
  8
bottom v2_Sketch1
100
AcDbLine
 10
103.9058503047429
 20
-254.3733844551345
 30
0.0
 11
103.9058503047429
 21
-252.7533844503661
 31
0.0
  0
LINE
  5
11D
330
70
100
AcDbEntity
  8
bottom v2_Sketch1
100
AcDbLine
 10
125.8272775546513
 20
-258.3333841356536
 30
0.0
 11
125.8272775546513
 21
-252.7533844503661
 31
0.0
  0
LINE
  5
11E
330
70
100
AcDbEntity
  8
bottom v2_Sketch1
100
AcDbLine
 10
125.8272775546513
 20
-252.7533844503661
 30
0.0
 11
127.7429899112187
 21
-252.7533844503661
 31
0.0
  0
LINE
  5
11F
330
70
100
AcDbEntity
  8
bottom v2_Sketch1
100
AcDbLine
 10
130.6229909793339
 20
-254.3605277332564
 30
0.0
 11
129.4787057773076
 21
-254.3605277332564
 31
0.0
  0
SPLINE
  5
120
330
70
100
AcDbEntity
  8
bottom v2_Sketch1
100
AcDbSpline
210
0.0
220
0.0
230
1.0
 70
     8
 71
     2
 72
     6
 73
     3
 74
     0
 42
0.000000001
 43
0.0000000001
 40
0.0
 40
0.0
 40
0.0
 40
1.0
 40
1.0
 40
1.0
 10
95.3429922000371
 20
-256.2248132023116
 30
0.0
 10
95.3429922000371
 20
-255.1190987619659
 30
0.0
 10
95.79299296297655
 20
-254.2898127826949
 30
0.0
  0
LINE
  5
121
330
70
100
AcDbEntity
  8
bottom v2_Sketch1
100
AcDbLine
 10
116.4672788516484
 20
-259.7862413915893
 30
0.0
 11
113.7672790423833
 21
-259.7862413915893
 31
0.0
  0
LINE
  5
122
330
70
100
AcDbEntity
  8
bottom v2_Sketch1
100
AcDbLine
 10
127.7429899112187
 20
-261.7533842119475
 30
0.0
 11
125.3129896060429
 21
-261.7533842119475
 31
0.0
  0
LINE
  5
123
330
70
100
AcDbEntity
  8
bottom v2_Sketch1
100
AcDbLine
 10
127.7429899112187
 20
-252.7533844503661
 30
0.0
 11
127.7429899112187
 21
-261.7533842119475
 31
0.0
  0
LINE
  5
124
330
70
100
AcDbEntity
  8
bottom v2_Sketch1
100
AcDbLine
 10
134.0301355258427
 20
-254.3605277332564
 30
0.0
 11
132.8729900256596
 21
-254.3605277332564
 31
0.0
  0
LINE
  5
125
330
70
100
AcDbEntity
  8
bottom v2_Sketch1
100
AcDbLine
 10
129.4787057773076
 20
-254.3605277332564
 30
0.0
 11
129.4787057773076
 21
-252.7533844503661
 31
0.0
  0
LINE
  5
126
330
70
100
AcDbEntity
  8
bottom v2_Sketch1
100
AcDbLine
 10
113.7672790423833
 20
-259.7862413915893
 30
0.0
 11
113.2658513919316
 21
-261.7533842119475
 31
0.0
  0
LINE
  5
127
330
70
100
AcDbEntity
  8
bottom v2_Sketch1
100
AcDbLine
 10
108.5344203845464
 20
-261.7533842119475
 30
0.0
 11
106.2844213382207
 21
-261.7533842119475
 31
0.0
  0
LINE
  5
128
330
70
100
AcDbEntity
  8
bottom v2_Sketch1
100
AcDbLine
 10
116.0301383868657
 20
-258.1148127111693
 30
0.0
 11
115.0915655032597
 21
-254.2319563421508
 31
0.0
  0
SPLINE
  5
129
330
70
100
AcDbEntity
  8
bottom v2_Sketch1
100
AcDbSpline
210
0.0
220
0.0
230
1.0
 70
     8
 71
     2
 72
     6
 73
     3
 74
     0
 42
0.000000001
 43
0.0000000001
 40
0.0
 40
0.0
 40
0.0
 40
1.0
 40
1.0
 40
1.0
 10
98.00442065157518
 20
-254.6755275520583
 30
0.0
 10
97.59299363054857
 20
-255.1962414774199
 30
0.0
 10
97.59299363054857
 20
-256.2119558843871
 30
0.0
  0
LINE
  5
12A
330
70
100
AcDbEntity
  8
bottom v2_Sketch1
100
AcDbLine
 10
129.4787057773076
 20
-260.1333848032256
 30
0.0
 11
130.6229909793339
 21
-260.1333848032256
 31
0.0
  0
LINE
  5
12B
330
70
100
AcDbEntity
  8
bottom v2_Sketch1
100
AcDbLine
 10
130.6229909793339
 20
-260.1333848032256
 30
0.0
 11
130.6229909793339
 21
-254.3605277332564
 31
0.0
  0
SPLINE
  5
12C
330
70
100
AcDbEntity
  8
bottom v2_Sketch1
100
AcDbSpline
210
0.0
220
0.0
230
1.0
 70
     8
 71
     2
 72
     6
 73
     3
 74
     0
 42
0.000000001
 43
0.0000000001
 40
0.0
 40
0.0
 40
0.0
 40
1.0
 40
1.0
 40
1.0
 10
139.1344150439702
 20
-261.9590989145538
 30
0.0
 10
137.9515584842168
 20
-261.9590989145538
 30
0.0
 10
137.1029886142216
 20
-261.5348127874633
 30
0.0
  0
LINE
  5
12D
330
70
100
AcDbEntity
  8
bottom v2_Sketch1
100
AcDbLine
 10
114.1787084475957
 20
-258.1148127111693
 30
0.0
 11
116.0301383868657
 21
-258.1148127111693
 31
0.0
  0
LINE
  5
12E
330
70
100
AcDbEntity
  8
bottom v2_Sketch1
100
AcDbLine
 10
120.4658492938481
 20
-261.7533842119475
 30
0.0
 11
120.4658492938481
 21
-252.7533844503661
 31
0.0
  0
LINE
  5
12F
330
70
100
AcDbEntity
  8
bottom v2_Sketch1
100
AcDbLine
 10
132.8729900256596
 20
-254.3605277332564
 30
0.0
 11
132.8729900256596
 21
-260.1333848032256
 31
0.0
  0
LINE
  5
130
330
70
100
AcDbEntity
  8
bottom v2_Sketch1
100
AcDbLine
 10
134.0301355258427
 20
-252.7533844503661
 30
0.0
 11
134.0301355258427
 21
-254.3605277332564
 31
0.0
  0
SPLINE
  5
131
330
70
100
AcDbEntity
  8
bottom v2_Sketch1
100
AcDbSpline
210
0.0
220
0.0
230
1.0
 70
     8
 71
     2
 72
     6
 73
     3
 74
     0
 42
0.000000001
 43
0.0000000001
 40
0.0
 40
0.0
 40
0.0
 40
1.0
 40
1.0
 40
1.0
 10
97.11727942385302
 20
-253.0040988716384
 30
0.0
 10
97.99156512179003
 20
-252.5476703438064
 30
0.0
 10
99.22585095324144
 20
-252.5476703438064
 30
0.0
  0
SPLINE
  5
132
330
70
100
AcDbEntity
  8
bottom v2_Sketch1
100
AcDbSpline
210
0.0
220
0.0
230
1.0
 70
     8
 71
     2
 72
     6
 73
     3
 74
     0
 42
0.000000001
 43
0.0000000001
 40
0.0
 40
0.0
 40
0.0
 40
1.0
 40
1.0
 40
1.0
 10
137.1029886142216
 20
-261.5348127874633
 30
0.0
 10
136.2544187442265
 20
-261.1105266603729
 30
0.0
 10
135.8044179812871
 20
-260.3262415918609
 30
0.0
  0
LINE
  5
133
330
70
100
AcDbEntity
  8
bottom v2_Sketch1
100
AcDbLine
 10
125.3129896060429
 20
-261.7533842119475
 30
0.0
 11
122.3815616504155
 21
-255.5690989288589
 31
0.0
  0
LINE
  5
134
330
70
100
AcDbEntity
  8
bottom v2_Sketch1
100
AcDbLine
 10
110.887277974268
 20
-252.7533844503661
 30
0.0
 11
110.887277974268
 21
-254.3733844551345
 31
0.0
  0
SPLINE
  5
135
330
70
100
AcDbEntity
  8
bottom v2_Sketch1
100
AcDbSpline
210
0.0
220
0.0
230
1.0
 70
     8
 71
     2
 72
     6
 73
     3
 74
     0
 42
0.000000001
 43
0.0000000001
 40
0.0
 40
0.0
 40
0.0
 40
1.0
 40
1.0
 40
1.0
 10
135.8044179812871
 20
-260.3262415918609
 30
0.0
 10
135.3544172183476
 20
-259.5419553312561
 30
0.0
 10
135.3544172183476
 20
-258.5005274805328
 30
0.0
  0
LINE
  5
136
330
70
100
AcDbEntity
  8
bottom v2_Sketch1
100
AcDbLine
 10
135.3544172183476
 20
-258.5005274805328
 30
0.0
 11
135.3544172183476
 21
-256.1862412485382
 31
0.0
  0
LINE
  5
137
330
70
100
AcDbEntity
  8
bottom v2_Sketch1
100
AcDbLine
 10
97.59299363054857
 20
-256.2119558843871
 30
0.0
 11
97.59299363054857
 21
-258.2819560560485
 31
0.0
  0
SPLINE
  5
138
330
70
100
AcDbEntity
  8
bottom v2_Sketch1
100
AcDbSpline
210
0.0
220
0.0
230
1.0
 70
     8
 71
     2
 72
     6
 73
     3
 74
     0
 42
0.000000001
 43
0.0000000001
 40
0.0
 40
0.0
 40
0.0
 40
1.0
 40
1.0
 40
1.0
 10
139.2372735873662
 20
-260.351955035617
 30
0.0
 10
140.2272733584843
 20
-260.351955035617
 30
0.0
 10
141.1787017718754
 20
-259.6962419542572
 30
0.0
  0
SPLINE
  5
139
330
70
100
AcDbEntity
  8
bottom v2_Sketch1
100
AcDbSpline
210
0.0
220
0.0
230
1.0
 70
     8
 71
     2
 72
     6
 73
     3
 74
     0
 42
0.000000001
 43
0.0000000001
 40
0.0
 40
0.0
 40
0.0
 40
1.0
 40
1.0
 40
1.0
 10
140.767272366663
 20
-261.6633847746154
 30
0.0
 10
140.0087007419072
 20
-261.9590989145538
 30
0.0
 10
139.1344150439702
 20
-261.9590989145538
 30
0.0
  0
LINE
  5
13A
330
70
100
AcDbEntity
  8
bottom v2_Sketch1
100
AcDbLine
 10
143.0429872409306
 20
-258.1919554266235
 30
0.0
 11
143.0429872409306
 21
-256.52052734225
 31
0.0
  0
SPLINE
  5
13B
330
70
100
AcDbEntity
  8
bottom v2_Sketch1
100
AcDbSpline
210
0.0
220
0.0
230
1.0
 70
     8
 71
     2
 72
     6
 73
     3
 74
     0
 42
0.000000001
 43
0.0000000001
 40
0.0
 40
0.0
 40
0.0
 40
1.0
 40
1.0
 40
1.0
 10
141.037276639124
 20
-254.7848132643005
 30
0.0
 10
140.6258472339116
 20
-254.4633844885132
 30
0.0
 10
140.2079900638066
 20
-254.3090984615585
 30
0.0
  0
SPLINE
  5
13C
330
70
100
AcDbEntity
  8
bottom v2_Sketch1
100
AcDbSpline
210
0.0
220
0.0
230
1.0
 70
     8
 71
     2
 72
     6
 73
     3
 74
     0
 42
0.000000001
 43
0.0000000001
 40
0.0
 40
0.0
 40
0.0
 40
1.0
 40
1.0
 40
1.0
 10
153.1101306811772
 20
-261.7276695760986
 30
0.0
 10
152.5315555468998
 20
-261.9590989145538
 30
0.0
 10
151.8372758761845
 20
-261.9590989145538
 30
0.0
  0
SPLINE
  5
13D
330
70
100
AcDbEntity
  8
bottom v2_Sketch1
100
AcDbSpline
210
0.0
220
0.0
230
1.0
 70
     8
 71
     2
 72
     6
 73
     3
 74
     0
 42
0.000000001
 43
0.0000000001
 40
0.0
 40
0.0
 40
0.0
 40
1.0
 40
1.0
 40
1.0
 10
148.6358484164677
 20
-256.1605272087356
 30
0.0
 10
148.6358484164677
 20
-255.0805274042389
 30
0.0
 10
149.1051324740849
 20
-254.2640987428924
 30
0.0
  0
SPLINE
  5
13E
330
70
100
AcDbEntity
  8
bottom v2_Sketch1
100
AcDbSpline
210
0.0
220
0.0
230
1.0
 70
     8
 71
     2
 72
     6
 73
     3
 74
     0
 42
0.000000001
 43
0.0000000001
 40
0.0
 40
0.0
 40
0.0
 40
1.0
 40
1.0
 40
1.0
 10
150.4551347629033
 20
-252.9976705106995
 30
0.0
 10
151.3358482257329
 20
-252.5476703438064
 30
0.0
 10
152.5444206134282
 20
-252.5476703438064
 30
0.0
  0
LINE
  5
13F
330
70
100
AcDbEntity
  8
bottom v2_Sketch1
100
AcDbLine
 10
142.1172746554814
 20
-253.5890987905761
 30
0.0
 11
141.037276639124
 21
-254.7848132643005
 31
0.0
  0
SPLINE
  5
140
330
70
100
AcDbEntity
  8
bottom v2_Sketch1
100
AcDbSpline
210
0.0
220
0.0
230
1.0
 70
     8
 71
     2
 72
     6
 73
     3
 74
     0
 42
0.000000001
 43
0.0000000001
 40
0.0
 40
0.0
 40
0.0
 40
1.0
 40
1.0
 40
1.0
 10
153.6887058154546
 20
-254.3733844551346
 30
0.0
 10
153.2515605823002
 20
-254.1548130306503
 30
0.0
 10
152.6601299182378
 20
-254.1548130306503
 30
0.0
  0
LINE
  5
141
330
70
100
AcDbEntity
  8
bottom v2_Sketch1
100
AcDbLine
 10
162.2772678271733
 20
-252.7533844503662
 30
0.0
 11
164.9901279345952
 21
-261.7533842119476
 31
0.0
  0
SPLINE
  5
142
330
70
100
AcDbEntity
  8
bottom v2_Sketch1
100
AcDbSpline
210
0.0
220
0.0
230
1.0
 70
     8
 71
     2
 72
     6
 73
     3
 74
     0
 42
0.000000001
 43
0.0000000001
 40
0.0
 40
0.0
 40
0.0
 40
1.0
 40
1.0
 40
1.0
 10
140.2079900638066
 20
-254.3090984615585
 30
0.0
 10
139.7901328937016
 20
-254.1548130306503
 30
0.0
 10
139.2629894153081
 20
-254.1548130306503
 30
0.0
  0
SPLINE
  5
143
330
70
100
AcDbEntity
  8
bottom v2_Sketch1
100
AcDbSpline
210
0.0
220
0.0
230
1.0
 70
     8
 71
     2
 72
     6
 73
     3
 74
     0
 42
0.000000001
 43
0.0000000001
 40
0.0
 40
0.0
 40
0.0
 40
1.0
 40
1.0
 40
1.0
 10
137.6044162646733
 20
-258.5390988382599
 30
0.0
 10
137.6044162646733
 20
-260.351955035617
 30
0.0
 10
139.2372735873662
 20
-260.351955035617
 30
0.0
  0
LINE
  5
144
330
70
100
AcDbEntity
  8
bottom v2_Sketch1
100
AcDbLine
 10
141.1787017718754
 20
-259.6962419542572
 30
0.0
 11
142.0658429995976
 21
-260.9176698717377
 31
0.0
  0
SPLINE
  5
145
330
70
100
AcDbEntity
  8
bottom v2_Sketch1
100
AcDbSpline
210
0.0
220
0.0
230
1.0
 70
     8
 71
     2
 72
     6
 73
     3
 74
     0
 42
0.000000001
 43
0.0000000001
 40
0.0
 40
0.0
 40
0.0
 40
1.0
 40
1.0
 40
1.0
 10
149.1051324740849
 20
-254.2640987428924
 30
0.0
 10
149.5744213000737
 20
-253.447670081546
 30
0.0
 10
150.4551347629033
 20
-252.9976705106995
 30
0.0
  0
SPLINE
  5
146
330
70
100
AcDbEntity
  8
bottom v2_Sketch1
100
AcDbSpline
210
0.0
220
0.0
230
1.0
 70
     8
 71
     2
 72
     6
 73
     3
 74
     0
 42
0.000000001
 43
0.0000000001
 40
0.0
 40
0.0
 40
0.0
 40
1.0
 40
1.0
 40
1.0
 10
152.5444206134282
 20
-252.5476703438064
 30
0.0
 10
154.8072704211674
 20
-252.5476703438064
 30
0.0
 10
155.9001335040532
 20
-254.0519556793472
 30
0.0
  0
LINE
  5
147
330
70
100
AcDbEntity
  8
bottom v2_Sketch1
100
AcDbLine
 10
153.8172801867924
 20
-259.6833840402862
 30
0.0
 11
153.8301357165776
 21
-258.1019559892914
 31
0.0
  0
LINE
  5
148
330
70
100
AcDbEntity
  8
bottom v2_Sketch1
100
AcDbLine
 10
143.0429872409306
 20
-256.52052734225
 30
0.0
 11
147.2215589419804
 21
-256.52052734225
 31
0.0
  0
LINE
  5
149
330
70
100
AcDbEntity
  8
bottom v2_Sketch1
100
AcDbLine
 10
164.9901279345952
 20
-261.7533842119476
 30
0.0
 11
162.7015575305424
 21
-261.7533842119476
 31
0.0
  0
LINE
  5
14A
330
70
100
AcDbEntity
  8
bottom v2_Sketch1
100
AcDbLine
 10
166.1472782031499
 20
-261.7533842119476
 30
0.0
 11
166.1472782031499
 21
-252.7533844503662
 31
0.0
  0
LINE
  5
14B
330
70
100
AcDbEntity
  8
bottom v2_Sketch1
100
AcDbLine
 10
147.2215589419804
 20
-258.1919554266235
 30
0.0
 11
143.0429872409306
 21
-258.1919554266235
 31
0.0
  0
LINE
  5
14C
330
70
100
AcDbEntity
  8
bottom v2_Sketch1
100
AcDbLine
 10
153.8301357165776
 20
-258.1019559892914
 30
0.0
 11
152.325847996851
 21
-258.1019559892914
 31
0.0
  0
LINE
  5
14D
330
70
100
AcDbEntity
  8
bottom v2_Sketch1
100
AcDbLine
 10
150.8858474627934
 20
-255.9548131021759
 30
0.0
 11
150.8858474627934
 21
-258.7705269846221
 31
0.0
  0
SPLINE
  5
14E
330
70
100
AcDbEntity
  8
bottom v2_Sketch1
100
AcDbSpline
210
0.0
220
0.0
230
1.0
 70
     8
 71
     2
 72
     6
 73
     3
 74
     0
 42
0.000000001
 43
0.0000000001
 40
0.0
 40
0.0
 40
0.0
 40
1.0
 40
1.0
 40
1.0
 10
142.0658429995976
 20
-260.9176698717377
 30
0.0
 10
141.5258439914189
 20
-261.3676694425842
 30
0.0
 10
140.767272366663
 20
-261.6633847746154
 30
0.0
  0
SPLINE
  5
14F
330
70
100
AcDbEntity
  8
bottom v2_Sketch1
100
AcDbSpline
210
0.0
220
0.0
230
1.0
 70
     8
 71
     2
 72
     6
 73
     3
 74
     0
 42
0.000000001
 43
0.0000000001
 40
0.0
 40
0.0
 40
0.0
 40
1.0
 40
1.0
 40
1.0
 10
138.0351289645634
 20
-254.6048131975433
 30
0.0
 10
137.6044162646733
 20
-255.0548127683899
 30
0.0
 10
137.6044162646733
 20
-255.9162417444488
 30
0.0
  0
LINE
  5
150
330
70
100
AcDbEntity
  8
bottom v2_Sketch1
100
AcDbLine
 10
155.9644206897221
 20
-261.7533842119476
 30
0.0
 11
154.2929920093022
 21
-261.7533842119476
 31
0.0
  0
SPLINE
  5
151
330
70
100
AcDbEntity
  8
bottom v2_Sketch1
100
AcDbSpline
210
0.0
220
0.0
230
1.0
 70
     8
 71
     2
 72
     6
 73
     3
 74
     0
 42
0.000000001
 43
0.0000000001
 40
0.0
 40
0.0
 40
0.0
 40
1.0
 40
1.0
 40
1.0
 10
150.8858474627934
 20
-258.7705269846221
 30
0.0
 10
150.8858474627934
 20
-259.5162418875
 30
0.0
 10
151.2522777453862
 20
-259.9340990576049
 30
0.0
  0
LINE
  5
152
330
70
100
AcDbEntity
  8
bottom v2_Sketch1
100
AcDbLine
 10
166.1472782031499
 20
-252.7533844503662
 30
0.0
 11
169.5544322864018
 21
-252.7533844503662
 31
0.0
  0
SPLINE
  5
153
330
70
100
AcDbEntity
  8
bottom v2_Sketch1
100
AcDbSpline
210
0.0
220
0.0
230
1.0
 70
     8
 71
     2
 72
     6
 73
     3
 74
     0
 42
0.000000001
 43
0.0000000001
 40
0.0
 40
0.0
 40
0.0
 40
1.0
 40
1.0
 40
1.0
 10
169.5544322864018
 20
-252.7533844503662
 30
0.0
 10
170.5315669909917
 20
-252.7533844503662
 30
0.0
 10
171.2708553210698
 20
-253.049099186351
 30
0.0
  0
SPLINE
  5
154
330
70
100
AcDbEntity
  8
bottom v2_Sketch1
100
AcDbSpline
210
0.0
220
0.0
230
1.0
 70
     8
 71
     2
 72
     6
 73
     3
 74
     0
 42
0.000000001
 43
0.0000000001
 40
0.0
 40
0.0
 40
0.0
 40
1.0
 40
1.0
 40
1.0
 10
171.2708553210698
 20
-253.049099186351
 30
0.0
 10
172.0101436511479
 20
-253.3448133262893
 30
0.0
 10
172.4215778247319
 20
-253.8912418875
 30
0.0
  0
LINE
  5
155
330
70
100
AcDbEntity
  8
bottom v2_Sketch1
100
AcDbLine
 10
155.9644206897221
 20
-256.6105273756286
 30
0.0
 11
155.9644206897221
 21
-261.7533842119476
 31
0.0
  0
SPLINE
  5
156
330
70
100
AcDbEntity
  8
bottom v2_Sketch1
100
AcDbSpline
210
0.0
220
0.0
230
1.0
 70
     8
 71
     2
 72
     6
 73
     3
 74
     0
 42
0.000000001
 43
0.0000000001
 40
0.0
 40
0.0
 40
0.0
 40
1.0
 40
1.0
 40
1.0
 10
172.4215778247319
 20
-253.8912418875
 30
0.0
 10
172.8329929248295
 20
-254.4376704487106
 30
0.0
 10
172.8329929248295
 20
-255.183384755542
 30
0.0
  0
LINE
  5
157
330
70
100
AcDbEntity
  8
bottom v2_Sketch1
100
AcDbLine
 10
154.2929920093022
 20
-261.7533842119476
 30
0.0
 11
154.1258510486088
 21
-261.1105266603729
 31
0.0
  0
LINE
  5
158
330
70
100
AcDbEntity
  8
bottom v2_Sketch1
100
AcDbLine
 10
162.7015575305424
 20
-261.7533842119476
 30
0.0
 11
162.1487125293217
 21
-259.7862413915893
 31
0.0
  0
SPLINE
  5
159
330
70
100
AcDbEntity
  8
bottom v2_Sketch1
100
AcDbSpline
210
0.0
220
0.0
230
1.0
 70
     8
 71
     2
 72
     6
 73
     3
 74
     0
 42
0.000000001
 43
0.0000000001
 40
0.0
 40
0.0
 40
0.0
 40
1.0
 40
1.0
 40
1.0
 10
139.2629894153081
 20
-254.1548130306503
 30
0.0
 10
138.4658464328252
 20
-254.1548130306503
 30
0.0
 10
138.0351289645634
 20
-254.6048131975433
 30
0.0
  0
SPLINE
  5
15A
330
70
100
AcDbEntity
  8
bottom v2_Sketch1
100
AcDbSpline
210
0.0
220
0.0
230
1.0
 70
     8
 71
     2
 72
     6
 73
     3
 74
     0
 42
0.000000001
 43
0.0000000001
 40
0.0
 40
0.0
 40
0.0
 40
1.0
 40
1.0
 40
1.0
 10
150.2172788516484
 20
-261.5669551882049
 30
0.0
 10
149.4844182864629
 20
-261.1748126539489
 30
0.0
 10
149.0601333514653
 20
-260.4419556650421
 30
0.0
  0
LINE
  5
15B
330
70
100
AcDbEntity
  8
bottom v2_Sketch1
100
AcDbLine
 10
137.6044162646733
 20
-255.9162417444488
 30
0.0
 11
137.6044162646733
 21
-258.5390988382599
 31
0.0
  0
SPLINE
  5
15C
330
70
100
AcDbEntity
  8
bottom v2_Sketch1
100
AcDbSpline
210
0.0
220
0.0
230
1.0
 70
     8
 71
     2
 72
     6
 73
     3
 74
     0
 42
0.000000001
 43
0.0000000001
 40
0.0
 40
0.0
 40
0.0
 40
1.0
 40
1.0
 40
1.0
 10
149.0601333514653
 20
-260.4419556650421
 30
0.0
 10
148.6358484164677
 20
-259.7090986761352
 30
0.0
 10
148.6358484164677
 20
-258.744813540866
 30
0.0
  0
SPLINE
  5
15D
330
70
100
AcDbEntity
  8
bottom v2_Sketch1
100
AcDbSpline
210
0.0
220
0.0
230
1.0
 70
     8
 71
     2
 72
     6
 73
     3
 74
     0
 42
0.000000001
 43
0.0000000001
 40
0.0
 40
0.0
 40
0.0
 40
1.0
 40
1.0
 40
1.0
 10
154.1258510486088
 20
-261.1105266603729
 30
0.0
 10
153.6887058154546
 20
-261.4962414297363
 30
0.0
 10
153.1101306811772
 20
-261.7276695760986
 30
0.0
  0
SPLINE
  5
15E
330
70
100
AcDbEntity
  8
bottom v2_Sketch1
100
AcDbSpline
210
0.0
220
0.0
230
1.0
 70
     8
 71
     2
 72
     6
 73
     3
 74
     0
 42
0.000000001
 43
0.0000000001
 40
0.0
 40
0.0
 40
0.0
 40
1.0
 40
1.0
 40
1.0
 10
154.498699559351
 20
-255.0290987285873
 30
0.0
 10
154.1258510486088
 20
-254.5919558796188
 30
0.0
 10
153.6887058154546
 20
-254.3733844551346
 30
0.0
  0
SPLINE
  5
15F
330
70
100
AcDbEntity
  8
bottom v2_Sketch1
100
AcDbSpline
210
0.0
220
0.0
230
1.0
 70
     8
 71
     2
 72
     6
 73
     3
 74
     0
 42
0.000000001
 43
0.0000000001
 40
0.0
 40
0.0
 40
0.0
 40
1.0
 40
1.0
 40
1.0
 10
151.3358482257329
 20
-254.6176699194214
 30
0.0
 10
150.8858474627934
 20
-255.0805274042389
 30
0.0
 10
150.8858474627934
 20
-255.9548131021759
 30
0.0
  0
SPLINE
  5
160
330
70
100
AcDbEntity
  8
bottom v2_Sketch1
100
AcDbSpline
210
0.0
220
0.0
230
1.0
 70
     8
 71
     2
 72
     6
 73
     3
 74
     0
 42
0.000000001
 43
0.0000000001
 40
0.0
 40
0.0
 40
0.0
 40
1.0
 40
1.0
 40
1.0
 10
152.325847996851
 20
-260.351955035617
 30
0.0
 10
152.8015598193608
 20
-260.351955035617
 30
0.0
 10
153.1808551684819
 20
-260.1719561609527
 30
0.0
  0
LINE
  5
161
330
70
100
AcDbEntity
  8
bottom v2_Sketch1
100
AcDbLine
 10
155.9001335040532
 20
-254.0519556793472
 30
0.0
 11
154.498699559351
 21
-255.0290987285873
 31
0.0
  0
SPLINE
  5
162
330
70
100
AcDbEntity
  8
bottom v2_Sketch1
100
AcDbSpline
210
0.0
220
0.0
230
1.0
 70
     8
 71
     2
 72
     6
 73
     3
 74
     0
 42
0.000000001
 43
0.0000000001
 40
0.0
 40
0.0
 40
0.0
 40
1.0
 40
1.0
 40
1.0
 10
140.8251317874394
 20
-252.8176704439422
 30
0.0
 10
141.5129884616337
 20
-253.0876699480316
 30
0.0
 10
142.1172746554814
 20
-253.5890987905761
 30
0.0
  0
SPLINE
  5
163
330
70
100
AcDbEntity
  8
bottom v2_Sketch1
100
AcDbSpline
210
0.0
220
0.0
230
1.0
 70
     8
 71
     2
 72
     6
 73
     3
 74
     0
 42
0.000000001
 43
0.0000000001
 40
0.0
 40
0.0
 40
0.0
 40
1.0
 40
1.0
 40
1.0
 10
139.1729864016972
 20
-252.5476703438064
 30
0.0
 10
140.1372751132451
 20
-252.5476703438064
 30
0.0
 10
140.8251317874394
 20
-252.8176704439422
 30
0.0
  0
SPLINE
  5
164
330
70
100
AcDbEntity
  8
bottom v2_Sketch1
100
AcDbSpline
210
0.0
220
0.0
230
1.0
 70
     8
 71
     2
 72
     6
 73
     3
 74
     0
 42
0.000000001
 43
0.0000000001
 40
0.0
 40
0.0
 40
0.0
 40
1.0
 40
1.0
 40
1.0
 10
151.8372758761845
 20
-261.9590989145538
 30
0.0
 10
150.9501346484624
 20
-261.9590989145538
 30
0.0
 10
150.2172788516484
 20
-261.5669551882049
 30
0.0
  0
LINE
  5
165
330
70
100
AcDbEntity
  8
bottom v2_Sketch1
100
AcDbLine
 10
148.6358484164677
 20
-258.744813540866
 30
0.0
 11
148.6358484164677
 21
-256.1605272087356
 31
0.0
  0
SPLINE
  5
166
330
70
100
AcDbEntity
  8
bottom v2_Sketch1
100
AcDbSpline
210
0.0
220
0.0
230
1.0
 70
     8
 71
     2
 72
     6
 73
     3
 74
     0
 42
0.000000001
 43
0.0000000001
 40
0.0
 40
0.0
 40
0.0
 40
1.0
 40
1.0
 40
1.0
 10
151.2522777453862
 20
-259.9340990576049
 30
0.0
 10
151.6187032596074
 20
-260.351955035617
 30
0.0
 10
152.325847996851
 20
-260.351955035617
 30
0.0
  0
SPLINE
  5
167
330
70
100
AcDbEntity
  8
bottom v2_Sketch1
100
AcDbSpline
210
0.0
220
0.0
230
1.0
 70
     8
 71
     2
 72
     6
 73
     3
 74
     0
 42
0.000000001
 43
0.0000000001
 40
0.0
 40
0.0
 40
0.0
 40
1.0
 40
1.0
 40
1.0
 10
153.1808551684819
 20
-260.1719561609527
 30
0.0
 10
153.5601314441167
 20
-259.9919560941955
 30
0.0
 10
153.8172801867924
 20
-259.6833840402862
 30
0.0
  0
SPLINE
  5
168
330
70
100
AcDbEntity
  8
bottom v2_Sketch1
100
AcDbSpline
210
0.0
220
0.0
230
1.0
 70
     8
 71
     2
 72
     6
 73
     3
 74
     0
 42
0.000000001
 43
0.0000000001
 40
0.0
 40
0.0
 40
0.0
 40
1.0
 40
1.0
 40
1.0
 10
152.6601299182378
 20
-254.1548130306503
 30
0.0
 10
151.7858489886723
 20
-254.1548130306503
 30
0.0
 10
151.3358482257329
 20
-254.6176699194214
 30
0.0
  0
LINE
  5
169
330
70
100
AcDbEntity
  8
bottom v2_Sketch1
100
AcDbLine
 10
152.325847996851
 20
-256.6105273756286
 30
0.0
 11
155.9644206897221
 21
-256.6105273756286
 31
0.0
  0
LINE
  5
16A
330
70
100
AcDbEntity
  8
bottom v2_Sketch1
100
AcDbLine
 10
152.325847996851
 20
-258.1019559892914
 30
0.0
 11
152.325847996851
 21
-256.6105273756286
 31
0.0
  0
LINE
  5
16B
330
70
100
AcDbEntity
  8
bottom v2_Sketch1
100
AcDbLine
 10
159.448707951685
 20
-259.7862413915893
 30
0.0
 11
158.9472659961186
 21
-261.7533842119476
 31
0.0
  0
LINE
  5
16C
330
70
100
AcDbEntity
  8
bottom v2_Sketch1
100
AcDbLine
 10
156.7101367846928
 20
-261.7533842119476
 30
0.0
 11
159.2815669909916
 21
-252.7533844503662
 31
0.0
  0
LINE
  5
16D
330
70
100
AcDbEntity
  8
bottom v2_Sketch1
100
AcDbLine
 10
159.2815669909916
 20
-252.7533844503662
 30
0.0
 11
162.2772678271733
 21
-252.7533844503662
 31
0.0
  0
LINE
  5
16E
330
70
100
AcDbEntity
  8
bottom v2_Sketch1
100
AcDbLine
 10
160.7729801074467
 20
-254.2319563421508
 30
0.0
 11
159.8601230517827
 21
-258.1148127111694
 31
0.0
  0
LINE
  5
16F
330
70
100
AcDbEntity
  8
bottom v2_Sketch1
100
AcDbLine
 10
147.2215589419804
 20
-256.52052734225
 30
0.0
 11
147.2215589419804
 21
-258.1919554266235
 31
0.0
  0
LINE
  5
170
330
70
100
AcDbEntity
  8
bottom v2_Sketch1
100
AcDbLine
 10
159.8601230517827
 20
-258.1148127111694
 30
0.0
 11
161.7115672961674
 21
-258.1148127111694
 31
0.0
  0
LINE
  5
171
330
70
100
AcDbEntity
  8
bottom v2_Sketch1
100
AcDbLine
 10
161.7115672961674
 20
-258.1148127111694
 30
0.0
 11
160.7729801074467
 21
-254.2319563421508
 31
0.0
  0
LINE
  5
172
330
70
100
AcDbEntity
  8
bottom v2_Sketch1
100
AcDbLine
 10
169.2458614245854
 20
-258.3976701292297
 30
0.0
 11
168.3972820178471
 21
-258.3976701292297
 31
0.0
  0
LINE
  5
173
330
70
100
AcDbEntity
  8
bottom v2_Sketch1
100
AcDbLine
 10
168.3972820178471
 20
-258.3976701292297
 30
0.0
 11
168.3972820178471
 21
-261.7533842119476
 31
0.0
  0
LINE
  5
174
330
70
100
AcDbEntity
  8
bottom v2_Sketch1
100
AcDbLine
 10
162.1487125293217
 20
-259.7862413915893
 30
0.0
 11
159.448707951685
 21
-259.7862413915893
 31
0.0
  0
LINE
  5
175
330
70
100
AcDbEntity
  8
bottom v2_Sketch1
100
AcDbLine
 10
158.9472659961186
 20
-261.7533842119476
 30
0.0
 11
156.7101367846928
 21
-261.7533842119476
 31
0.0
  0
LINE
  5
176
330
70
100
AcDbEntity
  8
bottom v2_Sketch1
100
AcDbLine
 10
168.3972820178471
 20
-261.7533842119476
 30
0.0
 11
166.1472782031499
 21
-261.7533842119476
 31
0.0
  0
SPLINE
  5
177
330
70
100
AcDbEntity
  8
bottom v2_Sketch1
100
AcDbSpline
210
0.0
220
0.0
230
1.0
 70
     8
 71
     2
 72
     6
 73
     3
 74
     0
 42
0.000000001
 43
0.0000000001
 40
0.0
 40
0.0
 40
0.0
 40
1.0
 40
1.0
 40
1.0
 10
137.1287044421635
 20
-252.991241553714
 30
0.0
 10
137.9901298419438
 20
-252.5476703438064
 30
0.0
 10
139.1729864016972
 20
-252.5476703438064
 30
0.0
  0
SPLINE
  5
178
330
70
100
AcDbEntity
  8
bottom v2_Sketch1
100
AcDbSpline
210
0.0
220
0.0
230
1.0
 70
     8
 71
     2
 72
     6
 73
     3
 74
     0
 42
0.000000001
 43
0.0000000001
 40
0.0
 40
0.0
 40
0.0
 40
1.0
 40
1.0
 40
1.0
 10
169.3872913257085
 20
-256.8933847936889
 30
0.0
 10
169.9401363269292
 20
-256.8933847936889
 30
0.0
 10
170.2615627185307
 20
-256.6298130544922
 30
0.0
  0
LINE
  5
179
330
70
100
AcDbEntity
  8
bottom v2_Sketch1
100
AcDbLine
 10
198.2515605823002
 20
-261.7533842119476
 30
0.0
 11
195.8215602771245
 21
-261.7533842119476
 31
0.0
  0
LINE
  5
17A
330
70
100
AcDbEntity
  8
bottom v2_Sketch1
100
AcDbLine
 10
170.5829891101323
 20
-255.8905271085998
 30
0.0
 11
170.5829891101323
 21
-255.3248128685257
 31
0.0
  0
SPLINE
  5
17B
330
70
100
AcDbEntity
  8
bottom v2_Sketch1
100
AcDbSpline
210
0.0
220
0.0
230
1.0
 70
     8
 71
     2
 72
     6
 73
     3
 74
     0
 42
0.000000001
 43
0.0000000001
 40
0.0
 40
0.0
 40
0.0
 40
1.0
 40
1.0
 40
1.0
 10
179.4929965869389
 20
-256.2633845600387
 30
0.0
 10
179.4929965869389
 20
-255.3119561466476
 30
0.0
 10
179.1008457080327
 20
-254.8426703008911
 30
0.0
  0
SPLINE
  5
17C
330
70
100
AcDbEntity
  8
bottom v2_Sketch1
100
AcDbSpline
210
0.0
220
0.0
230
1.0
 70
     8
 71
     2
 72
     6
 73
     3
 74
     0
 42
0.000000001
 43
0.0000000001
 40
0.0
 40
0.0
 40
0.0
 40
1.0
 40
1.0
 40
1.0
 10
181.7430004016362
 20
-257.9990986379883
 30
0.0
 10
181.7430004016362
 20
-259.7605267557403
 30
0.0
 10
180.6887134448491
 20
-260.756955483844
 30
0.0
  0
LINE
  5
17D
330
70
100
AcDbEntity
  8
bottom v2_Sketch1
100
AcDbLine
 10
185.7929881946049
 20
-260.0948134454986
 30
0.0
 11
189.1487010852299
 21
-260.0948134454986
 31
0.0
  0
LINE
  5
17E
330
70
100
AcDbEntity
  8
bottom v2_Sketch1
100
AcDbLine
 10
183.5429843799077
 20
-261.7533842119476
 30
0.0
 11
183.5429843799077
 21
-252.7533844503662
 31
0.0
  0
LINE
  5
17F
330
70
100
AcDbEntity
  8
bottom v2_Sketch1
100
AcDbLine
 10
169.4001468554936
 20
-254.2576703819534
 30
0.0
 11
168.3972820178471
 21
-254.2576703819534
 31
0.0
  0
SPLINE
  5
180
330
70
100
AcDbEntity
  8
bottom v2_Sketch1
100
AcDbSpline
210
0.0
220
0.0
230
1.0
 70
     8
 71
     2
 72
     6
 73
     3
 74
     0
 42
0.000000001
 43
0.0000000001
 40
0.0
 40
0.0
 40
0.0
 40
1.0
 40
1.0
 40
1.0
 10
179.1008457080327
 20
-254.8426703008911
 30
0.0
 10
178.7087139026128
 20
-254.3733844551346
 30
0.0
 10
177.8987010852299
 20
-254.3733844551346
 30
0.0
  0
LINE
  5
181
330
70
100
AcDbEntity
  8
bottom v2_Sketch1
100
AcDbLine
 10
188.878696812769
 20
-256.3919559511444
 30
0.0
 11
188.878696812769
 21
-257.9990986379883
 31
0.0
  0
SPLINE
  5
182
330
70
100
AcDbEntity
  8
bottom v2_Sketch1
100
AcDbSpline
210
0.0
220
0.0
230
1.0
 70
     8
 71
     2
 72
     6
 73
     3
 74
     0
 42
0.000000001
 43
0.0000000001
 40
0.0
 40
0.0
 40
0.0
 40
1.0
 40
1.0
 40
1.0
 10
180.6887134448491
 20
-260.756955483844
 30
0.0
 10
179.634426488062
 20
-261.7533842119476
 30
0.0
 10
177.6544269458256
 20
-261.7533842119476
 30
0.0
  0
LINE
  5
183
330
70
100
AcDbEntity
  8
bottom v2_Sketch1
100
AcDbLine
 10
189.1487010852299
 20
-261.7533842119476
 30
0.0
 11
183.5429843799077
 21
-261.7533842119476
 31
0.0
  0
LINE
  5
184
330
70
100
AcDbEntity
  8
bottom v2_Sketch1
100
AcDbLine
 10
173.3344348803959
 20
-261.7533842119476
 30
0.0
 11
170.9044345752202
 21
-261.7533842119476
 31
0.0
  0
SPLINE
  5
185
330
70
100
AcDbEntity
  8
bottom v2_Sketch1
100
AcDbSpline
210
0.0
220
0.0
230
1.0
 70
     8
 71
     2
 72
     6
 73
     3
 74
     0
 42
0.000000001
 43
0.0000000001
 40
0.0
 40
0.0
 40
0.0
 40
1.0
 40
1.0
 40
1.0
 10
172.4408611194096
 20
-257.1183845791122
 30
0.0
 10
172.0487102405034
 20
-257.6390985044739
 30
0.0
 10
171.328705205103
 20
-257.9605272802612
 30
0.0
  0
LINE
  5
186
330
70
100
AcDbEntity
  8
bottom v2_Sketch1
100
AcDbLine
 10
177.6544269458256
 20
-261.7533842119476
 30
0.0
 11
174.7101291552983
 21
-261.7533842119476
 31
0.0
  0
LINE
  5
187
330
70
100
AcDbEntity
  8
bottom v2_Sketch1
100
AcDbLine
 10
185.7929881946049
 20
-254.3733844551346
 30
0.0
 11
185.7929881946049
 21
-256.3919559511444
 31
0.0
  0
LINE
  5
188
330
70
100
AcDbEntity
  8
bottom v2_Sketch1
100
AcDbLine
 10
189.1487010852299
 20
-252.7533844503662
 30
0.0
 11
189.1487010852299
 21
-254.3733844551346
 31
0.0
  0
LINE
  5
189
330
70
100
AcDbEntity
  8
bottom v2_Sketch1
100
AcDbLine
 10
196.335857762476
 20
-258.3333841356536
 30
0.0
 11
196.335857762476
 21
-252.7533844503662
 31
0.0
  0
LINE
  5
18A
330
70
100
AcDbEntity
  8
bottom v2_Sketch1
100
AcDbLine
 10
189.1487010852299
 20
-260.0948134454986
 30
0.0
 11
189.1487010852299
 21
-261.7533842119476
 31
0.0
  0
LINE
  5
18B
330
70
100
AcDbEntity
  8
bottom v2_Sketch1
100
AcDbLine
 10
190.9744151965581
 20
-261.7533842119476
 30
0.0
 11
190.9744151965581
 21
-252.7533844503662
 31
0.0
  0
LINE
  5
18C
330
70
100
AcDbEntity
  8
bottom v2_Sketch1
100
AcDbLine
 10
183.5429843799077
 20
-252.7533844503662
 30
0.0
 11
189.1487010852299
 21
-252.7533844503662
 31
0.0
  0
LINE
  5
18D
330
70
100
AcDbEntity
  8
bottom v2_Sketch1
100
AcDbLine
 10
176.9601329699956
 20
-254.3733844551346
 30
0.0
 11
176.9601329699956
 21
-260.1333848032257
 31
0.0
  0
LINE
  5
18E
330
70
100
AcDbEntity
  8
bottom v2_Sketch1
100
AcDbLine
 10
174.7101291552983
 20
-261.7533842119476
 30
0.0
 11
174.7101291552983
 21
-252.7533844503662
 31
0.0
  0
SPLINE
  5
18F
330
70
100
AcDbEntity
  8
bottom v2_Sketch1
100
AcDbSpline
210
0.0
220
0.0
230
1.0
 70
     8
 71
     2
 72
     6
 73
     3
 74
     0
 42
0.000000001
 43
0.0000000001
 40
0.0
 40
0.0
 40
0.0
 40
1.0
 40
1.0
 40
1.0
 10
172.8329929248295
 20
-255.9162417444488
 30
0.0
 10
172.8329929248295
 20
-256.5976700577041
 30
0.0
 10
172.4408611194096
 20
-257.1183845791122
 30
0.0
  0
LINE
  5
190
330
70
100
AcDbEntity
  8
bottom v2_Sketch1
100
AcDbLine
 10
172.8329929248295
 20
-255.183384755542
 30
0.0
 11
172.8329929248295
 21
-255.9162417444488
 31
0.0
  0
LINE
  5
191
330
70
100
AcDbEntity
  8
bottom v2_Sketch1
100
AcDbLine
 10
171.328705205103
 20
-257.9605272802612
 30
0.0
 11
173.3344348803959
 21
-261.7533842119476
 31
0.0
  0
LINE
  5
192
330
70
100
AcDbEntity
  8
bottom v2_Sketch1
100
AcDbLine
 10
168.3972820178471
 20
-254.2576703819534
 30
0.0
 11
168.3972820178471
 21
-256.8933847936889
 31
0.0
  0
LINE
  5
193
330
70
100
AcDbEntity
  8
bottom v2_Sketch1
100
AcDbLine
 10
174.7101291552983
 20
-252.7533844503662
 30
0.0
 11
177.962997807642
 21
-252.7533844503662
 31
0.0
  0
SPLINE
  5
194
330
70
100
AcDbEntity
  8
bottom v2_Sketch1
100
AcDbSpline
210
0.0
220
0.0
230
1.0
 70
     8
 71
     2
 72
     6
 73
     3
 74
     0
 42
0.000000001
 43
0.0000000001
 40
0.0
 40
0.0
 40
0.0
 40
1.0
 40
1.0
 40
1.0
 10
179.049423588892
 20
-259.6319559606811
 30
0.0
 10
179.4929965869389
 20
-259.1305271181365
 30
0.0
 10
179.4929965869389
 20
-258.0633846315643
 30
0.0
  0
LINE
  5
195
330
70
100
AcDbEntity
  8
bottom v2_Sketch1
100
AcDbLine
 10
170.9044345752202
 20
-261.7533842119476
 30
0.0
 11
169.2458614245854
 21
-258.3976701292297
 31
0.0
  0
LINE
  5
196
330
70
100
AcDbEntity
  8
bottom v2_Sketch1
100
AcDbLine
 10
185.7929881946049
 20
-256.3919559511444
 30
0.0
 11
188.878696812769
 21
-256.3919559511444
 31
0.0
  0
LINE
  5
197
330
70
100
AcDbEntity
  8
bottom v2_Sketch1
100
AcDbLine
 10
188.878696812769
 20
-257.9990986379883
 30
0.0
 11
185.7929881946049
 21
-257.9990986379883
 31
0.0
  0
SPLINE
  5
198
330
70
100
AcDbEntity
  8
bottom v2_Sketch1
100
AcDbSpline
210
0.0
220
0.0
230
1.0
 70
     8
 71
     2
 72
     6
 73
     3
 74
     0
 42
0.000000001
 43
0.0000000001
 40
0.0
 40
0.0
 40
0.0
 40
1.0
 40
1.0
 40
1.0
 10
177.962997807642
 20
-252.7533844503662
 30
0.0
 10
179.8015674487553
 20
-252.7533844503662
 30
0.0
 10
180.7722743884526
 20
-253.7176701816818
 30
0.0
  0
LINE
  5
199
330
70
100
AcDbEntity
  8
bottom v2_Sketch1
100
AcDbLine
 10
181.7430004016362
 20
-256.3405272754928
 30
0.0
 11
181.7430004016362
 21
-257.9990986379882
 31
0.0
  0
LINE
  5
19A
330
70
100
AcDbEntity
  8
bottom v2_Sketch1
100
AcDbLine
 10
179.4929965869389
 20
-258.0633846315643
 30
0.0
 11
179.4929965869389
 21
-256.2633845600387
 31
0.0
  0
LINE
  5
19B
330
70
100
AcDbEntity
  8
bottom v2_Sketch1
100
AcDbLine
 10
176.9601329699956
 20
-260.1333848032257
 30
0.0
 11
177.7058490649663
 21
-260.1333848032257
 31
0.0
  0
LINE
  5
19C
330
70
100
AcDbEntity
  8
bottom v2_Sketch1
100
AcDbLine
 10
198.2515605823002
 20
-252.7533844503662
 30
0.0
 11
198.2515605823002
 21
-261.7533842119476
 31
0.0
  0
LINE
  5
19D
330
70
100
AcDbEntity
  8
bottom v2_Sketch1
100
AcDbLine
 10
185.7929881946049
 20
-257.9990986379883
 30
0.0
 11
185.7929881946049
 21
-260.0948134454986
 31
0.0
  0
LINE
  5
19E
330
70
100
AcDbEntity
  8
bottom v2_Sketch1
100
AcDbLine
 10
192.8901370898686
 20
-261.7533842119476
 30
0.0
 11
190.9744151965581
 21
-261.7533842119476
 31
0.0
  0
LINE
  5
19F
330
70
100
AcDbEntity
  8
bottom v2_Sketch1
100
AcDbLine
 10
190.9744151965581
 20
-252.7533844503662
 30
0.0
 11
193.610142125269
 21
-252.7533844503662
 31
0.0
  0
LINE
  5
1A0
330
70
100
AcDbEntity
  8
bottom v2_Sketch1
100
AcDbLine
 10
193.610142125269
 20
-252.7533844503662
 30
0.0
 11
196.335857762476
 21
-258.3333841356536
 31
0.0
  0
LINE
  5
1A1
330
70
100
AcDbEntity
  8
bottom v2_Sketch1
100
AcDbLine
 10
168.3972820178471
 20
-256.8933847936889
 30
0.0
 11
169.3872913257085
 21
-256.8933847936889
 31
0.0
  0
SPLINE
  5
1A2
330
70
100
AcDbEntity
  8
bottom v2_Sketch1
100
AcDbSpline
210
0.0
220
0.0
230
1.0
 70
     8
 71
     2
 72
     6
 73
     3
 74
     0
 42
0.000000001
 43
0.0000000001
 40
0.0
 40
0.0
 40
0.0
 40
1.0
 40
1.0
 40
1.0
 10
170.2679904834233
 20
-254.5276704820892
 30
0.0
 10
169.9529918567143
 20
-254.2576703819534
 30
0.0
 10
169.4001468554936
 20
-254.2576703819534
 30
0.0
  0
LINE
  5
1A3
330
70
100
AcDbEntity
  8
bottom v2_Sketch1
100
AcDbLine
 10
177.8987010852299
 20
-254.3733844551346
 30
0.0
 11
176.9601329699956
 21
-254.3733844551346
 31
0.0
  0
LINE
  5
1A4
330
70
100
AcDbEntity
  8
bottom v2_Sketch1
100
AcDbLine
 10
189.1487010852299
 20
-254.3733844551346
 30
0.0
 11
185.7929881946049
 21
-254.3733844551346
 31
0.0
  0
SPLINE
  5
1A5
330
70
100
AcDbEntity
  8
bottom v2_Sketch1
100
AcDbSpline
210
0.0
220
0.0
230
1.0
 70
     8
 71
     2
 72
     6
 73
     3
 74
     0
 42
0.000000001
 43
0.0000000001
 40
0.0
 40
0.0
 40
0.0
 40
1.0
 40
1.0
 40
1.0
 10
180.7722743884526
 20
-253.7176701816818
 30
0.0
 10
181.7430004016362
 20
-254.6819559129974
 30
0.0
 10
181.7430004016362
 20
-256.3405272754928
 30
0.0
  0
SPLINE
  5
1A6
330
70
100
AcDbEntity
  8
bottom v2_Sketch1
100
AcDbSpline
210
0.0
220
0.0
230
1.0
 70
     8
 71
     2
 72
     6
 73
     3
 74
     0
 42
0.000000001
 43
0.0000000001
 40
0.0
 40
0.0
 40
0.0
 40
1.0
 40
1.0
 40
1.0
 10
177.7058490649663
 20
-260.1333848032257
 30
0.0
 10
178.6058505908452
 20
-260.1333848032257
 30
0.0
 10
179.049423588892
 20
-259.6319559606811
 30
0.0
  0
LINE
  5
1A7
330
70
100
AcDbEntity
  8
bottom v2_Sketch1
100
AcDbLine
 10
196.335857762476
 20
-252.7533844503662
 30
0.0
 11
198.2515605823002
 21
-252.7533844503662
 31
0.0
  0
SPLINE
  5
1A8
330
70
100
AcDbEntity
  8
bottom v2_Sketch1
100
AcDbSpline
210
0.0
220
0.0
230
1.0
 70
     8
 71
     2
 72
     6
 73
     3
 74
     0
 42
0.000000001
 43
0.0000000001
 40
0.0
 40
0.0
 40
0.0
 40
1.0
 40
1.0
 40
1.0
 10
170.2615627185307
 20
-256.6298130544922
 30
0.0
 10
170.5829891101323
 20
-256.3662419113418
 30
0.0
 10
170.5829891101323
 20
-255.8905271085998
 30
0.0
  0
LINE
  5
1A9
330
70
100
AcDbEntity
  8
bottom v2_Sketch1
100
AcDbLine
 10
195.8215602771245
 20
-261.7533842119476
 30
0.0
 11
192.8901370898686
 21
-255.5690989288589
 31
0.0
  0
LINE
  5
1AA
330
70
100
AcDbEntity
  8
bottom v2_Sketch1
100
AcDbLine
 10
192.8901370898686
 20
-255.5690989288589
 30
0.0
 11
192.8901370898686
 21
-261.7533842119476
 31
0.0
  0
CIRCLE
  5
1AB
330
70
100
AcDbEntity
  8
bottom v2_Sketch1
100
AcDbCircle
 10
65.01697253916652
 20
-257.1434818177635
 30
0.0
 40
1.600000000000006
  0
CIRCLE
  5
1AC
330
70
100
AcDbEntity
  8
bottom v2_Sketch1
100
AcDbCircle
 10
215.0169631183858
 20
-257.1434818177665
 30
0.0
 40
1.600000000000001
  0
SPLINE
  5
1AD
330
70
100
AcDbEntity
  8
bottom v2_Sketch1
100
AcDbSpline
210
0.0
220
0.0
230
1.0
 70
     8
 71
     2
 72
     6
 73
     3
 74
     0
 42
0.000000001
 43
0.0000000001
 40
0.0
 40
0.0
 40
0.0
 40
1.0
 40
1.0
 40
1.0
 10
170.5829891101323
 20
-255.3248128685257
 30
0.0
 10
170.5829891101323
 20
-254.797670582225
 30
0.0
 10
170.2679904834233
 20
-254.5276704820892
 30
0.0
  0
POINT
  5
1AF
330
70
100
AcDbEntity
  8
bottom v2_engrave
100
AcDbPoint
 10
0.0
 20
0.0
 30
0.0
  0
ENDSEC
  0
SECTION
  2
OBJECTS
  0
DICTIONARY
  5
C
330
0
100
AcDbDictionary
281
     1
  3
ACAD_COLOR
350
63
  3
ACAD_DETAILVIEWSTYLE
350
6A
  3
ACAD_GROUP
350
D
  3
ACAD_LAYOUT
350
62
  3
ACAD_MATERIAL
350
10
  3
ACAD_MLEADERSTYLE
350
66
  3
ACAD_MLINESTYLE
350
5F
  3
ACAD_PLOTSETTINGS
350
61
  3
ACAD_PLOTSTYLENAME
350
E
  3
ACAD_SCALELIST
350
42
  3
ACAD_SECTIONVIEWSTYLE
350
68
  3
ACAD_TABLESTYLE
350
64
  3
ACAD_VISUALSTYLE
350
29
  3
ACDB_RECOMPOSE_DATA
350
1B8
  3
AcDbVariableDictionary
350
1B0
  0
DICTIONARY
  5
63
102
{ACAD_REACTORS
330
C
102
}
330
C
100
AcDbDictionary
281
     1
  0
DICTIONARY
  5
6A
102
{ACAD_REACTORS
330
C
102
}
330
C
100
AcDbDictionary
281
     1
  3
Imperial24
350
6B
  0
DICTIONARY
  5
D
102
{ACAD_REACTORS
330
C
102
}
330
C
100
AcDbDictionary
281
     1
  0
DICTIONARY
  5
62
102
{ACAD_REACTORS
330
C
102
}
330
C
100
AcDbDictionary
281
     1
  3
Layout1
350
6F
  3
Layout2
350
77
  3
Model
350
73
  0
DICTIONARY
  5
10
102
{ACAD_REACTORS
330
C
102
}
330
C
100
AcDbDictionary
281
     1
  3
ByBlock
350
19
  3
ByLayer
350
11
  3
Global
350
21
  0
DICTIONARY
  5
66
102
{ACAD_REACTORS
330
C
102
}
330
C
100
AcDbDictionary
281
     1
  3
Standard
350
67
  0
DICTIONARY
  5
5F
102
{ACAD_REACTORS
330
C
102
}
330
C
100
AcDbDictionary
281
     1
  3
Standard
350
60
  0
DICTIONARY
  5
61
102
{ACAD_REACTORS
330
C
102
}
330
C
100
AcDbDictionary
281
     1
  0
ACDBDICTIONARYWDFLT
  5
E
102
{ACAD_REACTORS
330
C
102
}
330
C
100
AcDbDictionary
281
     1
  3
Normal
350
F
100
AcDbDictionaryWithDefault
340
F
  0
DICTIONARY
  5
42
102
{ACAD_REACTORS
330
C
102
}
330
C
100
AcDbDictionary
281
     1
  3
A0
350
43
  3
A1
350
44
  3
A2
350
45
  3
A3
350
46
  3
A4
350
47
  3
A5
350
48
  3
A6
350
49
  3
A7
350
4A
  3
A8
350
4B
  3
A9
350
4C
  3
B0
350
4D
  3
B1
350
4E
  3
B2
350
4F
  3
B3
350
50
  3
B4
350
51
  3
B5
350
52
  3
B6
350
53
  0
DICTIONARY
  5
68
102
{ACAD_REACTORS
330
C
102
}
330
C
100
AcDbDictionary
281
     1
  3
Imperial24
350
69
  0
DICTIONARY
  5
64
102
{ACAD_REACTORS
330
C
102
}
330
C
100
AcDbDictionary
281
     1
  3
Standard
350
65
  0
DICTIONARY
  5
29
102
{ACAD_REACTORS
330
C
102
}
330
C
100
AcDbDictionary
281
     1
  3
2dWireframe
350
2F
  3
Basic
350
2E
  3
Brighten
350
35
  3
ColorChange
350
39
  3
Conceptual
350
32
  3
Dim
350
34
  3
EdgeColorOff
350
41
  3
Facepattern
350
38
  3
Flat
350
2A
  3
FlatWithEdges
350
2B
  3
Gouraud
350
2C
  3
GouraudWithEdges
350
2D
  3
Hidden
350
31
  3
JitterOff
350
3F
  3
Linepattern
350
37
  3
OverhangOff
350
40
  3
Realistic
350
33
  3
Shaded
350
3E
  3
Shaded with edges
350
3D
  3
Shades of Gray
350
3A
  3
Sketchy
350
3B
  3
Thicken
350
36
  3
Wireframe
350
30
  3
X-Ray
350
3C
  0
XRECORD
  5
1B8
102
{ACAD_REACTORS
330
C
102
}
330
C
100
AcDbXrecord
280
     1
 90
        1
330
65
  0
DICTIONARY
  5
1B0
102
{ACAD_REACTORS
330
C
102
}
330
C
100
AcDbDictionary
281
     1
  3
CANNOSCALE
350
1B5
  3
CMLEADERSTYLE
350
1B2
  3
CTABLESTYLE
350
1B1
  3
CVIEWDETAILSTYLE
350
1B3
  3
CVIEWSECTIONSTYLE
350
1B4
  0
ACDBDETAILVIEWSTYLE
  5
6B
102
{ACAD_XDICTIONARY
360
1BB
102
}
102
{ACAD_REACTORS
330
6A
102
}
330
6A
100
AcDbModelDocViewStyle
 70
     0
  3
Imperial24
290
     0
100
AcDbDetailViewStyle
 70
     0
 71
     0
 90
        3
 71
     1
340
55
 62
   256
 40
0.24
340
0
 62
   256
 40
0.24
300

 40
0.36
280
     3
 71
     2
340
5D
 90
       25
 62
   256
 71
     3
340
55
 62
   256
 40
0.24
 90
        1
 40
0.75
 90
        1
300
%<\AcVar ViewType \f "%tc1">% %<\AcVar ViewDetailId>%\PSCALE %<\AcVar ViewScale \f "%sn">%
 71
     4
340
5D
 90
       25
 62
   256
340
5D
 90
       25
 62
   256
280
     0
  0
LAYOUT
  5
6F
102
{ACAD_REACTORS
330
62
102
}
330
62
100
AcDbPlotSettings
  1

  2

  4

  6

 40
0.0
 41
0.0
 42
0.0
 43
0.0
 44
0.0
 45
0.0
 46
0.0
 47
0.0
 48
0.0
 49
0.0
140
0.0
141
0.0
142
1.0
143
1.0
 70
   688
 72
     0
 73
     0
 74
     5
  7

 75
    16
147
1.0
 76
     0
 77
     2
 78
   300
148
0.0
149
0.0
100
AcDbLayout
  1
Layout1
 70
     1
 71
     1
 10
0.0
 20
0.0
 11
12.0
 21
9.0
 12
0.0
 22
0.0
 32
0.0
 14
0.0
 24
0.0
 34
0.0
 15
0.0
 25
0.0
 35
0.0
146
0.0
 13
0.0
 23
0.0
 33
0.0
 16
1.0
 26
0.0
 36
0.0
 17
0.0
 27
1.0
 37
0.0
 76
     0
330
6C
  0
LAYOUT
  5
77
102
{ACAD_REACTORS
330
62
102
}
330
62
100
AcDbPlotSettings
  1

  2

  4

  6

 40
0.0
 41
0.0
 42
0.0
 43
0.0
 44
0.0
 45
0.0
 46
0.0
 47
0.0
 48
0.0
 49
0.0
140
0.0
141
0.0
142
1.0
143
1.0
 70
   688
 72
     0
 73
     0
 74
     5
  7

 75
    16
147
1.0
 76
     0
 77
     2
 78
   300
148
0.0
149
0.0
100
AcDbLayout
  1
Layout2
 70
     1
 71
     2
 10
0.0
 20
0.0
 11
12.0
 21
9.0
 12
0.0
 22
0.0
 32
0.0
 14
0.0
 24
0.0
 34
0.0
 15
0.0
 25
0.0
 35
0.0
146
0.0
 13
0.0
 23
0.0
 33
0.0
 16
1.0
 26
0.0
 36
0.0
 17
0.0
 27
1.0
 37
0.0
 76
     0
330
74
  0
LAYOUT
  5
73
102
{ACAD_REACTORS
330
62
102
}
330
62
100
AcDbPlotSettings
  1

  2

  4

  6

 40
0.0
 41
0.0
 42
0.0
 43
0.0
 44
0.0
 45
0.0
 46
0.0
 47
0.0
 48
0.0
 49
0.0
140
0.0
141
0.0
142
1.0
143
1.0
 70
  1712
 72
     0
 73
     0
 74
     0
  7

 75
     0
147
1.0
 76
     0
 77
     2
 78
   300
148
0.0
149
0.0
100
AcDbLayout
  1
Model
 70
     1
 71
     0
 10
0.0
 20
0.0
 11
12.0
 21
9.0
 12
0.0
 22
0.0
 32
0.0
 14
0.0
 24
0.0
 34
0.0
 15
0.0
 25
0.0
 35
0.0
146
0.0
 13
0.0
 23
0.0
 33
0.0
 16
1.0
 26
0.0
 36
0.0
 17
0.0
 27
1.0
 37
0.0
 76
     0
330
70
  0
MATERIAL
  5
19
102
{ACAD_XDICTIONARY
360
1A
102
}
102
{ACAD_REACTORS
330
10
102
}
330
10
100
AcDbMaterial
  1
ByBlock
 72
     0
 43
0.0208333333333333
 43
0.0
 43
0.0
 43
0.0
 43
0.0
 43
0.0208333333333333
 43
0.0
 43
0.0
 43
0.0
 43
0.0
 43
1.0
 43
0.0
 43
0.0
 43
0.0
 43
0.0
 43
1.0
 77
     0
 47
0.0208333333333333
 47
0.0
 47
0.0
 47
0.0
 47
0.0
 47
0.0208333333333333
 47
0.0
 47
0.0
 47
0.0
 47
0.0
 47
1.0
 47
0.0
 47
0.0
 47
0.0
 47
0.0
 47
1.0
171
     0
 49
0.0208333333333333
 49
0.0
 49
0.0
 49
0.0
 49
0.0
 49
0.0208333333333333
 49
0.0
 49
0.0
 49
0.0
 49
0.0
 49
1.0
 49
0.0
 49
0.0
 49
0.0
 49
0.0
 49
1.0
175
     0
142
0.0208333333333333
142
0.0
142
0.0
142
0.0
142
0.0
142
0.0208333333333333
142
0.0
142
0.0
142
0.0
142
0.0
142
1.0
142
0.0
142
0.0
142
0.0
142
0.0
142
1.0
179
     0
144
0.0208333333333333
144
0.0
144
0.0
144
0.0
144
0.0
144
0.0208333333333333
144
0.0
144
0.0
144
0.0
144
0.0
144
1.0
144
0.0
144
0.0
144
0.0
144
0.0
144
1.0
147
0.0208333333333333
147
0.0
147
0.0
147
0.0
147
0.0
147
0.0208333333333333
147
0.0
147
0.0
147
0.0
147
0.0
147
1.0
147
0.0
147
0.0
147
0.0
147
0.0
147
1.0
  0
MATERIAL
  5
11
102
{ACAD_XDICTIONARY
360
12
102
}
102
{ACAD_REACTORS
330
10
102
}
330
10
100
AcDbMaterial
  1
ByLayer
 72
     0
 43
0.0208333333333333
 43
0.0
 43
0.0
 43
0.0
 43
0.0
 43
0.0208333333333333
 43
0.0
 43
0.0
 43
0.0
 43
0.0
 43
1.0
 43
0.0
 43
0.0
 43
0.0
 43
0.0
 43
1.0
 77
     0
 47
0.0208333333333333
 47
0.0
 47
0.0
 47
0.0
 47
0.0
 47
0.0208333333333333
 47
0.0
 47
0.0
 47
0.0
 47
0.0
 47
1.0
 47
0.0
 47
0.0
 47
0.0
 47
0.0
 47
1.0
171
     0
 49
0.0208333333333333
 49
0.0
 49
0.0
 49
0.0
 49
0.0
 49
0.0208333333333333
 49
0.0
 49
0.0
 49
0.0
 49
0.0
 49
1.0
 49
0.0
 49
0.0
 49
0.0
 49
0.0
 49
1.0
175
     0
142
0.0208333333333333
142
0.0
142
0.0
142
0.0
142
0.0
142
0.0208333333333333
142
0.0
142
0.0
142
0.0
142
0.0
142
1.0
142
0.0
142
0.0
142
0.0
142
0.0
142
1.0
179
     0
144
0.0208333333333333
144
0.0
144
0.0
144
0.0
144
0.0
144
0.0208333333333333
144
0.0
144
0.0
144
0.0
144
0.0
144
1.0
144
0.0
144
0.0
144
0.0
144
0.0
144
1.0
147
0.0208333333333333
147
0.0
147
0.0
147
0.0
147
0.0
147
0.0208333333333333
147
0.0
147
0.0
147
0.0
147
0.0
147
1.0
147
0.0
147
0.0
147
0.0
147
0.0
147
1.0
  0
MATERIAL
  5
21
102
{ACAD_XDICTIONARY
360
22
102
}
102
{ACAD_REACTORS
330
10
102
}
330
10
100
AcDbMaterial
  1
Global
 72
     0
 43
0.0208333333333333
 43
0.0
 43
0.0
 43
0.0
 43
0.0
 43
0.0208333333333333
 43
0.0
 43
0.0
 43
0.0
 43
0.0
 43
1.0
 43
0.0
 43
0.0
 43
0.0
 43
0.0
 43
1.0
 77
     0
 47
0.0208333333333333
 47
0.0
 47
0.0
 47
0.0
 47
0.0
 47
0.0208333333333333
 47
0.0
 47
0.0
 47
0.0
 47
0.0
 47
1.0
 47
0.0
 47
0.0
 47
0.0
 47
0.0
 47
1.0
171
     0
 49
0.0208333333333333
 49
0.0
 49
0.0
 49
0.0
 49
0.0
 49
0.0208333333333333
 49
0.0
 49
0.0
 49
0.0
 49
0.0
 49
1.0
 49
0.0
 49
0.0
 49
0.0
 49
0.0
 49
1.0
175
     0
142
0.0208333333333333
142
0.0
142
0.0
142
0.0
142
0.0
142
0.0208333333333333
142
0.0
142
0.0
142
0.0
142
0.0
142
1.0
142
0.0
142
0.0
142
0.0
142
0.0
142
1.0
179
     0
144
0.0208333333333333
144
0.0
144
0.0
144
0.0
144
0.0
144
0.0208333333333333
144
0.0
144
0.0
144
0.0
144
0.0
144
1.0
144
0.0
144
0.0
144
0.0
144
0.0
144
1.0
147
0.0208333333333333
147
0.0
147
0.0
147
0.0
147
0.0
147
0.0208333333333333
147
0.0
147
0.0
147
0.0
147
0.0
147
1.0
147
0.0
147
0.0
147
0.0
147
0.0
147
1.0
  0
MLEADERSTYLE
  5
67
102
{ACAD_REACTORS
330
66
102
}
330
66
100
AcDbMLeaderStyle
179
     2
170
     2
171
     1
172
     0
 90
        2
 40
0.0
 41
0.0
173
     1
 91
-1056964608
340
5B
 92
       -2
290
     1
 42
0.09
291
     1
 43
0.36
  3
Standard
 44
0.18
300

342
55
174
     1
178
     6
175
     1
176
     0
 93
-1056964608
 45
0.18
292
     0
297
     0
 46
0.18
 94
-1056964608
 47
1.0
 49
1.0
140
1.0
293
     1
141
0.0
294
     1
177
     0
142
1.0
295
     0
296
     0
143
0.125
271
     0
272
     9
273
     9
298
     1
  0
MLINESTYLE
  5
60
102
{ACAD_REACTORS
330
5F
102
}
330
5F
100
AcDbMlineStyle
  2
STANDARD
 70
     0
  3

 62
   256
 51
90.0
 52
90.0
 71
     2
 49
0.5
 62
   256
  6
BYLAYER
 49
-0.5
 62
   256
  6
BYLAYER
  0
ACDBPLACEHOLDER
  5
F
102
{ACAD_REACTORS
330
E
102
}
330
E
  0
SCALE
  5
43
102
{ACAD_REACTORS
330
42
102
}
330
42
100
AcDbScale
 70
     0
300
1:1
140
1.0
141
1.0
290
     1
  0
SCALE
  5
44
102
{ACAD_REACTORS
330
42
102
}
330
42
100
AcDbScale
 70
     0
300
1/128" = 1'-0"
140
0.0078125
141
12.0
290
     0
  0
SCALE
  5
45
102
{ACAD_REACTORS
330
42
102
}
330
42
100
AcDbScale
 70
     0
300
1/64" = 1'-0"
140
0.015625
141
12.0
290
     0
  0
SCALE
  5
46
102
{ACAD_REACTORS
330
42
102
}
330
42
100
AcDbScale
 70
     0
300
1/32" = 1'-0"
140
0.03125
141
12.0
290
     0
  0
SCALE
  5
47
102
{ACAD_REACTORS
330
42
102
}
330
42
100
AcDbScale
 70
     0
300
1/16" = 1'-0"
140
0.0625
141
12.0
290
     0
  0
SCALE
  5
48
102
{ACAD_REACTORS
330
42
102
}
330
42
100
AcDbScale
 70
     0
300
3/32" = 1'-0"
140
0.09375
141
12.0
290
     0
  0
SCALE
  5
49
102
{ACAD_REACTORS
330
42
102
}
330
42
100
AcDbScale
 70
     0
300
1/8" = 1'-0"
140
0.125
141
12.0
290
     0
  0
SCALE
  5
4A
102
{ACAD_REACTORS
330
42
102
}
330
42
100
AcDbScale
 70
     0
300
3/16" = 1'-0"
140
0.1875
141
12.0
290
     0
  0
SCALE
  5
4B
102
{ACAD_REACTORS
330
42
102
}
330
42
100
AcDbScale
 70
     0
300
1/4" = 1'-0"
140
0.25
141
12.0
290
     0
  0
SCALE
  5
4C
102
{ACAD_REACTORS
330
42
102
}
330
42
100
AcDbScale
 70
     0
300
3/8" = 1'-0"
140
0.375
141
12.0
290
     0
  0
SCALE
  5
4D
102
{ACAD_REACTORS
330
42
102
}
330
42
100
AcDbScale
 70
     0
300
1/2" = 1'-0"
140
0.5
141
12.0
290
     0
  0
SCALE
  5
4E
102
{ACAD_REACTORS
330
42
102
}
330
42
100
AcDbScale
 70
     0
300
3/4" = 1'-0"
140
0.75
141
12.0
290
     0
  0
SCALE
  5
4F
102
{ACAD_REACTORS
330
42
102
}
330
42
100
AcDbScale
 70
     0
300
1" = 1'-0"
140
1.0
141
12.0
290
     0
  0
SCALE
  5
50
102
{ACAD_REACTORS
330
42
102
}
330
42
100
AcDbScale
 70
     0
300
1-1/2" = 1'-0"
140
1.5
141
12.0
290
     0
  0
SCALE
  5
51
102
{ACAD_REACTORS
330
42
102
}
330
42
100
AcDbScale
 70
     0
300
3" = 1'-0"
140
3.0
141
12.0
290
     0
  0
SCALE
  5
52
102
{ACAD_REACTORS
330
42
102
}
330
42
100
AcDbScale
 70
     0
300
6" = 1'-0"
140
6.0
141
12.0
290
     0
  0
SCALE
  5
53
102
{ACAD_REACTORS
330
42
102
}
330
42
100
AcDbScale
 70
     0
300
1'-0" = 1'-0"
140
12.0
141
12.0
290
     0
  0
ACDBSECTIONVIEWSTYLE
  5
69
102
{ACAD_XDICTIONARY
360
1B9
102
}
102
{ACAD_REACTORS
330
68
102
}
330
68
100
AcDbModelDocViewStyle
 70
     0
  3
Imperial24
290
     0
100
AcDbSectionViewStyle
 70
     0
 71
     0
 90
       78
 71
     1
340
55
 62
   256
 40
0.24
340
0
340
0
 62
   256
 40
0.24
300
I, O, Q, S, X, Z
 40
0.48
 90
        3
 40
0.18
 90
        1
 71
     2
340
5D
 90
       25
 62
   256
340
5D
 90
       50
 62
   256
 40
0.24
 40
0.0
 40
0.24
 71
     3
340
55
 62
   256
 40
0.24
 90
        1
 40
0.75
 90
        1
300
%<\AcVar ViewType \f "%tc1">% %<\AcVar ViewSectionStartId>%-%<\AcVar ViewSectionEndId>%\PSCALE %<\AcVar ViewScale \f "%sn">%
 71
     4
 62
   256
 62
   257
300
ANSI31
 40
1.0
 90
        0
290
     0
290
     0
 90
        6
 40
0.0
 40
1.570796326794896
 40
0.2617993877991494
 40
1.308996938995747
 40
-0.2617993877991494
 40
1.832595714594046
  0
TABLESTYLE
  5
65
102
{ACAD_XDICTIONARY
360
1B6
102
}
102
{ACAD_REACTORS
330
64
102
}
330
64
100
AcDbTableStyle
280
     0
  3
Standard
 70
     0
 71
     0
 40
0.06
 41
0.06
280
     0
281
     0
  7
Standard
140
0.18
170
     2
 62
     0
 63
     7
283
     0
 90
      512
 91
        0
  1

274
    -2
284
     1
 64
     0
275
    -2
285
     1
 65
     0
276
    -2
286
     1
 66
     0
277
    -2
287
     1
 67
     0
278
    -2
288
     1
 68
     0
279
    -2
289
     1
 69
     0
  7
Standard
140
0.25
170
     5
 62
     0
 63
     7
283
     0
 90
      512
 91
        0
  1

274
    -2
284
     1
 64
     0
275
    -2
285
     1
 65
     0
276
    -2
286
     1
 66
     0
277
    -2
287
     1
 67
     0
278
    -2
288
     1
 68
     0
279
    -2
289
     1
 69
     0
  7
Standard
140
0.18
170
     5
 62
     0
 63
     7
283
     0
 90
      512
 91
        0
  1

274
    -2
284
     1
 64
     0
275
    -2
285
     1
 65
     0
276
    -2
286
     1
 66
     0
277
    -2
287
     1
 67
     0
278
    -2
288
     1
 68
     0
279
    -2
289
     1
 69
     0
  0
VISUALSTYLE
  5
2F
102
{ACAD_REACTORS
330
29
102
}
330
29
100
AcDbVisualStyle
  2
2dWireframe
 70
     4
177
     3
291
     0
 70
    58
 90
        0
176
     1
 90
        2
176
     1
 90
        0
176
     1
 90
        0
176
     1
 40
0.6
176
     1
 40
30.0
176
     1
 62
     7
420
 16777215
176
     1
 90
        1
176
     1
 90
        4
176
     1
 62
     7
176
     1
 62
   257
176
     1
 90
        1
176
     1
 90
        1
176
     1
 40
1.0
176
     1
 90
        0
176
     1
 62
   257
176
     1
 40
1.0
176
     1
 90
        1
176
     1
 90
        6
176
     1
 90
        2
176
     1
 62
     7
176
     1
 90
        5
176
     1
 90
        0
176
     1
 90
        0
176
     1
290
     0
176
     1
 90
        1
176
     1
 40
0.0
176
     1
 90
        0
176
     1
290
     1
176
     1
290
     1
176
     1
290
     0
176
     1
290
     0
176
     1
290
     0
176
     1
290
     0
176
     1
290
     0
176
     1
290
     0
176
     1
290
     0
176
     1
 90
       50
176
     1
 40
0.0
176
     1
 40
1.0
176
     1
 90
        0
176
     1
 62
    18
420
        0
176
     1
 90
       50
176
     1
 90
        3
176
     1
 62
     5
420
      255
176
     1
290
     0
176
     1
 90
       50
176
     1
 90
       50
176
     1
 90
       50
176
     1
290
     0
176
     1
 90
       50
176
     1
 62
   256
176
     0
 40
1.0
176
     0
 90
        2
176
     1
  1
strokes_ogs.tif
176
     1
290
     0
176
     1
 40
1.0
176
     1
 40
1.0
176
     1
1001
ACAD
1000
AcDbSavedByObjectVersion
1070
     0
  0
VISUALSTYLE
  5
2E
102
{ACAD_REACTORS
330
29
102
}
330
29
100
AcDbVisualStyle
  2
Basic
 70
     7
177
     3
291
     1
 70
    58
 90
        1
176
     1
 90
        0
176
     1
 90
        1
176
     1
 90
        0
176
     1
 40
0.6
176
     1
 40
30.0
176
     1
 62
     7
420
 16777215
176
     1
 90
        0
176
     1
 90
        4
176
     1
 62
     7
176
     1
 62
   257
176
     1
 90
        1
176
     1
 90
        1
176
     1
 40
1.0
176
     1
 90
        8
176
     1
 62
     7
176
     1
 40
1.0
176
     1
 90
        1
176
     1
 90
        6
176
     1
 90
        2
176
     1
 62
     7
176
     1
 90
        5
176
     1
 90
        0
176
     1
 90
        0
176
     1
290
     0
176
     1
 90
        1
176
     1
 40
0.0
176
     1
 90
        0
176
     1
290
     0
176
     1
290
     1
176
     1
290
     1
176
     1
290
     0
176
     1
290
     0
176
     1
290
     0
176
     1
290
     0
176
     1
290
     0
176
     1
290
     0
176
     1
 90
       50
176
     1
 40
0.0
176
     1
 40
1.0
176
     1
 90
        0
176
     1
 62
    18
420
        0
176
     1
 90
       50
176
     1
 90
        3
176
     1
 62
     5
420
      255
176
     1
290
     0
176
     1
 90
       50
176
     1
 90
       50
176
     1
 90
       50
176
     1
290
     0
176
     1
 90
       50
176
     1
 62
   256
176
     0
 40
1.0
176
     0
 90
        2
176
     1
  1
strokes_ogs.tif
176
     1
290
     0
176
     1
 40
1.0
176
     1
 40
1.0
176
     1
1001
ACAD
1000
AcDbSavedByObjectVersion
1070
     0
  0
VISUALSTYLE
  5
35
102
{ACAD_REACTORS
330
29
102
}
330
29
100
AcDbVisualStyle
  2
Brighten
 70
    12
177
     3
291
     1
 70
    58
 90
        2
176
     1
 90
        2
176
     1
 90
        0
176
     1
 90
        0
176
     1
 40
0.6
176
     1
 40
30.0
176
     1
 62
     7
420
 16777215
176
     1
 90
        1
176
     1
 90
        4
176
     1
 62
     7
176
     1
 62
   257
176
     1
 90
        1
176
     1
 90
        1
176
     1
 40
1.0
176
     1
 90
        8
176
     1
 62
     7
176
     1
 40
1.0
176
     1
 90
        1
176
     1
 90
        6
176
     1
 90
        2
176
     1
 62
     7
176
     1
 90
        5
176
     1
 90
        0
176
     1
 90
        0
176
     1
290
     0
176
     1
 90
        1
176
     1
 40
50.0
176
     1
 90
        0
176
     1
290
     0
176
     1
290
     1
176
     1
290
     1
176
     1
290
     0
176
     1
290
     0
176
     1
290
     0
176
     1
290
     0
176
     1
290
     0
176
     1
290
     0
176
     1
 90
       50
176
     1
 40
0.0
176
     1
 40
1.0
176
     1
 90
        0
176
     1
 62
    18
420
        0
176
     1
 90
       50
176
     1
 90
        3
176
     1
 62
     5
420
      255
176
     1
290
     0
176
     1
 90
       50
176
     1
 90
       50
176
     1
 90
       50
176
     1
290
     0
176
     1
 90
       50
176
     1
 62
   256
176
     0
 40
1.0
176
     0
 90
        2
176
     1
  1
strokes_ogs.tif
176
     1
290
     0
176
     1
 40
1.0
176
     1
 40
1.0
176
     1
1001
ACAD
1000
AcDbSavedByObjectVersion
1070
     0
  0
VISUALSTYLE
  5
39
102
{ACAD_REACTORS
330
29
102
}
330
29
100
AcDbVisualStyle
  2
ColorChange
 70
    16
177
     3
291
     1
 70
    58
 90
        2
176
     1
 90
        2
176
     1
 90
        3
176
     1
 90
        0
176
     1
 40
0.6
176
     1
 40
30.0
176
     1
 62
     8
420
  8421504
176
     1
 90
        1
176
     1
 90
        4
176
     1
 62
     7
176
     1
 62
   257
176
     1
 90
        1
176
     1
 90
        1
176
     1
 40
1.0
176
     1
 90
        8
176
     1
 62
     8
420
  8421504
176
     1
 40
1.0
176
     1
 90
        1
176
     1
 90
        6
176
     1
 90
        2
176
     1
 62
     7
176
     1
 90
        5
176
     1
 90
        0
176
     1
 90
        0
176
     1
290
     0
176
     1
 90
        1
176
     1
 40
0.0
176
     1
 90
        0
176
     1
290
     0
176
     1
290
     1
176
     1
290
     1
176
     1
290
     0
176
     1
290
     0
176
     1
290
     0
176
     1
290
     0
176
     1
290
     0
176
     1
290
     0
176
     1
 90
       50
176
     1
 40
0.0
176
     1
 40
1.0
176
     1
 90
        0
176
     1
 62
    18
420
        0
176
     1
 90
       50
176
     1
 90
        3
176
     1
 62
     5
420
      255
176
     1
290
     0
176
     1
 90
       50
176
     1
 90
       50
176
     1
 90
       50
176
     1
290
     0
176
     1
 90
       50
176
     1
 62
   256
176
     0
 40
1.0
176
     0
 90
        2
176
     1
  1
strokes_ogs.tif
176
     1
290
     0
176
     1
 40
1.0
176
     1
 40
1.0
176
     1
1001
ACAD
1000
AcDbSavedByObjectVersion
1070
     0
  0
VISUALSTYLE
  5
32
102
{ACAD_REACTORS
330
29
102
}
330
29
100
AcDbVisualStyle
  2
Conceptual
 70
     9
177
     3
291
     0
 70
    58
 90
        3
176
     1
 90
        2
176
     1
 90
        0
176
     1
 90
        0
176
     1
 40
0.6
176
     1
 40
30.0
176
     1
 62
     7
420
 16777215
176
     1
 90
        2
176
     1
 90
        2
176
     1
 62
     7
176
     1
 62
   257
176
     1
 90
        1
176
     1
 90
        1
176
     1
 40
179.0
176
     1
 90
        8
176
     1
 62
     7
176
     1
 40
1.0
176
     1
 90
        1
176
     1
 90
        6
176
     1
 90
        2
176
     1
 62
     7
176
     1
 90
        3
176
     1
 90
        0
176
     1
 90
        0
176
     1
290
     0
176
     1
 90
        1
176
     1
 40
0.0
176
     1
 90
        0
176
     1
290
     0
176
     1
290
     1
176
     1
290
     1
176
     1
290
     0
176
     1
290
     0
176
     1
290
     0
176
     1
290
     0
176
     1
290
     0
176
     1
290
     0
176
     1
 90
       50
176
     1
 40
0.0
176
     1
 40
1.0
176
     1
 90
        0
176
     1
 62
    18
420
        0
176
     1
 90
       50
176
     1
 90
        3
176
     1
 62
     5
420
      255
176
     1
290
     0
176
     1
 90
       50
176
     1
 90
       50
176
     1
 90
       50
176
     1
290
     0
176
     1
 90
       50
176
     1
 62
   256
176
     0
 40
1.0
176
     0
 90
        2
176
     1
  1
strokes_ogs.tif
176
     1
290
     0
176
     1
 40
1.0
176
     1
 40
1.0
176
     1
1001
ACAD
1000
AcDbSavedByObjectVersion
1070
     0
  0
VISUALSTYLE
  5
34
102
{ACAD_REACTORS
330
29
102
}
330
29
100
AcDbVisualStyle
  2
Dim
 70
    11
177
     3
291
     1
 70
    58
 90
        2
176
     1
 90
        2
176
     1
 90
        0
176
     1
 90
        0
176
     1
 40
0.6
176
     1
 40
30.0
176
     1
 62
     7
420
 16777215
176
     1
 90
        1
176
     1
 90
        4
176
     1
 62
     7
176
     1
 62
   257
176
     1
 90
        1
176
     1
 90
        1
176
     1
 40
1.0
176
     1
 90
        8
176
     1
 62
     7
176
     1
 40
1.0
176
     1
 90
        1
176
     1
 90
        6
176
     1
 90
        2
176
     1
 62
     7
176
     1
 90
        5
176
     1
 90
        0
176
     1
 90
        0
176
     1
290
     0
176
     1
 90
        1
176
     1
 40
-50.0
176
     1
 90
        0
176
     1
290
     0
176
     1
290
     1
176
     1
290
     1
176
     1
290
     0
176
     1
290
     0
176
     1
290
     0
176
     1
290
     0
176
     1
290
     0
176
     1
290
     0
176
     1
 90
       50
176
     1
 40
0.0
176
     1
 40
1.0
176
     1
 90
        0
176
     1
 62
    18
420
        0
176
     1
 90
       50
176
     1
 90
        3
176
     1
 62
     5
420
      255
176
     1
290
     0
176
     1
 90
       50
176
     1
 90
       50
176
     1
 90
       50
176
     1
290
     0
176
     1
 90
       50
176
     1
 62
   256
176
     0
 40
1.0
176
     0
 90
        2
176
     1
  1
strokes_ogs.tif
176
     1
290
     0
176
     1
 40
1.0
176
     1
 40
1.0
176
     1
1001
ACAD
1000
AcDbSavedByObjectVersion
1070
     0
  0
VISUALSTYLE
  5
41
102
{ACAD_REACTORS
330
29
102
}
330
29
100
AcDbVisualStyle
  2
EdgeColorOff
 70
    22
177
     3
291
     1
 70
    58
 90
        2
176
     0
 90
        2
176
     0
 90
        0
176
     0
 90
        0
176
     0
 40
0.6
176
     0
 40
30.0
176
     0
 62
     7
420
 16777215
176
     0
 90
        1
176
     0
 90
        4
176
     0
 62
     7
176
     0
 62
   257
176
     0
 90
        1
176
     0
 90
        1
176
     0
 40
1.0
176
     0
 90
        8
176
     2
 62
     7
176
     0
 40
1.0
176
     0
 90
        1
176
     0
 90
        6
176
     0
 90
        2
176
     0
 62
     7
176
     0
 90
        5
176
     0
 90
        0
176
     0
 90
        0
176
     0
290
     0
176
     0
 90
        1
176
     0
 40
0.0
176
     0
 90
        0
176
     0
290
     0
176
     0
290
     1
176
     0
290
     1
176
     0
290
     0
176
     0
290
     0
176
     0
290
     0
176
     0
290
     0
176
     0
290
     0
176
     0
290
     0
176
     0
 90
       50
176
     0
 40
0.0
176
     0
 40
1.0
176
     0
 90
        0
176
     0
 62
    18
420
        0
176
     0
 90
       50
176
     0
 90
        3
176
     0
 62
     5
420
      255
176
     0
290
     0
176
     0
 90
       50
176
     0
 90
       50
176
     0
 90
       50
176
     0
290
     0
176
     0
 90
       50
176
     0
 62
   256
176
     0
 40
1.0
176
     0
 90
        2
176
     0
  1
strokes_ogs.tif
176
     0
290
     0
176
     0
 40
1.0
176
     0
 40
1.0
176
     0
1001
ACAD
1000
AcDbSavedByObjectVersion
1070
     0
  0
VISUALSTYLE
  5
38
102
{ACAD_REACTORS
330
29
102
}
330
29
100
AcDbVisualStyle
  2
Facepattern
 70
    15
177
     3
291
     1
 70
    58
 90
        2
176
     1
 90
        2
176
     1
 90
        0
176
     1
 90
        0
176
     1
 40
0.6
176
     1
 40
30.0
176
     1
 62
     7
420
 16777215
176
     1
 90
        1
176
     1
 90
        4
176
     1
 62
     7
176
     1
 62
   257
176
     1
 90
        1
176
     1
 90
        1
176
     1
 40
1.0
176
     1
 90
        8
176
     1
 62
     7
176
     1
 40
1.0
176
     1
 90
        1
176
     1
 90
        6
176
     1
 90
        2
176
     1
 62
     7
176
     1
 90
        5
176
     1
 90
        0
176
     1
 90
        0
176
     1
290
     0
176
     1
 90
        1
176
     1
 40
0.0
176
     1
 90
        0
176
     1
290
     0
176
     1
290
     1
176
     1
290
     1
176
     1
290
     0
176
     1
290
     0
176
     1
290
     0
176
     1
290
     0
176
     1
290
     0
176
     1
290
     0
176
     1
 90
       50
176
     1
 40
0.0
176
     1
 40
1.0
176
     1
 90
        0
176
     1
 62
    18
420
        0
176
     1
 90
       50
176
     1
 90
        3
176
     1
 62
     5
420
      255
176
     1
290
     0
176
     1
 90
       50
176
     1
 90
       50
176
     1
 90
       50
176
     1
290
     0
176
     1
 90
       50
176
     1
 62
   256
176
     0
 40
1.0
176
     0
 90
        2
176
     1
  1
strokes_ogs.tif
176
     1
290
     0
176
     1
 40
1.0
176
     1
 40
1.0
176
     1
1001
ACAD
1000
AcDbSavedByObjectVersion
1070
     0
  0
VISUALSTYLE
  5
2A
102
{ACAD_REACTORS
330
29
102
}
330
29
100
AcDbVisualStyle
  2
Flat
 70
     0
177
     3
291
     1
 70
    58
 90
        2
176
     1
 90
        1
176
     1
 90
        1
176
     1
 90
        2
176
     1
 40
0.6
176
     1
 40
30.0
176
     1
 62
     7
420
 16777215
176
     1
 90
        0
176
     1
 90
        0
176
     1
 62
     7
176
     1
 62
   257
176
     1
 90
        1
176
     1
 90
        1
176
     1
 40
1.0
176
     1
 90
        8
176
     1
 62
     7
176
     1
 40
1.0
176
     1
 90
        1
176
     1
 90
        6
176
     1
 90
        2
176
     1
 62
     7
176
     1
 90
        5
176
     1
 90
        0
176
     1
 90
        0
176
     1
290
     0
176
     1
 90
       13
176
     1
 40
0.0
176
     1
 90
        0
176
     1
290
     0
176
     1
290
     1
176
     1
290
     1
176
     1
290
     0
176
     1
290
     0
176
     1
290
     0
176
     1
290
     0
176
     1
290
     0
176
     1
290
     0
176
     1
 90
       50
176
     1
 40
0.0
176
     1
 40
1.0
176
     1
 90
        0
176
     1
 62
    18
420
        0
176
     1
 90
       50
176
     1
 90
        3
176
     1
 62
     5
420
      255
176
     1
290
     0
176
     1
 90
       50
176
     1
 90
       50
176
     1
 90
       50
176
     1
290
     0
176
     1
 90
       50
176
     1
 62
   256
176
     0
 40
1.0
176
     0
 90
        2
176
     1
  1
strokes_ogs.tif
176
     1
290
     0
176
     1
 40
1.0
176
     1
 40
1.0
176
     1
1001
ACAD
1000
AcDbSavedByObjectVersion
1070
     0
  0
VISUALSTYLE
  5
2B
102
{ACAD_REACTORS
330
29
102
}
330
29
100
AcDbVisualStyle
  2
FlatWithEdges
 70
     1
177
     3
291
     1
 70
    58
 90
        2
176
     1
 90
        1
176
     1
 90
        1
176
     1
 90
        2
176
     1
 40
0.6
176
     1
 40
30.0
176
     1
 62
     7
420
 16777215
176
     1
 90
        1
176
     1
 90
        0
176
     1
 62
     7
176
     1
 62
   257
176
     1
 90
        1
176
     1
 90
        1
176
     1
 40
1.0
176
     1
 90
        0
176
     1
 62
   257
176
     1
 40
1.0
176
     1
 90
        1
176
     1
 90
        6
176
     1
 90
        2
176
     1
 62
     7
176
     1
 90
        5
176
     1
 90
        0
176
     1
 90
        0
176
     1
290
     0
176
     1
 90
       13
176
     1
 40
0.0
176
     1
 90
        0
176
     1
290
     0
176
     1
290
     1
176
     1
290
     1
176
     1
290
     0
176
     1
290
     0
176
     1
290
     0
176
     1
290
     0
176
     1
290
     0
176
     1
290
     0
176
     1
 90
       50
176
     1
 40
0.0
176
     1
 40
1.0
176
     1
 90
        0
176
     1
 62
    18
420
        0
176
     1
 90
       50
176
     1
 90
        3
176
     1
 62
     5
420
      255
176
     1
290
     0
176
     1
 90
       50
176
     1
 90
       50
176
     1
 90
       50
176
     1
290
     0
176
     1
 90
       50
176
     1
 62
   256
176
     0
 40
1.0
176
     0
 90
        2
176
     1
  1
strokes_ogs.tif
176
     1
290
     0
176
     1
 40
1.0
176
     1
 40
1.0
176
     1
1001
ACAD
1000
AcDbSavedByObjectVersion
1070
     0
  0
VISUALSTYLE
  5
2C
102
{ACAD_REACTORS
330
29
102
}
330
29
100
AcDbVisualStyle
  2
Gouraud
 70
     2
177
     3
291
     1
 70
    58
 90
        2
176
     1
 90
        2
176
     1
 90
        1
176
     1
 90
        2
176
     1
 40
0.6
176
     1
 40
30.0
176
     1
 62
     7
420
 16777215
176
     1
 90
        0
176
     1
 90
        0
176
     1
 62
     7
176
     1
 62
   257
176
     1
 90
        1
176
     1
 90
        1
176
     1
 40
1.0
176
     1
 90
        0
176
     1
 62
     7
176
     1
 40
1.0
176
     1
 90
        1
176
     1
 90
        6
176
     1
 90
        2
176
     1
 62
     7
176
     1
 90
        5
176
     1
 90
        0
176
     1
 90
        0
176
     1
290
     0
176
     1
 90
       13
176
     1
 40
0.0
176
     1
 90
        0
176
     1
290
     0
176
     1
290
     1
176
     1
290
     1
176
     1
290
     0
176
     1
290
     0
176
     1
290
     0
176
     1
290
     0
176
     1
290
     0
176
     1
290
     0
176
     1
 90
       50
176
     1
 40
0.0
176
     1
 40
1.0
176
     1
 90
        0
176
     1
 62
    18
420
        0
176
     1
 90
       50
176
     1
 90
        3
176
     1
 62
     5
420
      255
176
     1
290
     0
176
     1
 90
       50
176
     1
 90
       50
176
     1
 90
       50
176
     1
290
     0
176
     1
 90
       50
176
     1
 62
   256
176
     0
 40
1.0
176
     0
 90
        2
176
     1
  1
strokes_ogs.tif
176
     1
290
     0
176
     1
 40
1.0
176
     1
 40
1.0
176
     1
1001
ACAD
1000
AcDbSavedByObjectVersion
1070
     0
  0
VISUALSTYLE
  5
2D
102
{ACAD_REACTORS
330
29
102
}
330
29
100
AcDbVisualStyle
  2
GouraudWithEdges
 70
     3
177
     3
291
     1
 70
    58
 90
        2
176
     1
 90
        2
176
     1
 90
        1
176
     1
 90
        2
176
     1
 40
0.6
176
     1
 40
30.0
176
     1
 62
     7
420
 16777215
176
     1
 90
        1
176
     1
 90
        0
176
     1
 62
     7
176
     1
 62
   257
176
     1
 90
        1
176
     1
 90
        1
176
     1
 40
1.0
176
     1
 90
        0
176
     1
 62
   257
176
     1
 40
1.0
176
     1
 90
        1
176
     1
 90
        6
176
     1
 90
        2
176
     1
 62
     7
176
     1
 90
        5
176
     1
 90
        0
176
     1
 90
        0
176
     1
290
     0
176
     1
 90
       13
176
     1
 40
0.0
176
     1
 90
        0
176
     1
290
     0
176
     1
290
     1
176
     1
290
     1
176
     1
290
     0
176
     1
290
     0
176
     1
290
     0
176
     1
290
     0
176
     1
290
     0
176
     1
290
     0
176
     1
 90
       50
176
     1
 40
0.0
176
     1
 40
1.0
176
     1
 90
        0
176
     1
 62
    18
420
        0
176
     1
 90
       50
176
     1
 90
        3
176
     1
 62
     5
420
      255
176
     1
290
     0
176
     1
 90
       50
176
     1
 90
       50
176
     1
 90
       50
176
     1
290
     0
176
     1
 90
       50
176
     1
 62
   256
176
     0
 40
1.0
176
     0
 90
        2
176
     1
  1
strokes_ogs.tif
176
     1
290
     0
176
     1
 40
1.0
176
     1
 40
1.0
176
     1
1001
ACAD
1000
AcDbSavedByObjectVersion
1070
     0
  0
VISUALSTYLE
  5
31
102
{ACAD_REACTORS
330
29
102
}
330
29
100
AcDbVisualStyle
  2
Hidden
 70
     6
177
     3
291
     0
 70
    58
 90
        1
176
     1
 90
        2
176
     1
 90
        2
176
     1
 90
        0
176
     1
 40
0.6
176
     1
 40
30.0
176
     1
 62
     7
420
 16777215
176
     1
 90
        2
176
     1
 90
        2
176
     1
 62
     7
176
     1
 62
   257
176
     1
 90
        2
176
     1
 90
        1
176
     1
 40
40.0
176
     1
 90
        0
176
     1
 62
   257
176
     1
 40
1.0
176
     1
 90
        1
176
     1
 90
        6
176
     1
 90
        2
176
     1
 62
     7
176
     1
 90
        3
176
     1
 90
        0
176
     1
 90
        0
176
     1
290
     0
176
     1
 90
        1
176
     1
 40
0.0
176
     1
 90
        0
176
     1
290
     0
176
     1
290
     1
176
     1
290
     1
176
     1
290
     0
176
     1
290
     0
176
     1
290
     0
176
     1
290
     0
176
     1
290
     0
176
     1
290
     0
176
     1
 90
       50
176
     1
 40
0.0
176
     1
 40
1.0
176
     1
 90
        0
176
     1
 62
    18
420
        0
176
     1
 90
       50
176
     1
 90
        3
176
     1
 62
     5
420
      255
176
     1
290
     0
176
     1
 90
       50
176
     1
 90
       50
176
     1
 90
       50
176
     1
290
     0
176
     1
 90
       50
176
     1
 62
   256
176
     0
 40
1.0
176
     0
 90
        2
176
     1
  1
strokes_ogs.tif
176
     1
290
     0
176
     1
 40
1.0
176
     1
 40
1.0
176
     1
1001
ACAD
1000
AcDbSavedByObjectVersion
1070
     0
  0
VISUALSTYLE
  5
3F
102
{ACAD_REACTORS
330
29
102
}
330
29
100
AcDbVisualStyle
  2
JitterOff
 70
    20
177
     3
291
     1
 70
    58
 90
        2
176
     0
 90
        2
176
     0
 90
        0
176
     0
 90
        0
176
     0
 40
0.6
176
     0
 40
30.0
176
     0
 62
     7
420
 16777215
176
     0
 90
        1
176
     0
 90
        4
176
     0
 62
     7
176
     0
 62
   257
176
     0
 90
        1
176
     0
 90
        1
176
     0
 40
1.0
176
     0
 90
       10
176
     2
 62
     7
176
     0
 40
1.0
176
     0
 90
        1
176
     0
 90
        6
176
     0
 90
        2
176
     0
 62
     7
176
     0
 90
        5
176
     0
 90
        0
176
     0
 90
        0
176
     0
290
     0
176
     0
 90
        1
176
     0
 40
0.0
176
     0
 90
        0
176
     0
290
     0
176
     0
290
     1
176
     0
290
     1
176
     0
290
     0
176
     0
290
     0
176
     0
290
     0
176
     0
290
     0
176
     0
290
     0
176
     0
290
     0
176
     0
 90
       50
176
     0
 40
0.0
176
     0
 40
1.0
176
     0
 90
        0
176
     0
 62
    18
420
        0
176
     0
 90
       50
176
     0
 90
        3
176
     0
 62
     5
420
      255
176
     0
290
     0
176
     0
 90
       50
176
     0
 90
       50
176
     0
 90
       50
176
     0
290
     0
176
     0
 90
       50
176
     0
 62
   256
176
     0
 40
1.0
176
     0
 90
        2
176
     0
  1
strokes_ogs.tif
176
     0
290
     0
176
     0
 40
1.0
176
     0
 40
1.0
176
     0
1001
ACAD
1000
AcDbSavedByObjectVersion
1070
     0
  0
VISUALSTYLE
  5
37
102
{ACAD_REACTORS
330
29
102
}
330
29
100
AcDbVisualStyle
  2
Linepattern
 70
    14
177
     3
291
     1
 70
    58
 90
        2
176
     1
 90
        2
176
     1
 90
        0
176
     1
 90
        0
176
     1
 40
0.6
176
     1
 40
30.0
176
     1
 62
     7
420
 16777215
176
     1
 90
        1
176
     1
 90
        4
176
     1
 62
     7
176
     1
 62
   257
176
     1
 90
        7
176
     1
 90
        7
176
     1
 40
1.0
176
     1
 90
        8
176
     1
 62
     7
176
     1
 40
1.0
176
     1
 90
        1
176
     1
 90
        6
176
     1
 90
        2
176
     1
 62
     7
176
     1
 90
        5
176
     1
 90
        0
176
     1
 90
        0
176
     1
290
     0
176
     1
 90
        1
176
     1
 40
0.0
176
     1
 90
        0
176
     1
290
     0
176
     1
290
     1
176
     1
290
     1
176
     1
290
     0
176
     1
290
     0
176
     1
290
     0
176
     1
290
     0
176
     1
290
     0
176
     1
290
     0
176
     1
 90
       50
176
     1
 40
0.0
176
     1
 40
1.0
176
     1
 90
        0
176
     1
 62
    18
420
        0
176
     1
 90
       50
176
     1
 90
        3
176
     1
 62
     5
420
      255
176
     1
290
     0
176
     1
 90
       50
176
     1
 90
       50
176
     1
 90
       50
176
     1
290
     0
176
     1
 90
       50
176
     1
 62
   256
176
     0
 40
1.0
176
     0
 90
        2
176
     1
  1
strokes_ogs.tif
176
     1
290
     0
176
     1
 40
1.0
176
     1
 40
1.0
176
     1
1001
ACAD
1000
AcDbSavedByObjectVersion
1070
     0
  0
VISUALSTYLE
  5
40
102
{ACAD_REACTORS
330
29
102
}
330
29
100
AcDbVisualStyle
  2
OverhangOff
 70
    21
177
     3
291
     1
 70
    58
 90
        2
176
     0
 90
        2
176
     0
 90
        0
176
     0
 90
        0
176
     0
 40
0.6
176
     0
 40
30.0
176
     0
 62
     7
420
 16777215
176
     0
 90
        1
176
     0
 90
        4
176
     0
 62
     7
176
     0
 62
   257
176
     0
 90
        1
176
     0
 90
        1
176
     0
 40
1.0
176
     0
 90
        9
176
     2
 62
     7
176
     0
 40
1.0
176
     0
 90
        1
176
     0
 90
        6
176
     0
 90
        2
176
     0
 62
     7
176
     0
 90
        5
176
     0
 90
        0
176
     0
 90
        0
176
     0
290
     0
176
     0
 90
        1
176
     0
 40
0.0
176
     0
 90
        0
176
     0
290
     0
176
     0
290
     1
176
     0
290
     1
176
     0
290
     0
176
     0
290
     0
176
     0
290
     0
176
     0
290
     0
176
     0
290
     0
176
     0
290
     0
176
     0
 90
       50
176
     0
 40
0.0
176
     0
 40
1.0
176
     0
 90
        0
176
     0
 62
    18
420
        0
176
     0
 90
       50
176
     0
 90
        3
176
     0
 62
     5
420
      255
176
     0
290
     0
176
     0
 90
       50
176
     0
 90
       50
176
     0
 90
       50
176
     0
290
     0
176
     0
 90
       50
176
     0
 62
   256
176
     0
 40
1.0
176
     0
 90
        2
176
     0
  1
strokes_ogs.tif
176
     0
290
     0
176
     0
 40
1.0
176
     0
 40
1.0
176
     0
1001
ACAD
1000
AcDbSavedByObjectVersion
1070
     0
  0
VISUALSTYLE
  5
33
102
{ACAD_REACTORS
330
29
102
}
330
29
100
AcDbVisualStyle
  2
Realistic
 70
     8
177
     3
291
     0
 70
    58
 90
        2
176
     1
 90
        3
176
     1
 90
        0
176
     1
 90
        2
176
     1
 40
0.6
176
     1
 40
30.0
176
     1
 62
     7
420
 16777215
176
     1
 90
        0
176
     1
 90
        0
176
     1
 62
     7
176
     1
 62
   257
176
     1
 90
        1
176
     1
 90
        1
176
     1
 40
1.0
176
     1
 90
        8
176
     1
 62
   257
176
     1
 40
1.0
176
     1
 90
        1
176
     1
 90
        6
176
     1
 90
        2
176
     1
 62
     7
176
     1
 90
        3
176
     1
 90
        0
176
     1
 90
        0
176
     1
290
     0
176
     1
 90
       13
176
     1
 40
0.0
176
     1
 90
        0
176
     1
290
     0
176
     1
290
     1
176
     1
290
     1
176
     1
290
     0
176
     1
290
     0
176
     1
290
     0
176
     1
290
     0
176
     1
290
     0
176
     1
290
     0
176
     1
 90
       50
176
     1
 40
0.0
176
     1
 40
1.0
176
     1
 90
        0
176
     1
 62
    18
420
        0
176
     1
 90
       50
176
     1
 90
        3
176
     1
 62
     5
420
      255
176
     1
290
     0
176
     1
 90
       50
176
     1
 90
       50
176
     1
 90
       50
176
     1
290
     0
176
     1
 90
       50
176
     1
 62
   256
176
     0
 40
1.0
176
     0
 90
        2
176
     1
  1
strokes_ogs.tif
176
     1
290
     0
176
     1
 40
1.0
176
     1
 40
1.0
176
     1
1001
ACAD
1000
AcDbSavedByObjectVersion
1070
     0
  0
VISUALSTYLE
  5
3E
102
{ACAD_REACTORS
330
29
102
}
330
29
100
AcDbVisualStyle
  2
Shaded
 70
    27
177
     3
291
     0
 70
    58
 90
        2
176
     1
 90
        2
176
     1
 90
        1
176
     1
 90
        2
176
     1
 40
0.6
176
     1
 40
30.0
176
     1
 62
     7
420
 16777215
176
     1
 90
        0
176
     1
 90
        4
176
     1
 62
     7
176
     1
 62
   257
176
     1
 90
        1
176
     1
 90
        1
176
     1
 40
1.0
176
     1
 90
        8
176
     1
 62
   257
176
     1
 40
1.0
176
     1
 90
        1
176
     1
 90
        6
176
     1
 90
        2
176
     1
 62
     8
420
  7895160
176
     1
 90
        3
176
     1
 90
        0
176
     1
 90
        0
176
     1
290
     0
176
     1
 90
        5
176
     1
 40
0.0
176
     1
 90
        0
176
     1
290
     0
176
     1
290
     1
176
     1
290
     1
176
     1
290
     0
176
     1
290
     0
176
     1
290
     0
176
     1
290
     0
176
     1
290
     0
176
     1
290
     0
176
     1
 90
       50
176
     1
 40
0.0
176
     1
 40
1.0
176
     1
 90
        0
176
     1
 62
    18
420
        0
176
     1
 90
       50
176
     1
 90
        3
176
     1
 62
     5
420
      255
176
     1
290
     0
176
     1
 90
       50
176
     1
 90
       50
176
     1
 90
       50
176
     1
290
     0
176
     1
 90
       50
176
     1
 62
   256
176
     0
 40
1.0
176
     0
 90
        2
176
     1
  1
strokes_ogs.tif
176
     1
290
     0
176
     1
 40
1.0
176
     1
 40
1.0
176
     1
1001
ACAD
1000
AcDbSavedByObjectVersion
1070
     0
  0
VISUALSTYLE
  5
3D
102
{ACAD_REACTORS
330
29
102
}
330
29
100
AcDbVisualStyle
  2
Shaded with edges
 70
    26
177
     3
291
     0
 70
    58
 90
        2
176
     1
 90
        2
176
     1
 90
        1
176
     1
 90
        2
176
     1
 40
0.6
176
     1
 40
30.0
176
     1
 62
     7
420
 16777215
176
     1
 90
        1
176
     1
 90
        2
176
     1
 62
     7
176
     1
 62
   257
176
     1
 90
        2
176
     1
 90
        1
176
     1
 40
1.0
176
     1
 90
        8
176
     1
 62
   257
176
     1
 40
1.0
176
     1
 90
        1
176
     1
 90
        6
176
     1
 90
        2
176
     1
 62
     7
176
     1
 90
        3
176
     1
 90
        0
176
     1
 90
        0
176
     1
290
     0
176
     1
 90
        5
176
     1
 40
0.0
176
     1
 90
        0
176
     1
290
     0
176
     1
290
     1
176
     1
290
     1
176
     1
290
     0
176
     1
290
     0
176
     1
290
     0
176
     1
290
     0
176
     1
290
     0
176
     1
290
     0
176
     1
 90
       50
176
     1
 40
0.0
176
     1
 40
1.0
176
     1
 90
        0
176
     1
 62
    18
420
        0
176
     1
 90
       50
176
     1
 90
        3
176
     1
 62
     5
420
      255
176
     1
290
     0
176
     1
 90
       50
176
     1
 90
       50
176
     1
 90
       50
176
     1
290
     0
176
     1
 90
       50
176
     1
 62
   256
176
     0
 40
1.0
176
     0
 90
        2
176
     1
  1
strokes_ogs.tif
176
     1
290
     0
176
     1
 40
1.0
176
     1
 40
1.0
176
     1
1001
ACAD
1000
AcDbSavedByObjectVersion
1070
     0
  0
VISUALSTYLE
  5
3A
102
{ACAD_REACTORS
330
29
102
}
330
29
100
AcDbVisualStyle
  2
Shades of Gray
 70
    23
177
     3
291
     0
 70
    58
 90
        2
176
     1
 90
        2
176
     1
 90
        3
176
     1
 90
        0
176
     1
 40
0.6
176
     1
 40
30.0
176
     1
 62
     7
420
 16777215
176
     1
 90
        2
176
     1
 90
        2
176
     1
 62
     7
176
     1
 62
     7
176
     1
 90
        1
176
     1
 90
        1
176
     1
 40
40.0
176
     1
 90
        8
176
     1
 62
     7
176
     1
 40
1.0
176
     1
 90
        1
176
     1
 90
        6
176
     1
 90
        2
176
     1
 62
     7
176
     1
 90
        3
176
     1
 90
        0
176
     1
 90
        0
176
     1
290
     0
176
     1
 90
        1
176
     1
 40
0.0
176
     1
 90
        0
176
     1
290
     0
176
     1
290
     1
176
     1
290
     1
176
     1
290
     0
176
     1
290
     0
176
     1
290
     0
176
     1
290
     0
176
     1
290
     0
176
     1
290
     0
176
     1
 90
       50
176
     1
 40
0.0
176
     1
 40
1.0
176
     1
 90
        0
176
     1
 62
    18
420
        0
176
     1
 90
       50
176
     1
 90
        3
176
     1
 62
     5
420
      255
176
     1
290
     0
176
     1
 90
       50
176
     1
 90
       50
176
     1
 90
       50
176
     1
290
     0
176
     1
 90
       50
176
     1
 62
   256
176
     0
 40
1.0
176
     0
 90
        2
176
     1
  1
strokes_ogs.tif
176
     1
290
     0
176
     1
 40
1.0
176
     1
 40
1.0
176
     1
1001
ACAD
1000
AcDbSavedByObjectVersion
1070
     0
  0
VISUALSTYLE
  5
3B
102
{ACAD_REACTORS
330
29
102
}
330
29
100
AcDbVisualStyle
  2
Sketchy
 70
    24
177
     3
291
     0
 70
    58
 90
        1
176
     1
 90
        2
176
     1
 90
        2
176
     1
 90
        0
176
     1
 40
0.6
176
     1
 40
30.0
176
     1
 62
     7
420
 16777215
176
     1
 90
        2
176
     1
 90
        2
176
     1
 62
     7
176
     1
 62
     7
176
     1
 90
        1
176
     1
 90
        1
176
     1
 40
40.0
176
     1
 90
       11
176
     1
 62
     7
176
     1
 40
1.0
176
     1
 90
        1
176
     1
 90
        6
176
     1
 90
        2
176
     1
 62
     7
176
     1
 90
        6
176
     1
 90
        0
176
     1
 90
        0
176
     1
290
     0
176
     1
 90
        1
176
     1
 40
0.0
176
     1
 90
        0
176
     1
290
     0
176
     1
290
     1
176
     1
290
     1
176
     1
290
     0
176
     1
290
     0
176
     1
290
     0
176
     1
290
     0
176
     1
290
     0
176
     1
290
     0
176
     1
 90
       50
176
     1
 40
0.0
176
     1
 40
1.0
176
     1
 90
        0
176
     1
 62
    18
420
        0
176
     1
 90
       50
176
     1
 90
        3
176
     1
 62
     5
420
      255
176
     1
290
     0
176
     1
 90
       50
176
     1
 90
       50
176
     1
 90
       50
176
     1
290
     0
176
     1
 90
       50
176
     1
 62
   256
176
     0
 40
1.0
176
     0
 90
        2
176
     1
  1
strokes_ogs.tif
176
     1
290
     0
176
     1
 40
1.0
176
     1
 40
1.0
176
     1
1001
ACAD
1000
AcDbSavedByObjectVersion
1070
     0
  0
VISUALSTYLE
  5
36
102
{ACAD_REACTORS
330
29
102
}
330
29
100
AcDbVisualStyle
  2
Thicken
 70
    13
177
     3
291
     1
 70
    58
 90
        2
176
     1
 90
        2
176
     1
 90
        0
176
     1
 90
        0
176
     1
 40
0.6
176
     1
 40
30.0
176
     1
 62
     7
420
 16777215
176
     1
 90
        1
176
     1
 90
        4
176
     1
 62
     7
176
     1
 62
   257
176
     1
 90
        1
176
     1
 90
        1
176
     1
 40
1.0
176
     1
 90
       12
176
     1
 62
     7
176
     1
 40
1.0
176
     1
 90
        1
176
     1
 90
        6
176
     1
 90
        2
176
     1
 62
     7
176
     1
 90
        5
176
     1
 90
        0
176
     1
 90
        0
176
     1
290
     0
176
     1
 90
        1
176
     1
 40
0.0
176
     1
 90
        0
176
     1
290
     0
176
     1
290
     1
176
     1
290
     1
176
     1
290
     0
176
     1
290
     0
176
     1
290
     0
176
     1
290
     0
176
     1
290
     0
176
     1
290
     0
176
     1
 90
       50
176
     1
 40
0.0
176
     1
 40
1.0
176
     1
 90
        0
176
     1
 62
    18
420
        0
176
     1
 90
       50
176
     1
 90
        3
176
     1
 62
     5
420
      255
176
     1
290
     0
176
     1
 90
       50
176
     1
 90
       50
176
     1
 90
       50
176
     1
290
     0
176
     1
 90
       50
176
     1
 62
   256
176
     0
 40
1.0
176
     0
 90
        2
176
     1
  1
strokes_ogs.tif
176
     1
290
     0
176
     1
 40
1.0
176
     1
 40
1.0
176
     1
1001
ACAD
1000
AcDbSavedByObjectVersion
1070
     0
  0
VISUALSTYLE
  5
30
102
{ACAD_REACTORS
330
29
102
}
330
29
100
AcDbVisualStyle
  2
Wireframe
 70
     5
177
     3
291
     0
 70
    58
 90
        0
176
     1
 90
        2
176
     1
 90
        0
176
     1
 90
        0
176
     1
 40
0.6
176
     1
 40
30.0
176
     1
 62
     7
420
 16777215
176
     1
 90
        1
176
     1
 90
        4
176
     1
 62
     7
176
     1
 62
   257
176
     1
 90
        1
176
     1
 90
        1
176
     1
 40
1.0
176
     1
 90
        0
176
     1
 62
   257
176
     1
 40
1.0
176
     1
 90
        1
176
     1
 90
        6
176
     1
 90
        2
176
     1
 62
     7
176
     1
 90
        3
176
     1
 90
        0
176
     1
 90
        0
176
     1
290
     0
176
     1
 90
        1
176
     1
 40
0.0
176
     1
 90
        0
176
     1
290
     0
176
     1
290
     1
176
     1
290
     1
176
     1
290
     0
176
     1
290
     0
176
     1
290
     0
176
     1
290
     0
176
     1
290
     0
176
     1
290
     0
176
     1
 90
       50
176
     1
 40
0.0
176
     1
 40
1.0
176
     1
 90
        0
176
     1
 62
    18
420
        0
176
     1
 90
       50
176
     1
 90
        3
176
     1
 62
     5
420
      255
176
     1
290
     0
176
     1
 90
       50
176
     1
 90
       50
176
     1
 90
       50
176
     1
290
     0
176
     1
 90
       50
176
     1
 62
   256
176
     0
 40
1.0
176
     0
 90
        2
176
     1
  1
strokes_ogs.tif
176
     1
290
     0
176
     1
 40
1.0
176
     1
 40
1.0
176
     1
1001
ACAD
1000
AcDbSavedByObjectVersion
1070
     0
  0
VISUALSTYLE
  5
3C
102
{ACAD_REACTORS
330
29
102
}
330
29
100
AcDbVisualStyle
  2
X-Ray
 70
    25
177
     3
291
     0
 70
    58
 90
        2
176
     1
 90
        2
176
     1
 90
        1
176
     1
 90
        1
176
     1
 40
0.5
176
     1
 40
30.0
176
     1
 62
     7
420
 16777215
176
     1
 90
        1
176
     1
 90
        0
176
     1
 62
     7
176
     1
 62
   257
176
     1
 90
        1
176
     1
 90
        1
176
     1
 40
1.0
176
     1
 90
        8
176
     1
 62
     7
176
     1
 40
1.0
176
     1
 90
        1
176
     1
 90
        6
176
     1
 90
        2
176
     1
 62
     7
176
     1
 90
        3
176
     1
 90
        0
176
     1
 90
        0
176
     1
290
     0
176
     1
 90
       13
176
     1
 40
0.0
176
     1
 90
        0
176
     1
290
     0
176
     1
290
     1
176
     1
290
     1
176
     1
290
     0
176
     1
290
     0
176
     1
290
     0
176
     1
290
     0
176
     1
290
     0
176
     1
290
     0
176
     1
 90
       50
176
     1
 40
0.0
176
     1
 40
1.0
176
     1
 90
        0
176
     1
 62
    18
420
        0
176
     1
 90
       50
176
     1
 90
        3
176
     1
 62
     5
420
      255
176
     1
290
     0
176
     1
 90
       50
176
     1
 90
       50
176
     1
 90
       50
176
     1
290
     0
176
     1
 90
       50
176
     1
 62
   256
176
     0
 40
1.0
176
     0
 90
        2
176
     1
  1
strokes_ogs.tif
176
     1
290
     0
176
     1
 40
1.0
176
     1
 40
1.0
176
     1
1001
ACAD
1000
AcDbSavedByObjectVersion
1070
     0
  0
DICTIONARYVAR
  5
1B5
102
{ACAD_REACTORS
330
1B0
102
}
330
1B0
100
DictionaryVariables
280
     0
  1
1:1
  0
DICTIONARYVAR
  5
1B2
102
{ACAD_REACTORS
330
1B0
102
}
330
1B0
100
DictionaryVariables
280
     0
  1
STANDARD
  0
DICTIONARYVAR
  5
1B1
102
{ACAD_REACTORS
330
1B0
102
}
330
1B0
100
DictionaryVariables
280
     0
  1
STANDARD
  0
DICTIONARYVAR
  5
1B3
102
{ACAD_REACTORS
330
1B0
102
}
330
1B0
100
DictionaryVariables
280
     0
  1
Imperial24
  0
DICTIONARYVAR
  5
1B4
102
{ACAD_REACTORS
330
1B0
102
}
330
1B0
100
DictionaryVariables
280
     0
  1
Imperial24
  0
DICTIONARY
  5
1BB
330
6B
100
AcDbDictionary
280
     1
281
     1
  3
ACAD_XREC_ROUNDTRIP
360
1BC
  0
DICTIONARY
  5
1A
330
19
100
AcDbDictionary
280
     1
281
     1
  3
BUMPTILE
360
1C
  3
DIFFUSETILE
360
1B
  3
OPACITYTILE
360
1F
  3
REFLECTIONTILE
360
1E
  3
REFRACTIONTILE
360
20
  3
SPECULARTILE
360
1D
  0
DICTIONARY
  5
12
330
11
100
AcDbDictionary
280
     1
281
     1
  3
BUMPTILE
360
14
  3
DIFFUSETILE
360
13
  3
OPACITYTILE
360
17
  3
REFLECTIONTILE
360
16
  3
REFRACTIONTILE
360
18
  3
SPECULARTILE
360
15
  0
DICTIONARY
  5
22
330
21
100
AcDbDictionary
280
     1
281
     1
  3
BUMPTILE
360
24
  3
DIFFUSETILE
360
23
  3
OPACITYTILE
360
27
  3
REFLECTIONTILE
360
26
  3
REFRACTIONTILE
360
28
  3
SPECULARTILE
360
25
  0
DICTIONARY
  5
1B9
330
69
100
AcDbDictionary
280
     1
281
     1
  3
ACAD_XREC_ROUNDTRIP
360
1BA
  0
DICTIONARY
  5
1B6
330
65
100
AcDbDictionary
280
     1
281
     1
  3
ACAD_ROUNDTRIP_2008_TABLESTYLE_CELLSTYLEMAP
360
1B7
  0
XRECORD
  5
1BC
102
{ACAD_REACTORS
330
1BB
102
}
330
1BB
100
AcDbXrecord
280
     1
102
DISPLAYNAME
  1
Imperial24
102
FLAGS
 90
        0
  0
XRECORD
  5
1C
102
{ACAD_REACTORS
330
1A
102
}
330
1A
100
AcDbXrecord
280
     1
270
     1
271
     1
  0
XRECORD
  5
1B
102
{ACAD_REACTORS
330
1A
102
}
330
1A
100
AcDbXrecord
280
     1
270
     1
271
     1
  0
XRECORD
  5
1F
102
{ACAD_REACTORS
330
1A
102
}
330
1A
100
AcDbXrecord
280
     1
270
     1
271
     1
  0
XRECORD
  5
1E
102
{ACAD_REACTORS
330
1A
102
}
330
1A
100
AcDbXrecord
280
     1
270
     1
271
     1
  0
XRECORD
  5
20
102
{ACAD_REACTORS
330
1A
102
}
330
1A
100
AcDbXrecord
280
     1
270
     1
271
     1
  0
XRECORD
  5
1D
102
{ACAD_REACTORS
330
1A
102
}
330
1A
100
AcDbXrecord
280
     1
270
     1
271
     1
  0
XRECORD
  5
14
102
{ACAD_REACTORS
330
12
102
}
330
12
100
AcDbXrecord
280
     1
270
     1
271
     1
  0
XRECORD
  5
13
102
{ACAD_REACTORS
330
12
102
}
330
12
100
AcDbXrecord
280
     1
270
     1
271
     1
  0
XRECORD
  5
17
102
{ACAD_REACTORS
330
12
102
}
330
12
100
AcDbXrecord
280
     1
270
     1
271
     1
  0
XRECORD
  5
16
102
{ACAD_REACTORS
330
12
102
}
330
12
100
AcDbXrecord
280
     1
270
     1
271
     1
  0
XRECORD
  5
18
102
{ACAD_REACTORS
330
12
102
}
330
12
100
AcDbXrecord
280
     1
270
     1
271
     1
  0
XRECORD
  5
15
102
{ACAD_REACTORS
330
12
102
}
330
12
100
AcDbXrecord
280
     1
270
     1
271
     1
  0
XRECORD
  5
24
102
{ACAD_REACTORS
330
22
102
}
330
22
100
AcDbXrecord
280
     1
270
     1
271
     1
  0
XRECORD
  5
23
102
{ACAD_REACTORS
330
22
102
}
330
22
100
AcDbXrecord
280
     1
270
     1
271
     1
  0
XRECORD
  5
27
102
{ACAD_REACTORS
330
22
102
}
330
22
100
AcDbXrecord
280
     1
270
     1
271
     1
  0
XRECORD
  5
26
102
{ACAD_REACTORS
330
22
102
}
330
22
100
AcDbXrecord
280
     1
270
     1
271
     1
  0
XRECORD
  5
28
102
{ACAD_REACTORS
330
22
102
}
330
22
100
AcDbXrecord
280
     1
270
     1
271
     1
  0
XRECORD
  5
25
102
{ACAD_REACTORS
330
22
102
}
330
22
100
AcDbXrecord
280
     1
270
     1
271
     1
  0
XRECORD
  5
1BA
102
{ACAD_REACTORS
330
1B9
102
}
330
1B9
100
AcDbXrecord
280
     1
102
DISPLAYNAME
  1
Imperial24
102
FLAGS
 90
        0
  0
CELLSTYLEMAP
  5
1B7
102
{ACAD_REACTORS
330
1B6
102
}
330
1B6
100
AcDbCellStyleMap
 90
        3
300
CELLSTYLE
  1
TABLEFORMAT_BEGIN
 90
        5
170
     1
 91
        0
 92
    32768
 62
   257
 93
        1
300
CONTENTFORMAT
  1
CONTENTFORMAT_BEGIN
 90
        0
 91
        0
 92
      512
 93
        0
300

 40
0.0
140
1.0
 94
        5
 62
     0
340
55
144
0.25
309
CONTENTFORMAT_END
171
     0
 94
        0
309
TABLEFORMAT_END
  1
CELLSTYLE_BEGIN
 90
        1
 91
        1
300
_TITLE
309
CELLSTYLE_END
300
CELLSTYLE
  1
TABLEFORMAT_BEGIN
 90
        5
170
     1
 91
        0
 92
        0
 62
   257
 93
        1
300
CONTENTFORMAT
  1
CONTENTFORMAT_BEGIN
 90
        0
 91
        0
 92
      512
 93
        0
300

 40
0.0
140
1.0
 94
        5
 62
     0
340
55
144
0.18
309
CONTENTFORMAT_END
171
     0
 94
        0
309
TABLEFORMAT_END
  1
CELLSTYLE_BEGIN
 90
        2
 91
        1
300
_HEADER
309
CELLSTYLE_END
300
CELLSTYLE
  1
TABLEFORMAT_BEGIN
 90
        5
170
     1
 91
        0
 92
        0
 62
   257
 93
        1
300
CONTENTFORMAT
  1
CONTENTFORMAT_BEGIN
 90
        0
 91
        0
 92
      512
 93
        0
300

 40
0.0
140
1.0
 94
        2
 62
     0
340
55
144
0.18
309
CONTENTFORMAT_END
171
     0
 94
        0
309
TABLEFORMAT_END
  1
CELLSTYLE_BEGIN
 90
        3
 91
        2
300
_DATA
309
CELLSTYLE_END
  0
ENDSEC
  0
EOF
