0
SECTION
2
HEADER
9
$INSUNITS
70
4
9
$ACADVER
1
AC1014
9
$HANDSEED
5
FFFF
0
ENDSEC
0
SECTION
2
TABLES
0
TABLE
2
VPORT
5
8
100
AcDbSymbolTable
0
ENDTAB
0
TABLE
2
LTYPE
5
5
100
AcDbSymbolTable
0
LTYPE
5
14
100
AcDbSymbolTableRecord
100
AcDbLinetypeTableRecord
2
BYBLOCK
70
0
0
LTYPE
5
15
100
AcDbSymbolTableRecord
100
AcDbLinetypeTableRecord
2
BYLAYER
70
0
0
LTYPE
5
16
100
AcDbSymbolTableRecord
100
AcDbLinetypeTableRecord
2
DASHED
70
0
3
Dashed __ __ __ __ __ __ __ __ __ __ __ __ __ _
72
65
73
2
40
0.75
49
0.5
74
0
49
-0.25
74
0
0
ENDTAB
0
TABLE
2
LAYER
5
2
100
AcDbSymbolTable
70
2
0
LAYER
5
50
100
AcDbSymbolTableRecord
100
AcDbLayerTableRecord
2
0
70
0
62
7
6
CONTINUOUS
0
ENDTAB
0
TABLE
2
STYLE
5
3
100
AcDbSymbolTable
70
1
0
STYLE
5
11
100
AcDbSymbolTableRecord
100
AcDbTextStyleTableRecord
2
STANDARD
70
0
0
ENDTAB
0
TABLE
2
VIEW
5
6
100
AcDbSymbolTable
70
0
0
ENDTAB
0
TABLE
2
UCS
5
7
100
AcDbSymbolTable
70
0
0
ENDTAB
0
TABLE
2
APPID
5
9
100
AcDbSymbolTable
70
2
0
APPID
5
12
100
AcDbSymbolTableRecord
100
AcDbRegAppTableRecord
2
ACAD
70
0
0
ENDTAB
0
TABLE
2
DIMSTYLE
5
A
100
AcDbSymbolTable
70
1
0
ENDTAB
0
TABLE
2
BLOCK_RECORD
5
1
100
AcDbSymbolTable
70
1
0
BLOCK_RECORD
5
1F
100
AcDbSymbolTableRecord
100
AcDbBlockTableRecord
2
*MODEL_SPACE
0
BLOCK_RECORD
5
1B
100
AcDbSymbolTableRecord
100
AcDbBlockTableRecord
2
*PAPER_SPACE
0
ENDTAB
0
ENDSEC
0
SECTION
2
BLOCKS
0
BLOCK
5
20
100
AcDbEntity
100
AcDbBlockBegin
2
*MODEL_SPACE
0
ENDBLK
5
21
100
AcDbEntity
100
AcDbBlockEnd
0
BLOCK
5
1C
100
AcDbEntity
100
AcDbBlockBegin
2
*PAPER_SPACE
0
ENDBLK
5
1D
100
AcDbEntity
100
AcDbBlockEnd
0
ENDSEC
0
SECTION
2
ENTITIES
0
LINE
5
100
100
AcDbEntity
8
0
100
AcDbLine
10
36.414523509548033
20
-235.82552101907379
30
0
11
36.414523509548033
21
-235.82060861283844
31
0
0
LINE
5
101
100
AcDbEntity
8
0
100
AcDbLine
10
56.952926862032356
20
-235.82060861283844
30
0
11
56.952926862032356
21
-232.82060861283841
31
0
0
LINE
5
102
100
AcDbEntity
8
0
100
AcDbLine
10
56.952926862032356
20
-232.82060861283841
30
0
11
108.90192686203235
21
-232.82060861283841
31
0
0
LINE
5
103
100
AcDbEntity
8
0
100
AcDbLine
10
108.90192686203235
20
-232.82060861283841
30
0
11
108.90192686203235
21
-235.82060861283844
31
0
0
LINE
5
104
100
AcDbEntity
8
0
100
AcDbLine
10
108.90192686203235
20
-235.82060861283844
30
0
11
132.4400972516805
21
-235.82060861283844
31
0
0
LINE
5
105
100
AcDbEntity
8
0
100
AcDbLine
10
132.4400972516805
20
-235.82060861283844
30
0
11
132.4400972516805
21
-232.82060861283841
31
0
0
LINE
5
106
100
AcDbEntity
8
0
100
AcDbLine
10
184.38909725168054
20
-232.82060861283841
30
0
11
184.38909725168054
21
-235.82060861283844
31
0
0
LINE
5
107
100
AcDbEntity
8
0
100
AcDbLine
10
184.38909725168054
20
-235.82060861283844
30
0
11
207.92731038061433
21
-235.82060861283844
31
0
0
LINE
5
108
100
AcDbEntity
8
0
100
AcDbLine
10
259.87631038061431
20
-235.82060861283844
30
0
11
283.41465884527912
21
-235.82060861283844
31
0
0
LINE
5
109
100
AcDbEntity
8
0
100
AcDbLine
10
283.41465884527912
20
-235.82060861283844
30
0
11
283.41465884527912
21
-249.78922942158459
31
0
0
LINE
5
110
100
AcDbEntity
8
0
100
AcDbLine
10
259.87631038061431
20
-232.82060861283841
30
0
11
259.87631038061431
21
-235.82060861283844
31
0
0
LINE
5
111
100
AcDbEntity
8
0
100
AcDbLine
10
207.92731038061433
20
-235.82060861283844
30
0
11
207.92731038061433
21
-232.82060861283841
31
0
0
LINE
5
112
100
AcDbEntity
8
0
100
AcDbLine
10
207.92731038061433
20
-232.82060861283841
30
0
11
259.87631038061431
21
-232.82060861283841
31
0
0
LINE
5
113
100
AcDbEntity
8
0
100
AcDbLine
10
132.4400972516805
20
-232.82060861283841
30
0
11
184.38909725168054
21
-232.82060861283841
31
0
0
LWPOLYLINE
5
114
100
AcDbEntity
8
0
100
AcDbPolyline
90
2
70
1
43
0.0
10
283.41465884527912
20
-249.78922942158459
10
280.41465884527992
20
-249.78922727375547
0
LINE
5
115
100
AcDbEntity
8
0
100
AcDbLine
10
280.41465884527992
20
-249.78922727375547
30
0
11
280.41462588186062
21
-295.83118551931898
31
0
0
LINE
5
116
100
AcDbEntity
8
0
100
AcDbLine
10
280.41461373335886
20
-312.79971683513321
30
0
11
280.41458076993962
21
-358.84167508069675
31
0
0
LINE
5
117
100
AcDbEntity
8
0
100
AcDbLine
10
283.41456862143701
20
-375.81020854434001
30
0
11
283.41458076993882
21
-358.84167722852578
31
0
0
LINE
5
118
100
AcDbEntity
8
0
100
AcDbLine
10
280.41458076993962
20
-358.84167508069675
30
0
11
283.41458076993882
21
-358.84167722852578
31
0
0
LINE
5
119
100
AcDbEntity
8
0
100
AcDbLine
10
280.41462588186062
20
-295.83118551931898
30
0
11
283.41462588185982
21
-295.83118766714813
31
0
0
LINE
5
120
100
AcDbEntity
8
0
100
AcDbLine
10
283.41461373335801
20
-312.7997189829623
30
0
11
283.41462588185982
21
-295.83118766714813
31
0
0
LINE
5
121
100
AcDbEntity
8
0
100
AcDbLine
10
280.41456862143781
20
-375.81020639651086
30
0
11
280.41453565801856
21
-421.8521646420744
31
0
0
LINE
5
122
100
AcDbEntity
8
0
100
AcDbLine
10
283.41456862143701
20
-375.81020854434001
30
0
11
280.41456862143781
21
-375.81020639651086
31
0
0
LINE
5
123
100
AcDbEntity
8
0
100
AcDbLine
10
280.41453565801856
20
-421.8521646420744
30
0
11
283.41453565801777
21
-421.85216678990349
31
0
0
LINE
5
124
100
AcDbEntity
8
0
100
AcDbLine
10
283.41452565734505
20
-435.82069810571841
30
0
11
283.41453565801777
21
-421.85216678990349
31
0
0
LINE
5
125
100
AcDbEntity
8
0
100
AcDbLine
10
259.87631038061431
20
-435.82060861283844
30
0
11
283.41452350954802
21
-435.82060861283844
31
0
0
LINE
5
126
100
AcDbEntity
8
0
100
AcDbLine
10
207.92731038061433
20
-438.82060861283844
30
0
11
259.87631038061431
21
-438.82060861283844
31
0
0
LINE
5
127
100
AcDbEntity
8
0
100
AcDbLine
10
132.4400972516805
20
-438.82060861283844
30
0
11
184.38909725168054
21
-438.82060861283844
31
0
0
LINE
5
128
100
AcDbEntity
8
0
100
AcDbLine
10
108.90192686203235
20
-435.82060861283844
30
0
11
132.4400972516805
21
-435.82060861283844
31
0
0
LINE
5
129
100
AcDbEntity
8
0
100
AcDbLine
10
132.4400972516805
20
-435.82060861283844
30
0
11
132.4400972516805
21
-438.82060861283844
31
0
0
LINE
5
130
100
AcDbEntity
8
0
100
AcDbLine
10
56.952926862032356
20
-438.82060861283844
30
0
11
108.90192686203235
21
-438.82060861283844
31
0
0
LINE
5
131
100
AcDbEntity
8
0
100
AcDbLine
10
108.90192686203235
20
-438.82060861283844
30
0
11
108.90192686203235
21
-435.82060861283844
31
0
0
LINE
5
132
100
AcDbEntity
8
0
100
AcDbLine
10
184.38909725168054
20
-435.82060861283844
30
0
11
207.92731038061433
21
-435.82060861283844
31
0
0
LINE
5
133
100
AcDbEntity
8
0
100
AcDbLine
10
184.38909725168054
20
-438.82060861283844
30
0
11
184.38909725168054
21
-435.82060861283844
31
0
0
LINE
5
134
100
AcDbEntity
8
0
100
AcDbLine
10
207.92731038061433
20
-435.82060861283844
30
0
11
207.92731038061433
21
-438.82060861283844
31
0
0
LINE
5
135
100
AcDbEntity
8
0
100
AcDbLine
10
33.414523509548047
20
-435.82060861283844
30
0
11
33.414523509548047
21
-421.85207729701995
31
0
0
LINE
5
136
100
AcDbEntity
8
0
100
AcDbLine
10
36.414523509548047
20
-421.85207729701995
30
0
11
33.414523509548047
21
-421.85207729701995
31
0
0
LINE
5
137
100
AcDbEntity
8
0
100
AcDbLine
10
36.414523509548047
20
-375.81011905144464
30
0
11
36.414523509548047
21
-421.85207729701995
31
0
0
LINE
5
138
100
AcDbEntity
8
0
100
AcDbLine
10
56.952926862032356
20
-435.82060861283844
30
0
11
56.952926862032356
21
-438.82060861283844
31
0
0
LINE
5
139
100
AcDbEntity
8
0
100
AcDbLine
10
33.414523509548047
20
-435.82060861283844
30
0
11
56.952926862032356
21
-435.82060861283844
31
0
0
LINE
5
140
100
AcDbEntity
8
0
100
AcDbLine
10
36.414523509548033
20
-312.79962949005079
30
0
11
36.414523509548033
21
-358.84158773562609
31
0
0
LINE
5
141
100
AcDbEntity
8
0
100
AcDbLine
10
33.414523509548047
20
-312.79962949005079
30
0
11
36.414523509548033
21
-312.79962949005079
31
0
0
LINE
5
142
100
AcDbEntity
8
0
100
AcDbLine
10
36.414523509548033
20
-358.84158773562609
30
0
11
33.414523509548047
21
-358.84158773562609
31
0
0
LINE
5
143
100
AcDbEntity
8
0
100
AcDbLine
10
33.414523509548047
20
-375.81011905144464
30
0
11
33.414523509548047
21
-358.84158773562609
31
0
0
LINE
5
144
100
AcDbEntity
8
0
100
AcDbLine
10
33.414523509548047
20
-375.81011905144464
30
0
11
36.414523509548047
21
-375.81011905144464
31
0
0
LINE
5
145
100
AcDbEntity
8
0
100
AcDbLine
10
33.414523509548047
20
-312.79962949005079
30
0
11
33.414523509548047
21
-295.83160861283841
31
0
0
LINE
5
146
100
AcDbEntity
8
0
100
AcDbLine
10
283.41461373335801
20
-312.7997189829623
30
0
11
280.41461373335886
21
-312.79971683513321
31
0
0
LINE
5
147
100
AcDbEntity
8
0
100
AcDbLine
10
259.87631038061431
20
-438.82060861283844
30
0
11
259.87631038061431
21
-435.82060861283844
31
0
0
LINE
5
148
100
AcDbEntity
8
0
100
AcDbLine
10
56.952926862032356
20
-235.82060861283844
30
0
11
33.41492686203236
21
-235.82060861283844
31
0
0
LINE
5
149
100
AcDbEntity
8
0
100
AcDbLine
10
33.41492686203236
20
-235.82060861283844
30
0
11
33.41492686203236
21
-249.78960861283841
31
0
0
LINE
5
150
100
AcDbEntity
8
0
100
AcDbLine
10
33.41492686203236
20
-249.78960861283841
30
0
11
36.41492686203236
21
-249.78960861283841
31
0
0
LINE
5
151
100
AcDbEntity
8
0
100
AcDbLine
10
36.41492686203236
20
-249.78960861283841
30
0
11
36.41492686203236
21
-295.83160861283841
31
0
0
LINE
5
152
100
AcDbEntity
8
0
100
AcDbLine
10
36.41492686203236
20
-295.83160861283841
30
0
11
33.414523509548047
21
-295.83160861283841
31
0
0
ENDSEC
0
SECTION
2
OBJECTS
0
DICTIONARY
5
C
100
AcDbDictionary
3
ACAD_GROUP
350
D
3
ACAD_MLINESTYLE
350
17
0
DICTIONARY
5
D
100
AcDbDictionary
0
DICTIONARY
5
1A
330
C
100
AcDbDictionary
0
DICTIONARY
5
17
100
AcDbDictionary
0
ENDSEC
0
EOF
