0
SECTION
2
HEADER
9
$INSUNITS
70
4
9
$ACADVER
1
AC1014
9
$HANDSEED
5
FFFF
0
ENDSEC
0
SECTION
2
TABLES
0
TABLE
2
VPORT
5
8
100
AcDbSymbolTable
0
ENDTAB
0
TABLE
2
LTYPE
5
5
100
AcDbSymbolTable
0
LTYPE
5
14
100
AcDbSymbolTableRecord
100
AcDbLinetypeTableRecord
2
BYBLOCK
70
0
0
LTYPE
5
15
100
AcDbSymbolTableRecord
100
AcDbLinetypeTableRecord
2
BYLAYER
70
0
0
LTYPE
5
16
100
AcDbSymbolTableRecord
100
AcDbLinetypeTableRecord
2
DASHED
70
0
3
Dashed __ __ __ __ __ __ __ __ __ __ __ __ __ _
72
65
73
2
40
0.75
49
0.5
74
0
49
-0.25
74
0
0
ENDTAB
0
TABLE
2
LAYER
5
2
100
AcDbSymbolTable
70
2
0
LAYER
5
50
100
AcDbSymbolTableRecord
100
AcDbLayerTableRecord
2
0
70
0
62
7
6
CONTINUOUS
0
ENDTAB
0
TABLE
2
STYLE
5
3
100
AcDbSymbolTable
70
1
0
STYLE
5
11
100
AcDbSymbolTableRecord
100
AcDbTextStyleTableRecord
2
STANDARD
70
0
0
ENDTAB
0
TABLE
2
VIEW
5
6
100
AcDbSymbolTable
70
0
0
ENDTAB
0
TABLE
2
UCS
5
7
100
AcDbSymbolTable
70
0
0
ENDTAB
0
TABLE
2
APPID
5
9
100
AcDbSymbolTable
70
2
0
APPID
5
12
100
AcDbSymbolTableRecord
100
AcDbRegAppTableRecord
2
ACAD
70
0
0
ENDTAB
0
TABLE
2
DIMSTYLE
5
A
100
AcDbSymbolTable
70
1
0
ENDTAB
0
TABLE
2
BLOCK_RECORD
5
1
100
AcDbSymbolTable
70
1
0
BLOCK_RECORD
5
1F
100
AcDbSymbolTableRecord
100
AcDbBlockTableRecord
2
*MODEL_SPACE
0
BLOCK_RECORD
5
1B
100
AcDbSymbolTableRecord
100
AcDbBlockTableRecord
2
*PAPER_SPACE
0
ENDTAB
0
ENDSEC
0
SECTION
2
BLOCKS
0
BLOCK
5
20
100
AcDbEntity
100
AcDbBlockBegin
2
*MODEL_SPACE
0
ENDBLK
5
21
100
AcDbEntity
100
AcDbBlockEnd
0
BLOCK
5
1C
100
AcDbEntity
100
AcDbBlockBegin
2
*PAPER_SPACE
0
ENDBLK
5
1D
100
AcDbEntity
100
AcDbBlockEnd
0
ENDSEC
0
SECTION
2
ENTITIES
0
LWPOLYLINE
5
100
100
AcDbEntity
8
0
100
AcDbPolyline
90
28
70
1
43
0.0
10
0
20
-68.95528692458808
10
-3.0000000000000138
20
-68.955286924588137
10
-3.0000000000000044
20
-143.13413922623553
10
0
20
-143.13413922623556
10
0
20
-175
10
347
20
-175
10
347
20
-143.13413922623556
10
344.00000000000006
20
-143.13413922623556
10
344.00000000000006
20
-68.955286924588151
10
347
20
-68.955286924588151
10
347
20
-37.089426150824004
10
344.00000000000006
20
-37.089426150824004
10
344.00000000000006
20
37.089426150823769
10
347
20
37.089426150823769
10
347
20
68.955286924586915
10
344.00000000000006
20
68.955286924586915
10
344.00000000000006
20
143.13413922623556
10
347
20
143.13413922623556
10
347
20
175
10
0
20
175
10
0
20
143.13413922623565
10
-3.00000000000004
20
143.13413922623556
10
-3.0000000000000302
20
68.955286924588194
10
0
20
68.955286924588137
10
0
20
37.089426150823769
10
-3.0000000000000266
20
37.089426150823698
10
-3.0000000000000178
20
-37.089426150823641
10
0
20
-37.089426150823698
0
LINE
5
101
100
AcDbEntity
8
0
100
AcDbLine
10
274.58358166693796
20
154.12899496981305
30
-0.41594431303849433
11
139.58358166693796
21
154.12899496981305
31
-0.41594431303847884
0
LINE
5
102
100
AcDbEntity
8
0
100
AcDbLine
10
139.58358166693796
20
154.12899496981305
30
-0.41594431303847884
11
139.58358166693796
21
24.128994969813036
31
-0.41594431303849433
0
LINE
5
103
100
AcDbEntity
8
0
100
AcDbLine
10
139.58358166693796
20
24.128994969813036
30
-0.41594431303849433
11
274.58358166693796
21
24.128994969813036
31
-0.41594431303849433
0
LINE
5
104
100
AcDbEntity
8
0
100
AcDbLine
10
274.58358166693796
20
24.128994969813036
30
-0.41594431303849433
11
274.58358166693796
21
154.12899496981305
31
-0.41594431303849433
0
LINE
5
105
100
AcDbEntity
8
0
100
AcDbLine
10
139.58358166693796
20
154.12899496981305
30
-0.41594431303847884
11
144.58358166693796
21
154.12899496981305
31
-0.41594431303854529
0
LINE
5
106
100
AcDbEntity
8
0
100
AcDbLine
10
144.58358166693796
20
154.12899496981305
30
-0.41594431303854529
11
144.58358166693796
21
149.12899496981305
31
-0.41594431303854529
6
DASHED
0
LINE
5
107
100
AcDbEntity
8
0
100
AcDbLine
10
144.58358166693796
20
149.12899496981305
30
-0.41594431303854529
11
139.58358166693796
21
149.12899496981305
31
-0.41594431303854529
6
DASHED
0
LINE
5
108
100
AcDbEntity
8
0
100
AcDbLine
10
139.58358166693796
20
149.12899496981305
30
-0.41594431303854529
11
139.58358166693796
21
154.12899496981305
31
-0.41594431303847884
0
LINE
5
109
100
AcDbEntity
8
0
100
AcDbLine
10
139.58358166693796
20
149.12899496981305
30
-0.41594431303847945
11
146.58358166693796
21
149.12899496981305
31
-0.41594431303847945
6
DASHED
0
CIRCLE
5
110
100
AcDbEntity
8
0
100
AcDbCircle
10
146.58358166693796
20
149.12899496981305
30
-0.41594431303847945
40
1.6000000000000112
210
0
220
0
230
1
0
LINE
5
111
100
AcDbEntity
8
0
100
AcDbLine
10
139.58358166693796
20
149.12899496981305
30
-0.41594431303854529
11
169.58358166693796
21
149.12899496981305
31
-0.41594431303854529
6
DASHED
0
CIRCLE
5
112
100
AcDbEntity
8
0
100
AcDbCircle
10
169.55766643399807
20
149.12899496981305
30
-0.41594431303854529
40
1.6000000000000081
210
0
220
0
230
1
0
LINE
5
113
100
AcDbEntity
8
0
100
AcDbLine
10
139.58358166693796
20
149.12899496981305
30
-0.41594431303854529
11
215.58358166693796
21
149.12899496981305
31
-0.41594431303854529
6
DASHED
0
CIRCLE
5
114
100
AcDbEntity
8
0
100
AcDbCircle
10
215.58358166693796
20
149.12899496981305
30
-0.41594431303854529
40
1.5999999999999877
210
0
220
0
230
1
0
LINE
5
115
100
AcDbEntity
8
0
100
AcDbLine
10
139.58358166693796
20
149.12899496981305
30
-0.41594431303847945
11
249.58358166693796
21
149.12899496981305
31
-0.41594431303847945
6
DASHED
0
CIRCLE
5
116
100
AcDbEntity
8
0
100
AcDbCircle
10
249.58358166693796
20
149.12899496981305
30
-0.41594431303847945
40
1.6000000000000085
210
0
220
0
230
1
0
LINE
5
117
100
AcDbEntity
8
0
100
AcDbLine
10
139.58358166693796
20
24.128994969813036
30
-0.41594431303849433
11
144.58358166693796
21
24.128994969813036
31
-0.41594431303849433
6
DASHED
0
LINE
5
118
100
AcDbEntity
8
0
100
AcDbLine
10
144.58358166693796
20
24.128994969813036
30
-0.41594431303849433
11
144.58358166693796
21
32.128994969813036
31
-0.41594431303849433
6
DASHED
0
LINE
5
119
100
AcDbEntity
8
0
100
AcDbLine
10
144.58358166693796
20
32.128994969813036
30
-0.41594431303849433
11
139.58358166693796
21
32.128994969813036
31
-0.41594431303849433
6
DASHED
0
LINE
5
120
100
AcDbEntity
8
0
100
AcDbLine
10
139.58358166693796
20
32.128994969813036
30
-0.41594431303849433
11
139.58358166693796
21
24.128994969813036
31
-0.41594431303849433
6
DASHED
0
CIRCLE
5
121
100
AcDbEntity
8
0
100
AcDbCircle
10
144.58358166693796
20
32.128994969813036
30
-0.41594431303849433
40
1.6000000000000034
210
0
220
0
230
1
0
LINE
5
122
100
AcDbEntity
8
0
100
AcDbLine
10
139.58358166693796
20
32.108936293037118
30
-0.41594431303849333
11
169.58358166693796
21
32.108936293037118
31
-0.41594431303849333
6
DASHED
0
CIRCLE
5
123
100
AcDbEntity
8
0
100
AcDbCircle
10
169.58358166693796
20
32.108936293037118
30
-0.41594431303849333
40
1.6000000000000105
210
0
220
0
230
1
0
LINE
5
124
100
AcDbEntity
8
0
100
AcDbLine
10
139.58358166693796
20
32.128994969813036
30
-0.41594431303849433
11
215.58358166693796
21
32.128994969813036
31
-0.41594431303849433
6
DASHED
0
CIRCLE
5
125
100
AcDbEntity
8
0
100
AcDbCircle
10
215.58290046882428
20
32.128994969813036
30
-0.41594431303849433
40
1.6000000000000036
210
0
220
0
230
1
0
LINE
5
126
100
AcDbEntity
8
0
100
AcDbLine
10
274.58358166693796
20
154.12899496981305
30
-0.41594431303849433
11
261.58358166693796
21
154.12899496981305
31
-0.41594431303849433
6
DASHED
0
LINE
5
127
100
AcDbEntity
8
0
100
AcDbLine
10
261.58358166693796
20
154.12899496981305
30
-0.41594431303849433
11
261.58358166693796
21
137.12899496981305
31
-0.41594431303849433
6
DASHED
0
LINE
5
128
100
AcDbEntity
8
0
100
AcDbLine
10
261.58358166693796
20
137.12899496981305
30
-0.41594431303849433
11
274.58358166693796
21
137.12899496981305
31
-0.41594431303849433
6
DASHED
0
LINE
5
129
100
AcDbEntity
8
0
100
AcDbLine
10
274.58358166693796
20
137.12899496981305
30
-0.41594431303849433
11
274.58358166693796
21
154.12899496981305
31
-0.41594431303849433
6
DASHED
0
CIRCLE
5
130
100
AcDbEntity
8
0
100
AcDbCircle
10
261.58358166693796
20
137.12899496981305
30
-0.41594431303849433
40
1.600000000000005
210
0
220
0
230
1
0
LINE
5
131
100
AcDbEntity
8
0
100
AcDbLine
10
274.58358166693796
20
24.128994969813036
30
-0.41594431303849433
11
267.58358166693796
21
24.128994969813036
31
-0.41594431303849433
6
DASHED
0
LINE
5
132
100
AcDbEntity
8
0
100
AcDbLine
10
267.58358166693796
20
24.128994969813036
30
-0.41594431303849433
11
267.58358166693796
21
41.128994969813036
31
-0.41594431303849433
6
DASHED
0
LINE
5
133
100
AcDbEntity
8
0
100
AcDbLine
10
267.58358166693796
20
41.128994969813036
30
-0.41594431303849433
11
274.58358166693796
21
41.128994969813036
31
-0.41594431303849433
6
DASHED
0
LINE
5
134
100
AcDbEntity
8
0
100
AcDbLine
10
274.58358166693796
20
41.128994969813036
30
-0.41594431303849433
11
274.58358166693796
21
24.128994969813036
31
-0.41594431303849433
6
DASHED
0
CIRCLE
5
135
100
AcDbEntity
8
0
100
AcDbCircle
10
267.58358166693796
20
41.128994969813036
30
-0.41594431303849433
40
1.5999999999999901
210
0
220
0
230
1
0
LWPOLYLINE
5
136
100
AcDbEntity
8
0
100
AcDbPolyline
90
4
70
1
43
0.0
10
150
20
-20
10
210
20
-20
10
210
20
-60
10
150
20
-60
0
LINE
5
137
100
AcDbEntity
8
0
100
AcDbLine
10
150
20
-20
30
0
11
157
21
-20
31
0
0
LINE
5
138
100
AcDbEntity
8
0
100
AcDbLine
10
157
20
-20
30
0
11
157
21
-27
31
0
6
DASHED
0
LINE
5
139
100
AcDbEntity
8
0
100
AcDbLine
10
157
20
-27
30
0
11
150
21
-27
31
0
6
DASHED
0
LINE
5
140
100
AcDbEntity
8
0
100
AcDbLine
10
150
20
-27
30
0
11
150
21
-20
31
0
0
CIRCLE
5
141
100
AcDbEntity
8
0
100
AcDbCircle
10
157
20
-27
30
0
40
1.6000000000000005
210
0
220
0
230
1
0
LINE
5
142
100
AcDbEntity
8
0
100
AcDbLine
10
150
20
-60
30
0
11
157
21
-60
31
0
0
LINE
5
143
100
AcDbEntity
8
0
100
AcDbLine
10
157
20
-60
30
0
11
157
21
-53
31
0
6
DASHED
0
LINE
5
144
100
AcDbEntity
8
0
100
AcDbLine
10
157
20
-53
30
0
11
150
21
-53
31
0
6
DASHED
0
LINE
5
145
100
AcDbEntity
8
0
100
AcDbLine
10
150
20
-53
30
0
11
150
21
-60
31
0
0
CIRCLE
5
146
100
AcDbEntity
8
0
100
AcDbCircle
10
157
20
-53
30
0
40
1.6000000000000014
210
0
220
0
230
1
0
LINE
5
147
100
AcDbEntity
8
0
100
AcDbLine
10
150
20
-20
30
0
11
194
21
-20
31
0
6
DASHED
0
LINE
5
148
100
AcDbEntity
8
0
100
AcDbLine
10
194
20
-20
30
0
11
194
21
-22.5
31
0
6
DASHED
0
CIRCLE
5
149
100
AcDbEntity
8
0
100
AcDbCircle
10
194
20
-22.5
30
0
40
1.6000000000000056
210
0
220
0
230
1
0
LINE
5
150
100
AcDbEntity
8
0
100
AcDbLine
10
210
20
-40
30
0
11
150
21
-40
31
0
6
DASHED
0
CIRCLE
5
151
100
AcDbEntity
8
0
100
AcDbCircle
10
194
20
-57.5
30
0
40
1.6000000000000056
210
0
220
0
230
1
0
ENDSEC
0
SECTION
2
OBJECTS
0
DICTIONARY
5
C
100
AcDbDictionary
3
ACAD_GROUP
350
D
3
ACAD_MLINESTYLE
350
17
0
DICTIONARY
5
D
100
AcDbDictionary
0
DICTIONARY
5
1A
330
C
100
AcDbDictionary
0
DICTIONARY
5
17
100
AcDbDictionary
0
ENDSEC
0
EOF
