0
SECTION
2
HEADER
9
$INSUNITS
70
4
9
$ACADVER
1
AC1014
9
$HANDSEED
5
FFFF
0
ENDSEC
0
SECTION
2
TABLES
0
TABLE
2
VPORT
5
8
100
AcDbSymbolTable
0
ENDTAB
0
TABLE
2
LTYPE
5
5
100
AcDbSymbolTable
0
LTYPE
5
14
100
AcDbSymbolTableRecord
100
AcDbLinetypeTableRecord
2
BYBLOCK
70
0
0
LTYPE
5
15
100
AcDbSymbolTableRecord
100
AcDbLinetypeTableRecord
2
BYLAYER
70
0
0
LTYPE
5
16
100
AcDbSymbolTableRecord
100
AcDbLinetypeTableRecord
2
DASHED
70
0
3
Dashed __ __ __ __ __ __ __ __ __ __ __ __ __ _
72
65
73
2
40
0.75
49
0.5
74
0
49
-0.25
74
0
0
ENDTAB
0
TABLE
2
LAYER
5
2
100
AcDbSymbolTable
70
2
0
LAYER
5
50
100
AcDbSymbolTableRecord
100
AcDbLayerTableRecord
2
0
70
0
62
7
6
CONTINUOUS
0
ENDTAB
0
TABLE
2
STYLE
5
3
100
AcDbSymbolTable
70
1
0
STYLE
5
11
100
AcDbSymbolTableRecord
100
AcDbTextStyleTableRecord
2
STANDARD
70
0
0
ENDTAB
0
TABLE
2
VIEW
5
6
100
AcDbSymbolTable
70
0
0
ENDTAB
0
TABLE
2
UCS
5
7
100
AcDbSymbolTable
70
0
0
ENDTAB
0
TABLE
2
APPID
5
9
100
AcDbSymbolTable
70
2
0
APPID
5
12
100
AcDbSymbolTableRecord
100
AcDbRegAppTableRecord
2
ACAD
70
0
0
ENDTAB
0
TABLE
2
DIMSTYLE
5
A
100
AcDbSymbolTable
70
1
0
ENDTAB
0
TABLE
2
BLOCK_RECORD
5
1
100
AcDbSymbolTable
70
1
0
BLOCK_RECORD
5
1F
100
AcDbSymbolTableRecord
100
AcDbBlockTableRecord
2
*MODEL_SPACE
0
BLOCK_RECORD
5
1B
100
AcDbSymbolTableRecord
100
AcDbBlockTableRecord
2
*PAPER_SPACE
0
ENDTAB
0
ENDSEC
0
SECTION
2
BLOCKS
0
BLOCK
5
20
100
AcDbEntity
100
AcDbBlockBegin
2
*MODEL_SPACE
0
ENDBLK
5
21
100
AcDbEntity
100
AcDbBlockEnd
0
BLOCK
5
1C
100
AcDbEntity
100
AcDbBlockBegin
2
*PAPER_SPACE
0
ENDBLK
5
1D
100
AcDbEntity
100
AcDbBlockEnd
0
ENDSEC
0
SECTION
2
ENTITIES
0
LWPOLYLINE
5
100
100
AcDbEntity
8
0
100
AcDbPolyline
90
52
70
1
43
0.0
10
-225
20
-301.33058392249279
10
-225.00000000000003
20
-347
10
-176.06836203290084
20
-347
10
-176.06836203290084
20
-344.00000000000006
10
-91.310545989033102
20
-344.00000000000006
10
-91.310545989033102
20
-347
10
-42.378908021932475
20
-347
10
-42.378908021932475
20
-344.00000000000006
10
42.378908021933839
20
-344.00000000000006
10
42.378908021933839
20
-347
10
91.310545989033045
20
-347
10
91.310545989033045
20
-344.00000000000006
10
176.06836203290058
20
-344.00000000000006
10
176.06836203290058
20
-347
10
225
20
-347
10
225
20
-301.33058392249279
10
222
20
-301.33058392249279
10
222
20
-246.55647202583572
10
225
20
-246.55647202583572
10
225
20
-200.88705594832851
10
222
20
-200.88705594832851
10
222
20
-146.11294405167146
10
225
20
-146.11294405167146
10
225
20
-100.44352797416424
10
222
20
-100.44352797416425
10
222
20
-45.669416077507201
10
225
20
-45.669416077507201
10
225
20
0
10
176.06836203290075
20
0
10
176.06836203290058
20
3.0000000000000067
10
91.310545989033187
20
3.0000000000000169
10
91.310545989033045
20
0
10
42.378908021933839
20
0
10
42.378908021933768
20
3.0000000000000231
10
-42.37890802193391
20
3.0000000000000333
10
-42.378908021933682
20
0
10
-91.310545989033102
20
0
10
-91.310545989033116
20
3.0000000000000391
10
-176.06836203290072
20
3.0000000000000497
10
-176.06836203290058
20
0
10
-225
20
0
10
-225
20
-45.669416077507222
10
-222
20
-45.669416077507222
10
-222
20
-100.44352797416428
10
-225
20
-100.44352797416425
10
-225
20
-146.11294405167149
10
-222
20
-146.11294405167149
10
-222
20
-200.88705594832857
10
-225
20
-200.88705594832857
10
-225
20
-246.55647202583577
10
-222
20
-246.55647202583577
10
-222
20
-301.33058392249279
0
LINE
5
101
100
AcDbEntity
8
0
100
AcDbLine
10
-39.496193465702376
20
-267.22044674160406
30
0
11
-152.49619346570239
21
-267.22044674160406
31
0
0
LINE
5
102
100
AcDbEntity
8
0
100
AcDbLine
10
-152.49619346570239
20
-267.22044674160406
30
0
11
-152.49619346570239
21
-150.22044674160409
31
0
0
LINE
5
103
100
AcDbEntity
8
0
100
AcDbLine
10
-152.49619346570239
20
-150.22044674160409
30
0
11
-39.496193465702376
21
-150.22044674160409
31
0
0
LINE
5
104
100
AcDbEntity
8
0
100
AcDbLine
10
-39.496193465702376
20
-150.22044674160409
30
0
11
-39.496193465702376
21
-267.22044674160406
31
0
0
LINE
5
105
100
AcDbEntity
8
0
100
AcDbLine
10
-152.49619346570239
20
-150.22044674160409
30
0
11
-147.49619346570239
21
-150.22044674160409
31
0
0
LINE
5
106
100
AcDbEntity
8
0
100
AcDbLine
10
-147.49619346570239
20
-150.22044674160409
30
0
11
-147.49619346570239
21
-155.22044674160409
31
0
6
DASHED
0
LINE
5
107
100
AcDbEntity
8
0
100
AcDbLine
10
-147.49619346570239
20
-155.22044674160409
30
0
11
-152.49619346570239
21
-155.22044674160409
31
0
6
DASHED
0
LINE
5
108
100
AcDbEntity
8
0
100
AcDbLine
10
-152.49619346570239
20
-155.22044674160409
30
0
11
-152.49619346570239
21
-150.22044674160409
31
0
0
CIRCLE
5
109
100
AcDbEntity
8
0
100
AcDbCircle
10
-147.49619346570239
20
-155.22044674160409
30
0
40
1.6000000000000003
210
0
220
0
230
1
0
LINE
5
110
100
AcDbEntity
8
0
100
AcDbLine
10
-152.49619346570239
20
-155.22044674160409
30
0
11
-117.49619346570239
21
-155.22044674160409
31
0
6
DASHED
0
CIRCLE
5
111
100
AcDbEntity
8
0
100
AcDbCircle
10
-117.49619346570239
20
-155.22044674160409
30
0
40
1.6000000000000003
210
0
220
0
230
1
0
LINE
5
112
100
AcDbEntity
8
0
100
AcDbLine
10
-152.49619346570239
20
-155.22044674160409
30
0
11
-102.49619346570239
21
-155.22044674160409
31
0
6
DASHED
0
CIRCLE
5
113
100
AcDbEntity
8
0
100
AcDbCircle
10
-102.49619346570239
20
-155.22044674160409
30
0
40
1.6000000000000003
210
0
220
0
230
1
0
LINE
5
114
100
AcDbEntity
8
0
100
AcDbLine
10
-152.49619346570239
20
-155.22044674160409
30
0
11
-49.496193465702376
21
-155.22044674160409
31
0
6
DASHED
0
CIRCLE
5
115
100
AcDbEntity
8
0
100
AcDbCircle
10
-49.496193465702376
20
-155.22044674160409
30
0
40
1.6000000000000003
210
0
220
0
230
1
0
LINE
5
116
100
AcDbEntity
8
0
100
AcDbLine
10
-39.496193465702376
20
-208.72044674160406
30
0
11
-152.49619346570239
21
-208.72044674160406
31
0
0
CIRCLE
5
117
100
AcDbEntity
8
0
100
AcDbCircle
10
-49.496193465702376
20
-262.22044674160406
30
0
40
1.6000000000000003
210
0
220
0
230
1
0
CIRCLE
5
118
100
AcDbEntity
8
0
100
AcDbCircle
10
-102.49619346570239
20
-262.22044674160406
30
0
40
1.6000000000000003
210
0
220
0
230
1
0
CIRCLE
5
119
100
AcDbEntity
8
0
100
AcDbCircle
10
-117.49619346570239
20
-262.22044674160406
30
0
40
1.6000000000000003
210
0
220
0
230
1
0
CIRCLE
5
120
100
AcDbEntity
8
0
100
AcDbCircle
10
-147.49619346570239
20
-262.22044674160406
30
0
40
1.6000000000000003
210
0
220
0
230
1
0
LINE
5
121
100
AcDbEntity
8
0
100
AcDbLine
10
-147.49619346570239
20
-262.22044674160406
30
0
11
-147.49619346570239
21
-267.22044674160406
31
0
6
DASHED
0
LINE
5
122
100
AcDbEntity
8
0
100
AcDbLine
10
-147.49619346570239
20
-262.22044674160406
30
0
11
-152.49619346570239
21
-262.22044674160406
31
0
6
DASHED
0
LWPOLYLINE
5
123
100
AcDbEntity
8
0
100
AcDbPolyline
90
4
70
1
43
0.0
10
25
20
-150
10
39.5
20
-150
10
39.5
20
-180
10
25
20
-180
0
LINE
5
124
100
AcDbEntity
8
0
100
AcDbLine
10
32.25
20
-180
30
0
11
32.25
21
-157.5
31
0
6
DASHED
0
CIRCLE
5
125
100
AcDbEntity
8
0
100
AcDbCircle
10
32.25
20
-157.5
30
0
40
1.6000000000000003
210
0
220
0
230
1
0
LWPOLYLINE
5
126
100
AcDbEntity
8
0
100
AcDbPolyline
90
4
70
1
43
0.0
10
39.5
20
-130.45389130294299
10
25
20
-130.45389130294299
10
25
20
-125
10
39.5
20
-125
0
ENDSEC
0
SECTION
2
OBJECTS
0
DICTIONARY
5
C
100
AcDbDictionary
3
ACAD_GROUP
350
D
3
ACAD_MLINESTYLE
350
17
0
DICTIONARY
5
D
100
AcDbDictionary
0
DICTIONARY
5
1A
330
C
100
AcDbDictionary
0
DICTIONARY
5
17
100
AcDbDictionary
0
ENDSEC
0
EOF
